# Tiled2Unity generated file. Do not modify by hand.
# Wavefront file for 'mapa8_mesh_0004.obj'

# Vertices (Count = 24)
v -7 -1 0
v -8 -1 0
v -8 0 0
v -7 0 0
v -2 -2 0
v -3 -2 0
v -3 -1 0
v -2 -1 0
v -7 -2 0
v -8 -2 0
v -8 -1 0
v -7 -1 0
v -2 -3 0
v -3 -3 0
v -3 -2 0
v -2 -2 0
v -2 -8 0
v -3 -8 0
v -3 -7 0
v -2 -7 0
v -3 -8 0
v -4 -8 0
v -4 -7 0
v -3 -7 0

# Texture cooridinates (Count = 18)
vt 0.8333333 0.0869565
vt 0.8666667 0.0869565
vt 0.8666667 0.1304348
vt 0.8333333 0.1304348
vt 0.5666667 0.0869565
vt 0.6 0.0869565
vt 0.6 0.1304348
vt 0.5666667 0.1304348
vt 0.8333333 0.04347825
vt 0.8666667 0.04347825
vt 0.5666667 0.04347825
vt 0.6 0.04347825
vt 0.5666667 0.2173913
vt 0.6 0.2173913
vt 0.6 0.2608696
vt 0.5666667 0.2608696
vt 0.6333333 0.2173913
vt 0.6333333 0.2608696

# Normal
vn 0 0 -1

# Mesh description
g mapa8_mesh_0004

# Faces
f 1/1/1 2/2/1 3/3/1 4/4/1
f 5/5/1 6/6/1 7/7/1 8/8/1
f 9/9/1 10/10/1 11/2/1 12/1/1
f 13/11/1 14/12/1 15/6/1 16/5/1
f 17/13/1 18/14/1 19/15/1 20/16/1
f 21/14/1 22/17/1 23/18/1 24/15/1

