# Tiled2Unity generated file. Do not modify by hand.
# Wavefront file for 'LevelEnd_lvl2_mesh_0002.obj'

# Vertices (Count = 104)
v 0 -1 0
v -1 -1 0
v -1 0 0
v 0 0 0
v -1 -1 0
v -2 -1 0
v -2 0 0
v -1 0 0
v -2 -1 0
v -3 -1 0
v -3 0 0
v -2 0 0
v -3 -1 0
v -4 -1 0
v -4 0 0
v -3 0 0
v -4 -1 0
v -5 -1 0
v -5 0 0
v -4 0 0
v -5 -1 0
v -6 -1 0
v -6 0 0
v -5 0 0
v -6 -1 0
v -7 -1 0
v -7 0 0
v -6 0 0
v -7 -1 0
v -8 -1 0
v -8 0 0
v -7 0 0
v -8 -1 0
v -9 -1 0
v -9 0 0
v -8 0 0
v -9 -1 0
v -10 -1 0
v -10 0 0
v -9 0 0
v -9 -2 0
v -10 -2 0
v -10 -1 0
v -9 -1 0
v -9 -3 0
v -10 -3 0
v -10 -2 0
v -9 -2 0
v -9 -4 0
v -10 -4 0
v -10 -3 0
v -9 -3 0
v -9 -7 0
v -10 -7 0
v -10 -6 0
v -9 -6 0
v -9 -8 0
v -10 -8 0
v -10 -7 0
v -9 -7 0
v -9 -9 0
v -10 -9 0
v -10 -8 0
v -9 -8 0
v 0 -10 0
v -1 -10 0
v -1 -9 0
v 0 -9 0
v -1 -10 0
v -2 -10 0
v -2 -9 0
v -1 -9 0
v -2 -10 0
v -3 -10 0
v -3 -9 0
v -2 -9 0
v -3 -10 0
v -4 -10 0
v -4 -9 0
v -3 -9 0
v -4 -10 0
v -5 -10 0
v -5 -9 0
v -4 -9 0
v -5 -10 0
v -6 -10 0
v -6 -9 0
v -5 -9 0
v -6 -10 0
v -7 -10 0
v -7 -9 0
v -6 -9 0
v -7 -10 0
v -8 -10 0
v -8 -9 0
v -7 -9 0
v -8 -10 0
v -9 -10 0
v -9 -9 0
v -8 -9 0
v -9 -10 0
v -10 -10 0
v -10 -9 0
v -9 -9 0

# Texture cooridinates (Count = 18)
vt 0 0.5652174
vt 0.03333334 0.5652174
vt 0.03333334 0.6086956
vt 0 0.6086956
vt 0.06666667 0.5652174
vt 0.06666667 0.6086956
vt 0.1 0.5652174
vt 0.1 0.6086956
vt 0.1333333 0.5652174
vt 0.1333333 0.6086956
vt 0 0.4782609
vt 0.03333334 0.4782609
vt 0.03333334 0.5217391
vt 0 0.5217391
vt 0.06666667 0.4782609
vt 0.06666667 0.5217391
vt 0 0.4347826
vt 0.03333334 0.4347826

# Normal
vn 0 0 -1

# Mesh description
g LevelEnd_lvl2_mesh_0002

# Faces
f 1/1/1 2/2/1 3/3/1 4/4/1
f 5/2/1 6/5/1 7/6/1 8/3/1
f 9/5/1 10/7/1 11/8/1 12/6/1
f 13/7/1 14/9/1 15/10/1 16/8/1
f 17/2/1 18/5/1 19/6/1 20/3/1
f 21/5/1 22/7/1 23/8/1 24/6/1
f 25/7/1 26/9/1 27/10/1 28/8/1
f 29/2/1 30/5/1 31/6/1 32/3/1
f 33/7/1 34/9/1 35/10/1 36/8/1
f 37/7/1 38/9/1 39/10/1 40/8/1
f 41/11/1 42/12/1 43/13/1 44/14/1
f 45/11/1 46/12/1 47/13/1 48/14/1
f 49/12/1 50/15/1 51/16/1 52/13/1
f 53/14/1 54/13/1 55/2/1 56/1/1
f 57/11/1 58/12/1 59/13/1 60/14/1
f 61/11/1 62/12/1 63/13/1 64/14/1
f 65/1/1 66/2/1 67/3/1 68/4/1
f 69/2/1 70/5/1 71/6/1 72/3/1
f 73/5/1 74/7/1 75/8/1 76/6/1
f 77/7/1 78/9/1 79/10/1 80/8/1
f 81/2/1 82/5/1 83/6/1 84/3/1
f 85/7/1 86/9/1 87/10/1 88/8/1
f 89/2/1 90/5/1 91/6/1 92/3/1
f 93/5/1 94/7/1 95/8/1 96/6/1
f 97/7/1 98/9/1 99/10/1 100/8/1
f 101/17/1 102/18/1 103/12/1 104/11/1

