# Tiled2Unity generated file. Do not modify by hand.
# Wavefront file for 'mapa3_mesh_0004.obj'

# Vertices (Count = 32)
v -7 -1 0
v -8 -1 0
v -8 0 0
v -7 0 0
v -8 -1 0
v -9 -1 0
v -9 0 0
v -8 0 0
v -7 -2 0
v -8 -2 0
v -8 -1 0
v -7 -1 0
v -8 -2 0
v -9 -2 0
v -9 -1 0
v -8 -1 0
v -1 -8 0
v -2 -8 0
v -2 -7 0
v -1 -7 0
v -2 -8 0
v -3 -8 0
v -3 -7 0
v -2 -7 0
v -1 -9 0
v -2 -9 0
v -2 -8 0
v -1 -8 0
v -2 -9 0
v -3 -9 0
v -3 -8 0
v -2 -8 0

# Texture cooridinates (Count = 18)
vt 0.8333333 0.2173913
vt 0.8666667 0.2173913
vt 0.8666667 0.2608696
vt 0.8333333 0.2608696
vt 0.9 0.2173913
vt 0.9 0.2608696
vt 0.8333333 0.1739131
vt 0.8666667 0.1739131
vt 0.9 0.1739131
vt 0.9 0.0869565
vt 0.9333333 0.0869565
vt 0.9333333 0.1304348
vt 0.9 0.1304348
vt 0.9666666 0.0869565
vt 0.9666666 0.1304348
vt 0.9 0.04347825
vt 0.9333333 0.04347825
vt 0.9666666 0.04347825

# Normal
vn 0 0 -1

# Mesh description
g mapa3_mesh_0004

# Faces
f 1/1/1 2/2/1 3/3/1 4/4/1
f 5/2/1 6/5/1 7/6/1 8/3/1
f 9/7/1 10/8/1 11/2/1 12/1/1
f 13/8/1 14/9/1 15/5/1 16/2/1
f 17/10/1 18/11/1 19/12/1 20/13/1
f 21/11/1 22/14/1 23/15/1 24/12/1
f 25/16/1 26/17/1 27/11/1 28/10/1
f 29/17/1 30/18/1 31/14/1 32/11/1

