# Tiled2Unity generated file. Do not modify by hand.
# Wavefront file for 'Inicio_mesh_0003.obj'

# Vertices (Count = 48)
v -2 -2 0
v -3 -2 0
v -3 -1 0
v -2 -1 0
v -8 -2 0
v -9 -2 0
v -9 -1 0
v -8 -1 0
v -4 -4 0
v -5 -4 0
v -5 -3 0
v -4 -3 0
v -5 -4 0
v -6 -4 0
v -6 -3 0
v -5 -3 0
v -6 -4 0
v -7 -4 0
v -7 -3 0
v -6 -3 0
v -2 -5 0
v -3 -5 0
v -3 -4 0
v -2 -4 0
v -4 -5 0
v -5 -5 0
v -5 -4 0
v -4 -4 0
v -5 -5 0
v -6 -5 0
v -6 -4 0
v -5 -4 0
v -6 -5 0
v -7 -5 0
v -7 -4 0
v -6 -4 0
v -4 -6 0
v -5 -6 0
v -5 -5 0
v -4 -5 0
v -5 -6 0
v -6 -6 0
v -6 -5 0
v -5 -5 0
v -6 -6 0
v -7 -6 0
v -7 -5 0
v -6 -5 0

# Texture cooridinates (Count = 24)
vt 0.2982456 0.7419355
vt 0.3157895 0.7419355
vt 0.3157895 0.7741935
vt 0.2982456 0.7741935
vt 0.1754386 0.5483871
vt 0.1929825 0.5483871
vt 0.1929825 0.5806452
vt 0.1754386 0.5806452
vt 0.2105263 0.5483871
vt 0.2105263 0.5806452
vt 0.2280702 0.5483871
vt 0.2280702 0.5806452
vt 0.2631579 0.8387097
vt 0.2807018 0.8387097
vt 0.2807018 0.8709677
vt 0.2631579 0.8709677
vt 0.1754386 0.516129
vt 0.1929825 0.516129
vt 0.2105263 0.516129
vt 0.2280702 0.516129
vt 0.1754386 0.483871
vt 0.1929825 0.483871
vt 0.2105263 0.483871
vt 0.2280702 0.483871

# Normal
vn 0 0 -1

# Mesh description
g Inicio_mesh_0003

# Faces
f 1/1/1 2/2/1 3/3/1 4/4/1
f 5/1/1 6/2/1 7/3/1 8/4/1
f 9/5/1 10/6/1 11/7/1 12/8/1
f 13/6/1 14/9/1 15/10/1 16/7/1
f 17/9/1 18/11/1 19/12/1 20/10/1
f 21/13/1 22/14/1 23/15/1 24/16/1
f 25/17/1 26/18/1 27/6/1 28/5/1
f 29/18/1 30/19/1 31/9/1 32/6/1
f 33/19/1 34/20/1 35/11/1 36/9/1
f 37/21/1 38/22/1 39/18/1 40/17/1
f 41/22/1 42/23/1 43/19/1 44/18/1
f 45/23/1 46/24/1 47/20/1 48/19/1

