# Tiled2Unity generated file. Do not modify by hand.
# Wavefront file for 'Inicio_mesh_0003.obj'

# Vertices (Count = 20)
v -1 -8 0
v -2 -8 0
v -2 -7 0
v -1 -7 0
v -2 -8 0
v -3 -8 0
v -3 -7 0
v -2 -7 0
v -1 -9 0
v -2 -9 0
v -2 -8 0
v -1 -8 0
v -2 -9 0
v -3 -9 0
v -3 -8 0
v -2 -8 0
v -3 -9 0
v -4 -9 0
v -4 -8 0
v -3 -8 0

# Texture cooridinates (Count = 13)
vt 0.7666667 0.3043478
vt 0.8 0.3043478
vt 0.8 0.3478261
vt 0.7666667 0.3478261
vt 0.8333333 0.3043478
vt 0.8333333 0.3478261
vt 0.7666667 0.2608696
vt 0.8 0.2608696
vt 0.8333333 0.2608696
vt 0.9333333 0.1304348
vt 0.9666666 0.1304348
vt 0.9666666 0.1739131
vt 0.9333333 0.1739131

# Normal
vn 0 0 -1

# Mesh description
g Inicio_mesh_0003

# Faces
f 1/1/1 2/2/1 3/3/1 4/4/1
f 5/2/1 6/5/1 7/6/1 8/3/1
f 9/7/1 10/8/1 11/2/1 12/1/1
f 13/8/1 14/9/1 15/5/1 16/2/1
f 17/10/1 18/11/1 19/12/1 20/13/1

