# Tiled2Unity generated file. Do not modify by hand.
# Wavefront file for 'mapa7_mesh_0004.obj'

# Vertices (Count = 44)
v -2 -1 0
v -3 -1 0
v -3 0 0
v -2 0 0
v -7 -1 0
v -8 -1 0
v -8 0 0
v -7 0 0
v -2 -2 0
v -3 -2 0
v -3 -1 0
v -2 -1 0
v -7 -2 0
v -8 -2 0
v -8 -1 0
v -7 -1 0
v -1 -7 0
v -2 -7 0
v -2 -6 0
v -1 -6 0
v -2 -7 0
v -3 -7 0
v -3 -6 0
v -2 -6 0
v -1 -8 0
v -2 -8 0
v -2 -7 0
v -1 -7 0
v -2 -8 0
v -3 -8 0
v -3 -7 0
v -2 -7 0
v -1 -9 0
v -2 -9 0
v -2 -8 0
v -1 -8 0
v -2 -9 0
v -3 -9 0
v -3 -8 0
v -2 -8 0
v -3 -9 0
v -4 -9 0
v -4 -8 0
v -3 -8 0

# Texture cooridinates (Count = 22)
vt 0.9 0.4347826
vt 0.9333333 0.4347826
vt 0.9333333 0.4782609
vt 0.9 0.4782609
vt 0.9 0.3913044
vt 0.9333333 0.3913044
vt 0.5666667 0.3478261
vt 0.6 0.3478261
vt 0.6 0.3913044
vt 0.5666667 0.3913044
vt 0.6333333 0.3478261
vt 0.6333333 0.3913044
vt 0.5666667 0.3043478
vt 0.6 0.3043478
vt 0.6333333 0.3043478
vt 0.5666667 0.2608696
vt 0.6 0.2608696
vt 0.6333333 0.2608696
vt 0.5666667 0.1739131
vt 0.6 0.1739131
vt 0.6 0.2173913
vt 0.5666667 0.2173913

# Normal
vn 0 0 -1

# Mesh description
g mapa7_mesh_0004

# Faces
f 1/1/1 2/2/1 3/3/1 4/4/1
f 5/1/1 6/2/1 7/3/1 8/4/1
f 9/5/1 10/6/1 11/2/1 12/1/1
f 13/5/1 14/6/1 15/2/1 16/1/1
f 17/7/1 18/8/1 19/9/1 20/10/1
f 21/8/1 22/11/1 23/12/1 24/9/1
f 25/13/1 26/14/1 27/8/1 28/7/1
f 29/14/1 30/15/1 31/11/1 32/8/1
f 33/16/1 34/17/1 35/14/1 36/13/1
f 37/17/1 38/18/1 39/15/1 40/14/1
f 41/19/1 42/20/1 43/21/1 44/22/1

