# Tiled2Unity generated file. Do not modify by hand.
# Wavefront file for 'mapa6_mesh_0002.obj'

# Vertices (Count = 244)
v -4 -1 0
v -5 -1 0
v -5 0 0
v -4 0 0
v -5 -1 0
v -6 -1 0
v -6 0 0
v -5 0 0
v 0 -2 0
v -1 -2 0
v -1 -1 0
v 0 -1 0
v -1 -2 0
v -2 -2 0
v -2 -1 0
v -1 -1 0
v -4 -2 0
v -5 -2 0
v -5 -1 0
v -4 -1 0
v -5 -2 0
v -6 -2 0
v -6 -1 0
v -5 -1 0
v 0 -3 0
v -1 -3 0
v -1 -2 0
v 0 -2 0
v -1 -3 0
v -2 -3 0
v -2 -2 0
v -1 -2 0
v -2 -3 0
v -3 -3 0
v -3 -2 0
v -2 -2 0
v -3 -3 0
v -4 -3 0
v -4 -2 0
v -3 -2 0
v -4 -3 0
v -5 -3 0
v -5 -2 0
v -4 -2 0
v -5 -3 0
v -6 -3 0
v -6 -2 0
v -5 -2 0
v -6 -3 0
v -7 -3 0
v -7 -2 0
v -6 -2 0
v -7 -3 0
v -8 -3 0
v -8 -2 0
v -7 -2 0
v -8 -3 0
v -9 -3 0
v -9 -2 0
v -8 -2 0
v -2 -4 0
v -3 -4 0
v -3 -3 0
v -2 -3 0
v -3 -4 0
v -4 -4 0
v -4 -3 0
v -3 -3 0
v -4 -4 0
v -5 -4 0
v -5 -3 0
v -4 -3 0
v -5 -4 0
v -6 -4 0
v -6 -3 0
v -5 -3 0
v -6 -4 0
v -7 -4 0
v -7 -3 0
v -6 -3 0
v -7 -4 0
v -8 -4 0
v -8 -3 0
v -7 -3 0
v -8 -4 0
v -9 -4 0
v -9 -3 0
v -8 -3 0
v -2 -5 0
v -3 -5 0
v -3 -4 0
v -2 -4 0
v -3 -5 0
v -4 -5 0
v -4 -4 0
v -3 -4 0
v -4 -5 0
v -5 -5 0
v -5 -4 0
v -4 -4 0
v -5 -5 0
v -6 -5 0
v -6 -4 0
v -5 -4 0
v -6 -5 0
v -7 -5 0
v -7 -4 0
v -6 -4 0
v -7 -5 0
v -8 -5 0
v -8 -4 0
v -7 -4 0
v -8 -5 0
v -9 -5 0
v -9 -4 0
v -8 -4 0
v -1 -6 0
v -2 -6 0
v -2 -5 0
v -1 -5 0
v -2 -6 0
v -3 -6 0
v -3 -5 0
v -2 -5 0
v -3 -6 0
v -4 -6 0
v -4 -5 0
v -3 -5 0
v -4 -6 0
v -5 -6 0
v -5 -5 0
v -4 -5 0
v -5 -6 0
v -6 -6 0
v -6 -5 0
v -5 -5 0
v -6 -6 0
v -7 -6 0
v -7 -5 0
v -6 -5 0
v -7 -6 0
v -8 -6 0
v -8 -5 0
v -7 -5 0
v -8 -6 0
v -9 -6 0
v -9 -5 0
v -8 -5 0
v -1 -7 0
v -2 -7 0
v -2 -6 0
v -1 -6 0
v -2 -7 0
v -3 -7 0
v -3 -6 0
v -2 -6 0
v -3 -7 0
v -4 -7 0
v -4 -6 0
v -3 -6 0
v -4 -7 0
v -5 -7 0
v -5 -6 0
v -4 -6 0
v -5 -7 0
v -6 -7 0
v -6 -6 0
v -5 -6 0
v -6 -7 0
v -7 -7 0
v -7 -6 0
v -6 -6 0
v -7 -7 0
v -8 -7 0
v -8 -6 0
v -7 -6 0
v -8 -7 0
v -9 -7 0
v -9 -6 0
v -8 -6 0
v -1 -8 0
v -2 -8 0
v -2 -7 0
v -1 -7 0
v -2 -8 0
v -3 -8 0
v -3 -7 0
v -2 -7 0
v -3 -8 0
v -4 -8 0
v -4 -7 0
v -3 -7 0
v -4 -8 0
v -5 -8 0
v -5 -7 0
v -4 -7 0
v -5 -8 0
v -6 -8 0
v -6 -7 0
v -5 -7 0
v -6 -8 0
v -7 -8 0
v -7 -7 0
v -6 -7 0
v -7 -8 0
v -8 -8 0
v -8 -7 0
v -7 -7 0
v -8 -8 0
v -9 -8 0
v -9 -7 0
v -8 -7 0
v -1 -9 0
v -2 -9 0
v -2 -8 0
v -1 -8 0
v -2 -9 0
v -3 -9 0
v -3 -8 0
v -2 -8 0
v -3 -9 0
v -4 -9 0
v -4 -8 0
v -3 -8 0
v -4 -9 0
v -5 -9 0
v -5 -8 0
v -4 -8 0
v -5 -9 0
v -6 -9 0
v -6 -8 0
v -5 -8 0
v -6 -9 0
v -7 -9 0
v -7 -8 0
v -6 -8 0
v -7 -9 0
v -8 -9 0
v -8 -8 0
v -7 -8 0
v -8 -9 0
v -9 -9 0
v -9 -8 0
v -8 -8 0

# Texture cooridinates (Count = 39)
vt 0.1666667 0.9565217
vt 0.2 0.9565217
vt 0.2 1
vt 0.1666667 1
vt 0.2333333 0.9565217
vt 0.2666667 0.9565217
vt 0.2666667 1
vt 0.2333333 1
vt 0.5666667 0.5652174
vt 0.6 0.5652174
vt 0.6 0.6086956
vt 0.5666667 0.6086956
vt 0.1666667 0.9130435
vt 0.2 0.9130435
vt 0.2333333 0.9130435
vt 0.2666667 0.9130435
vt 0.3 0.9565217
vt 0.3 1
vt 0.3333333 0.9565217
vt 0.3333333 1
vt 0.3666667 0.9130435
vt 0.4 0.9130435
vt 0.4 0.9565217
vt 0.3666667 0.9565217
vt 0.3 0.8260869
vt 0.3333333 0.8260869
vt 0.3333333 0.8695652
vt 0.3 0.8695652
vt 0.2666667 0.8260869
vt 0.2666667 0.8695652
vt 0.3 0.9130435
vt 0.3333333 0.9130435
vt 0.2 0.8695652
vt 0.2333333 0.8695652
vt 0.1666667 0.8695652
vt 0.5666667 0.1739131
vt 0.6 0.1739131
vt 0.6 0.2173913
vt 0.5666667 0.2173913

# Normal
vn 0 0 -1

# Mesh description
g mapa6_mesh_0002

# Faces
f 1/1/1 2/2/1 3/3/1 4/4/1
f 5/5/1 6/6/1 7/7/1 8/8/1
f 9/9/1 10/10/1 11/11/1 12/12/1
f 13/9/1 14/10/1 15/11/1 16/12/1
f 17/13/1 18/14/1 19/2/1 20/1/1
f 21/15/1 22/16/1 23/6/1 24/5/1
f 25/9/1 26/10/1 27/11/1 28/12/1
f 29/9/1 30/10/1 31/11/1 32/12/1
f 33/9/1 34/10/1 35/11/1 36/12/1
f 37/1/1 38/2/1 39/3/1 40/4/1
f 41/6/1 42/17/1 43/18/1 44/7/1
f 45/17/1 46/19/1 47/20/1 48/18/1
f 49/2/1 50/5/1 51/8/1 52/3/1
f 53/5/1 54/6/1 55/7/1 56/8/1
f 57/21/1 58/22/1 59/23/1 60/24/1
f 61/1/1 62/2/1 63/3/1 64/4/1
f 65/6/1 66/17/1 67/18/1 68/7/1
f 69/14/1 70/15/1 71/5/1 72/2/1
f 73/14/1 74/15/1 75/5/1 76/2/1
f 77/14/1 78/15/1 79/5/1 80/2/1
f 81/15/1 82/16/1 83/6/1 84/5/1
f 85/21/1 86/22/1 87/23/1 88/24/1
f 89/13/1 90/14/1 91/2/1 92/1/1
f 93/14/1 94/15/1 95/5/1 96/2/1
f 97/14/1 98/15/1 99/5/1 100/2/1
f 101/14/1 102/15/1 103/5/1 104/2/1
f 105/14/1 106/15/1 107/5/1 108/2/1
f 109/17/1 110/19/1 111/20/1 112/18/1
f 113/2/1 114/5/1 115/8/1 116/3/1
f 117/1/1 118/2/1 119/3/1 120/4/1
f 121/6/1 122/17/1 123/18/1 124/7/1
f 125/14/1 126/15/1 127/5/1 128/2/1
f 129/14/1 130/15/1 131/5/1 132/2/1
f 133/14/1 134/15/1 135/5/1 136/2/1
f 137/25/1 138/26/1 139/27/1 140/28/1
f 141/14/1 142/15/1 143/5/1 144/2/1
f 145/14/1 146/15/1 147/5/1 148/2/1
f 149/13/1 150/14/1 151/2/1 152/1/1
f 153/14/1 154/15/1 155/5/1 156/2/1
f 157/14/1 158/15/1 159/5/1 160/2/1
f 161/29/1 162/25/1 163/28/1 164/30/1
f 165/14/1 166/15/1 167/5/1 168/2/1
f 169/14/1 170/15/1 171/5/1 172/2/1
f 173/31/1 174/32/1 175/19/1 176/17/1
f 177/33/1 178/34/1 179/15/1 180/14/1
f 181/35/1 182/33/1 183/14/1 184/13/1
f 185/16/1 186/31/1 187/17/1 188/6/1
f 189/14/1 190/15/1 191/5/1 192/2/1
f 193/14/1 194/15/1 195/5/1 196/2/1
f 197/14/1 198/15/1 199/5/1 200/2/1
f 201/14/1 202/15/1 203/5/1 204/2/1
f 205/15/1 206/16/1 207/6/1 208/5/1
f 209/9/1 210/10/1 211/11/1 212/12/1
f 213/36/1 214/37/1 215/38/1 216/39/1
f 217/13/1 218/14/1 219/2/1 220/1/1
f 221/14/1 222/15/1 223/5/1 224/2/1
f 225/31/1 226/32/1 227/19/1 228/17/1
f 229/33/1 230/34/1 231/15/1 232/14/1
f 233/33/1 234/34/1 235/15/1 236/14/1
f 237/34/1 238/30/1 239/16/1 240/15/1
f 241/9/1 242/10/1 243/11/1 244/12/1

