# Tiled2Unity generated file. Do not modify by hand.
# Wavefront file for 'Mazmorra_mesh_0002.obj'

# Vertices (Count = 732)
v 0 -1 0
v -1 -1 0
v -1 0 0
v 0 0 0
v -1 -1 0
v -2 -1 0
v -2 0 0
v -1 0 0
v -2 -1 0
v -3 -1 0
v -3 0 0
v -2 0 0
v -3 -1 0
v -4 -1 0
v -4 0 0
v -3 0 0
v -4 -1 0
v -5 -1 0
v -5 0 0
v -4 0 0
v -5 -1 0
v -6 -1 0
v -6 0 0
v -5 0 0
v -6 -1 0
v -7 -1 0
v -7 0 0
v -6 0 0
v -7 -1 0
v -8 -1 0
v -8 0 0
v -7 0 0
v -8 -1 0
v -9 -1 0
v -9 0 0
v -8 0 0
v -9 -1 0
v -10 -1 0
v -10 0 0
v -9 0 0
v -10 -1 0
v -11 -1 0
v -11 0 0
v -10 0 0
v -11 -1 0
v -12 -1 0
v -12 0 0
v -11 0 0
v -12 -1 0
v -13 -1 0
v -13 0 0
v -12 0 0
v -13 -1 0
v -14 -1 0
v -14 0 0
v -13 0 0
v -14 -1 0
v -15 -1 0
v -15 0 0
v -14 0 0
v -15 -1 0
v -16 -1 0
v -16 0 0
v -15 0 0
v -16 -1 0
v -17 -1 0
v -17 0 0
v -16 0 0
v -17 -1 0
v -18 -1 0
v -18 0 0
v -17 0 0
v -18 -1 0
v -19 -1 0
v -19 0 0
v -18 0 0
v -19 -1 0
v -20 -1 0
v -20 0 0
v -19 0 0
v -20 -1 0
v -21 -1 0
v -21 0 0
v -20 0 0
v -21 -1 0
v -22 -1 0
v -22 0 0
v -21 0 0
v -22 -1 0
v -23 -1 0
v -23 0 0
v -22 0 0
v -23 -1 0
v -24 -1 0
v -24 0 0
v -23 0 0
v -24 -1 0
v -25 -1 0
v -25 0 0
v -24 0 0
v -25 -1 0
v -26 -1 0
v -26 0 0
v -25 0 0
v -26 -1 0
v -27 -1 0
v -27 0 0
v -26 0 0
v -27 -1 0
v -28 -1 0
v -28 0 0
v -27 0 0
v -28 -1 0
v -29 -1 0
v -29 0 0
v -28 0 0
v -29 -1 0
v -30 -1 0
v -30 0 0
v -29 0 0
v 0 -2 0
v -1 -2 0
v -1 -1 0
v 0 -1 0
v -1 -2 0
v -2 -2 0
v -2 -1 0
v -1 -1 0
v -2 -2 0
v -3 -2 0
v -3 -1 0
v -2 -1 0
v -3 -2 0
v -4 -2 0
v -4 -1 0
v -3 -1 0
v -4 -2 0
v -5 -2 0
v -5 -1 0
v -4 -1 0
v -5 -2 0
v -6 -2 0
v -6 -1 0
v -5 -1 0
v -6 -2 0
v -7 -2 0
v -7 -1 0
v -6 -1 0
v -7 -2 0
v -8 -2 0
v -8 -1 0
v -7 -1 0
v -8 -2 0
v -9 -2 0
v -9 -1 0
v -8 -1 0
v -9 -2 0
v -10 -2 0
v -10 -1 0
v -9 -1 0
v -10 -2 0
v -11 -2 0
v -11 -1 0
v -10 -1 0
v -11 -2 0
v -12 -2 0
v -12 -1 0
v -11 -1 0
v -12 -2 0
v -13 -2 0
v -13 -1 0
v -12 -1 0
v -13 -2 0
v -14 -2 0
v -14 -1 0
v -13 -1 0
v -14 -2 0
v -15 -2 0
v -15 -1 0
v -14 -1 0
v -15 -2 0
v -16 -2 0
v -16 -1 0
v -15 -1 0
v -16 -2 0
v -17 -2 0
v -17 -1 0
v -16 -1 0
v -17 -2 0
v -18 -2 0
v -18 -1 0
v -17 -1 0
v -18 -2 0
v -19 -2 0
v -19 -1 0
v -18 -1 0
v -19 -2 0
v -20 -2 0
v -20 -1 0
v -19 -1 0
v -20 -2 0
v -21 -2 0
v -21 -1 0
v -20 -1 0
v -21 -2 0
v -22 -2 0
v -22 -1 0
v -21 -1 0
v -22 -2 0
v -23 -2 0
v -23 -1 0
v -22 -1 0
v -23 -2 0
v -24 -2 0
v -24 -1 0
v -23 -1 0
v -24 -2 0
v -25 -2 0
v -25 -1 0
v -24 -1 0
v -25 -2 0
v -26 -2 0
v -26 -1 0
v -25 -1 0
v -26 -2 0
v -27 -2 0
v -27 -1 0
v -26 -1 0
v -27 -2 0
v -28 -2 0
v -28 -1 0
v -27 -1 0
v -28 -2 0
v -29 -2 0
v -29 -1 0
v -28 -1 0
v -29 -2 0
v -30 -2 0
v -30 -1 0
v -29 -1 0
v 0 -3 0
v -1 -3 0
v -1 -2 0
v 0 -2 0
v -1 -3 0
v -2 -3 0
v -2 -2 0
v -1 -2 0
v -2 -3 0
v -3 -3 0
v -3 -2 0
v -2 -2 0
v -3 -3 0
v -4 -3 0
v -4 -2 0
v -3 -2 0
v -4 -3 0
v -5 -3 0
v -5 -2 0
v -4 -2 0
v -5 -3 0
v -6 -3 0
v -6 -2 0
v -5 -2 0
v -6 -3 0
v -7 -3 0
v -7 -2 0
v -6 -2 0
v -7 -3 0
v -8 -3 0
v -8 -2 0
v -7 -2 0
v -8 -3 0
v -9 -3 0
v -9 -2 0
v -8 -2 0
v -9 -3 0
v -10 -3 0
v -10 -2 0
v -9 -2 0
v -10 -3 0
v -11 -3 0
v -11 -2 0
v -10 -2 0
v -11 -3 0
v -12 -3 0
v -12 -2 0
v -11 -2 0
v -12 -3 0
v -13 -3 0
v -13 -2 0
v -12 -2 0
v -13 -3 0
v -14 -3 0
v -14 -2 0
v -13 -2 0
v -14 -3 0
v -15 -3 0
v -15 -2 0
v -14 -2 0
v -15 -3 0
v -16 -3 0
v -16 -2 0
v -15 -2 0
v -16 -3 0
v -17 -3 0
v -17 -2 0
v -16 -2 0
v -17 -3 0
v -18 -3 0
v -18 -2 0
v -17 -2 0
v -18 -3 0
v -19 -3 0
v -19 -2 0
v -18 -2 0
v -19 -3 0
v -20 -3 0
v -20 -2 0
v -19 -2 0
v -20 -3 0
v -21 -3 0
v -21 -2 0
v -20 -2 0
v -21 -3 0
v -22 -3 0
v -22 -2 0
v -21 -2 0
v -22 -3 0
v -23 -3 0
v -23 -2 0
v -22 -2 0
v -23 -3 0
v -24 -3 0
v -24 -2 0
v -23 -2 0
v -24 -3 0
v -25 -3 0
v -25 -2 0
v -24 -2 0
v -25 -3 0
v -26 -3 0
v -26 -2 0
v -25 -2 0
v -26 -3 0
v -27 -3 0
v -27 -2 0
v -26 -2 0
v -27 -3 0
v -28 -3 0
v -28 -2 0
v -27 -2 0
v -28 -3 0
v -29 -3 0
v -29 -2 0
v -28 -2 0
v -29 -3 0
v -30 -3 0
v -30 -2 0
v -29 -2 0
v -14 -11 0
v -15 -11 0
v -15 -10 0
v -14 -10 0
v -17 -11 0
v -18 -11 0
v -18 -10 0
v -17 -10 0
v -18 -11 0
v -19 -11 0
v -19 -10 0
v -18 -10 0
v 0 -18 0
v -1 -18 0
v -1 -17 0
v 0 -17 0
v -1 -18 0
v -2 -18 0
v -2 -17 0
v -1 -17 0
v -2 -18 0
v -3 -18 0
v -3 -17 0
v -2 -17 0
v -3 -18 0
v -4 -18 0
v -4 -17 0
v -3 -17 0
v -4 -18 0
v -5 -18 0
v -5 -17 0
v -4 -17 0
v -5 -18 0
v -6 -18 0
v -6 -17 0
v -5 -17 0
v -6 -18 0
v -7 -18 0
v -7 -17 0
v -6 -17 0
v -7 -18 0
v -8 -18 0
v -8 -17 0
v -7 -17 0
v -8 -18 0
v -9 -18 0
v -9 -17 0
v -8 -17 0
v -9 -18 0
v -10 -18 0
v -10 -17 0
v -9 -17 0
v -10 -18 0
v -11 -18 0
v -11 -17 0
v -10 -17 0
v -11 -18 0
v -12 -18 0
v -12 -17 0
v -11 -17 0
v -12 -18 0
v -13 -18 0
v -13 -17 0
v -12 -17 0
v -13 -18 0
v -14 -18 0
v -14 -17 0
v -13 -17 0
v -14 -18 0
v -15 -18 0
v -15 -17 0
v -14 -17 0
v -15 -18 0
v -16 -18 0
v -16 -17 0
v -15 -17 0
v -16 -18 0
v -17 -18 0
v -17 -17 0
v -16 -17 0
v -17 -18 0
v -18 -18 0
v -18 -17 0
v -17 -17 0
v -18 -18 0
v -19 -18 0
v -19 -17 0
v -18 -17 0
v -19 -18 0
v -20 -18 0
v -20 -17 0
v -19 -17 0
v -20 -18 0
v -21 -18 0
v -21 -17 0
v -20 -17 0
v -21 -18 0
v -22 -18 0
v -22 -17 0
v -21 -17 0
v -22 -18 0
v -23 -18 0
v -23 -17 0
v -22 -17 0
v -23 -18 0
v -24 -18 0
v -24 -17 0
v -23 -17 0
v -24 -18 0
v -25 -18 0
v -25 -17 0
v -24 -17 0
v -25 -18 0
v -26 -18 0
v -26 -17 0
v -25 -17 0
v -26 -18 0
v -27 -18 0
v -27 -17 0
v -26 -17 0
v -27 -18 0
v -28 -18 0
v -28 -17 0
v -27 -17 0
v -28 -18 0
v -29 -18 0
v -29 -17 0
v -28 -17 0
v -29 -18 0
v -30 -18 0
v -30 -17 0
v -29 -17 0
v 0 -19 0
v -1 -19 0
v -1 -18 0
v 0 -18 0
v -1 -19 0
v -2 -19 0
v -2 -18 0
v -1 -18 0
v -2 -19 0
v -3 -19 0
v -3 -18 0
v -2 -18 0
v -3 -19 0
v -4 -19 0
v -4 -18 0
v -3 -18 0
v -4 -19 0
v -5 -19 0
v -5 -18 0
v -4 -18 0
v -5 -19 0
v -6 -19 0
v -6 -18 0
v -5 -18 0
v -6 -19 0
v -7 -19 0
v -7 -18 0
v -6 -18 0
v -7 -19 0
v -8 -19 0
v -8 -18 0
v -7 -18 0
v -8 -19 0
v -9 -19 0
v -9 -18 0
v -8 -18 0
v -9 -19 0
v -10 -19 0
v -10 -18 0
v -9 -18 0
v -10 -19 0
v -11 -19 0
v -11 -18 0
v -10 -18 0
v -11 -19 0
v -12 -19 0
v -12 -18 0
v -11 -18 0
v -12 -19 0
v -13 -19 0
v -13 -18 0
v -12 -18 0
v -13 -19 0
v -14 -19 0
v -14 -18 0
v -13 -18 0
v -14 -19 0
v -15 -19 0
v -15 -18 0
v -14 -18 0
v -15 -19 0
v -16 -19 0
v -16 -18 0
v -15 -18 0
v -16 -19 0
v -17 -19 0
v -17 -18 0
v -16 -18 0
v -17 -19 0
v -18 -19 0
v -18 -18 0
v -17 -18 0
v -18 -19 0
v -19 -19 0
v -19 -18 0
v -18 -18 0
v -19 -19 0
v -20 -19 0
v -20 -18 0
v -19 -18 0
v -20 -19 0
v -21 -19 0
v -21 -18 0
v -20 -18 0
v -21 -19 0
v -22 -19 0
v -22 -18 0
v -21 -18 0
v -22 -19 0
v -23 -19 0
v -23 -18 0
v -22 -18 0
v -23 -19 0
v -24 -19 0
v -24 -18 0
v -23 -18 0
v -24 -19 0
v -25 -19 0
v -25 -18 0
v -24 -18 0
v -25 -19 0
v -26 -19 0
v -26 -18 0
v -25 -18 0
v -26 -19 0
v -27 -19 0
v -27 -18 0
v -26 -18 0
v -27 -19 0
v -28 -19 0
v -28 -18 0
v -27 -18 0
v -28 -19 0
v -29 -19 0
v -29 -18 0
v -28 -18 0
v -29 -19 0
v -30 -19 0
v -30 -18 0
v -29 -18 0
v 0 -20 0
v -1 -20 0
v -1 -19 0
v 0 -19 0
v -1 -20 0
v -2 -20 0
v -2 -19 0
v -1 -19 0
v -2 -20 0
v -3 -20 0
v -3 -19 0
v -2 -19 0
v -3 -20 0
v -4 -20 0
v -4 -19 0
v -3 -19 0
v -4 -20 0
v -5 -20 0
v -5 -19 0
v -4 -19 0
v -5 -20 0
v -6 -20 0
v -6 -19 0
v -5 -19 0
v -6 -20 0
v -7 -20 0
v -7 -19 0
v -6 -19 0
v -7 -20 0
v -8 -20 0
v -8 -19 0
v -7 -19 0
v -8 -20 0
v -9 -20 0
v -9 -19 0
v -8 -19 0
v -9 -20 0
v -10 -20 0
v -10 -19 0
v -9 -19 0
v -10 -20 0
v -11 -20 0
v -11 -19 0
v -10 -19 0
v -11 -20 0
v -12 -20 0
v -12 -19 0
v -11 -19 0
v -12 -20 0
v -13 -20 0
v -13 -19 0
v -12 -19 0
v -13 -20 0
v -14 -20 0
v -14 -19 0
v -13 -19 0
v -14 -20 0
v -15 -20 0
v -15 -19 0
v -14 -19 0
v -15 -20 0
v -16 -20 0
v -16 -19 0
v -15 -19 0
v -16 -20 0
v -17 -20 0
v -17 -19 0
v -16 -19 0
v -17 -20 0
v -18 -20 0
v -18 -19 0
v -17 -19 0
v -18 -20 0
v -19 -20 0
v -19 -19 0
v -18 -19 0
v -19 -20 0
v -20 -20 0
v -20 -19 0
v -19 -19 0
v -20 -20 0
v -21 -20 0
v -21 -19 0
v -20 -19 0
v -21 -20 0
v -22 -20 0
v -22 -19 0
v -21 -19 0
v -22 -20 0
v -23 -20 0
v -23 -19 0
v -22 -19 0
v -23 -20 0
v -24 -20 0
v -24 -19 0
v -23 -19 0
v -24 -20 0
v -25 -20 0
v -25 -19 0
v -24 -19 0
v -25 -20 0
v -26 -20 0
v -26 -19 0
v -25 -19 0
v -26 -20 0
v -27 -20 0
v -27 -19 0
v -26 -19 0
v -27 -20 0
v -28 -20 0
v -28 -19 0
v -27 -19 0
v -28 -20 0
v -29 -20 0
v -29 -19 0
v -28 -19 0
v -29 -20 0
v -30 -20 0
v -30 -19 0
v -29 -19 0

# Texture cooridinates (Count = 35)
vt 0.6140351 0.516129
vt 0.6315789 0.516129
vt 0.6315789 0.5483871
vt 0.6140351 0.5483871
vt 0.6491228 0.516129
vt 0.6491228 0.5483871
vt 0.7017544 0.516129
vt 0.7192982 0.516129
vt 0.7192982 0.5483871
vt 0.7017544 0.5483871
vt 0.7017544 0.3548387
vt 0.7192982 0.3548387
vt 0.7192982 0.3870968
vt 0.7017544 0.3870968
vt 0.6842105 0.483871
vt 0.7017544 0.483871
vt 0.6842105 0.516129
vt 0.5964912 0.483871
vt 0.6140351 0.483871
vt 0.5964912 0.516129
vt 0.6666667 0.3225806
vt 0.6842105 0.3225806
vt 0.6842105 0.3548387
vt 0.6666667 0.3548387
vt 0.1052632 0.967742
vt 0.122807 0.967742
vt 0.122807 1
vt 0.1052632 1
vt 0.6842105 0.5483871
vt 0.6666667 0.483871
vt 0.6666667 0.516129
vt 0.7192982 0.483871
vt 0.6491228 0.3225806
vt 0.6491228 0.3548387
vt 0.6491228 0.483871

# Normal
vn 0 0 -1

# Mesh description
g Mazmorra_mesh_0002

# Faces
f 1/1/1 2/2/1 3/3/1 4/4/1
f 5/2/1 6/5/1 7/6/1 8/3/1
f 9/2/1 10/5/1 11/6/1 12/3/1
f 13/2/1 14/5/1 15/6/1 16/3/1
f 17/2/1 18/5/1 19/6/1 20/3/1
f 21/2/1 22/5/1 23/6/1 24/3/1
f 25/2/1 26/5/1 27/6/1 28/3/1
f 29/2/1 30/5/1 31/6/1 32/3/1
f 33/2/1 34/5/1 35/6/1 36/3/1
f 37/2/1 38/5/1 39/6/1 40/3/1
f 41/2/1 42/5/1 43/6/1 44/3/1
f 45/2/1 46/5/1 47/6/1 48/3/1
f 49/2/1 50/5/1 51/6/1 52/3/1
f 53/2/1 54/5/1 55/6/1 56/3/1
f 57/2/1 58/5/1 59/6/1 60/3/1
f 61/2/1 62/5/1 63/6/1 64/3/1
f 65/2/1 66/5/1 67/6/1 68/3/1
f 69/2/1 70/5/1 71/6/1 72/3/1
f 73/2/1 74/5/1 75/6/1 76/3/1
f 77/2/1 78/5/1 79/6/1 80/3/1
f 81/2/1 82/5/1 83/6/1 84/3/1
f 85/2/1 86/5/1 87/6/1 88/3/1
f 89/2/1 90/5/1 91/6/1 92/3/1
f 93/2/1 94/5/1 95/6/1 96/3/1
f 97/2/1 98/5/1 99/6/1 100/3/1
f 101/2/1 102/5/1 103/6/1 104/3/1
f 105/2/1 106/5/1 107/6/1 108/3/1
f 109/2/1 110/5/1 111/6/1 112/3/1
f 113/2/1 114/5/1 115/6/1 116/3/1
f 117/7/1 118/8/1 119/9/1 120/10/1
f 121/11/1 122/12/1 123/13/1 124/14/1
f 125/15/1 126/16/1 127/7/1 128/17/1
f 129/15/1 130/16/1 131/7/1 132/17/1
f 133/15/1 134/16/1 135/7/1 136/17/1
f 137/15/1 138/16/1 139/7/1 140/17/1
f 141/15/1 142/16/1 143/7/1 144/17/1
f 145/15/1 146/16/1 147/7/1 148/17/1
f 149/15/1 150/16/1 151/7/1 152/17/1
f 153/15/1 154/16/1 155/7/1 156/17/1
f 157/15/1 158/16/1 159/7/1 160/17/1
f 161/15/1 162/16/1 163/7/1 164/17/1
f 165/15/1 166/16/1 167/7/1 168/17/1
f 169/15/1 170/16/1 171/7/1 172/17/1
f 173/15/1 174/16/1 175/7/1 176/17/1
f 177/15/1 178/16/1 179/7/1 180/17/1
f 181/15/1 182/16/1 183/7/1 184/17/1
f 185/11/1 186/12/1 187/13/1 188/14/1
f 189/15/1 190/16/1 191/7/1 192/17/1
f 193/15/1 194/16/1 195/7/1 196/17/1
f 197/15/1 198/16/1 199/7/1 200/17/1
f 201/15/1 202/16/1 203/7/1 204/17/1
f 205/15/1 206/16/1 207/7/1 208/17/1
f 209/11/1 210/12/1 211/13/1 212/14/1
f 213/15/1 214/16/1 215/7/1 216/17/1
f 217/15/1 218/16/1 219/7/1 220/17/1
f 221/15/1 222/16/1 223/7/1 224/17/1
f 225/15/1 226/16/1 227/7/1 228/17/1
f 229/15/1 230/16/1 231/7/1 232/17/1
f 233/15/1 234/16/1 235/7/1 236/17/1
f 237/15/1 238/16/1 239/7/1 240/17/1
f 241/18/1 242/19/1 243/1/1 244/20/1
f 245/18/1 246/19/1 247/1/1 248/20/1
f 249/18/1 250/19/1 251/1/1 252/20/1
f 253/18/1 254/19/1 255/1/1 256/20/1
f 257/18/1 258/19/1 259/1/1 260/20/1
f 261/21/1 262/22/1 263/23/1 264/24/1
f 265/18/1 266/19/1 267/1/1 268/20/1
f 269/21/1 270/22/1 271/23/1 272/24/1
f 273/18/1 274/19/1 275/1/1 276/20/1
f 277/18/1 278/19/1 279/1/1 280/20/1
f 281/18/1 282/19/1 283/1/1 284/20/1
f 285/18/1 286/19/1 287/1/1 288/20/1
f 289/18/1 290/19/1 291/1/1 292/20/1
f 293/18/1 294/19/1 295/1/1 296/20/1
f 297/18/1 298/19/1 299/1/1 300/20/1
f 301/18/1 302/19/1 303/1/1 304/20/1
f 305/18/1 306/19/1 307/1/1 308/20/1
f 309/18/1 310/19/1 311/1/1 312/20/1
f 313/21/1 314/22/1 315/23/1 316/24/1
f 317/18/1 318/19/1 319/1/1 320/20/1
f 321/21/1 322/22/1 323/23/1 324/24/1
f 325/18/1 326/19/1 327/1/1 328/20/1
f 329/18/1 330/19/1 331/1/1 332/20/1
f 333/18/1 334/19/1 335/1/1 336/20/1
f 337/18/1 338/19/1 339/1/1 340/20/1
f 341/18/1 342/19/1 343/1/1 344/20/1
f 345/18/1 346/19/1 347/1/1 348/20/1
f 349/18/1 350/19/1 351/1/1 352/20/1
f 353/18/1 354/19/1 355/1/1 356/20/1
f 357/21/1 358/22/1 359/23/1 360/24/1
f 361/25/1 362/26/1 363/27/1 364/28/1
f 365/25/1 366/26/1 367/27/1 368/28/1
f 369/25/1 370/26/1 371/27/1 372/28/1
f 373/1/1 374/2/1 375/3/1 376/4/1
f 377/17/1 378/7/1 379/10/1 380/29/1
f 381/17/1 382/7/1 383/10/1 384/29/1
f 385/17/1 386/7/1 387/10/1 388/29/1
f 389/17/1 390/7/1 391/10/1 392/29/1
f 393/17/1 394/7/1 395/10/1 396/29/1
f 397/17/1 398/7/1 399/10/1 400/29/1
f 401/17/1 402/7/1 403/10/1 404/29/1
f 405/17/1 406/7/1 407/10/1 408/29/1
f 409/17/1 410/7/1 411/10/1 412/29/1
f 413/17/1 414/7/1 415/10/1 416/29/1
f 417/17/1 418/7/1 419/10/1 420/29/1
f 421/17/1 422/7/1 423/10/1 424/29/1
f 425/17/1 426/7/1 427/10/1 428/29/1
f 429/17/1 430/7/1 431/10/1 432/29/1
f 433/17/1 434/7/1 435/10/1 436/29/1
f 437/17/1 438/7/1 439/10/1 440/29/1
f 441/17/1 442/7/1 443/10/1 444/29/1
f 445/17/1 446/7/1 447/10/1 448/29/1
f 449/17/1 450/7/1 451/10/1 452/29/1
f 453/17/1 454/7/1 455/10/1 456/29/1
f 457/17/1 458/7/1 459/10/1 460/29/1
f 461/17/1 462/7/1 463/10/1 464/29/1
f 465/17/1 466/7/1 467/10/1 468/29/1
f 469/17/1 470/7/1 471/10/1 472/29/1
f 473/17/1 474/7/1 475/10/1 476/29/1
f 477/17/1 478/7/1 479/10/1 480/29/1
f 481/17/1 482/7/1 483/10/1 484/29/1
f 485/17/1 486/7/1 487/10/1 488/29/1
f 489/7/1 490/8/1 491/9/1 492/10/1
f 493/30/1 494/15/1 495/17/1 496/31/1
f 497/15/1 498/16/1 499/7/1 500/17/1
f 501/11/1 502/12/1 503/13/1 504/14/1
f 505/15/1 506/16/1 507/7/1 508/17/1
f 509/15/1 510/16/1 511/7/1 512/17/1
f 513/11/1 514/12/1 515/13/1 516/14/1
f 517/15/1 518/16/1 519/7/1 520/17/1
f 521/15/1 522/16/1 523/7/1 524/17/1
f 525/15/1 526/16/1 527/7/1 528/17/1
f 529/15/1 530/16/1 531/7/1 532/17/1
f 533/15/1 534/16/1 535/7/1 536/17/1
f 537/15/1 538/16/1 539/7/1 540/17/1
f 541/15/1 542/16/1 543/7/1 544/17/1
f 545/15/1 546/16/1 547/7/1 548/17/1
f 549/15/1 550/16/1 551/7/1 552/17/1
f 553/15/1 554/16/1 555/7/1 556/17/1
f 557/15/1 558/16/1 559/7/1 560/17/1
f 561/15/1 562/16/1 563/7/1 564/17/1
f 565/15/1 566/16/1 567/7/1 568/17/1
f 569/15/1 570/16/1 571/7/1 572/17/1
f 573/15/1 574/16/1 575/7/1 576/17/1
f 577/15/1 578/16/1 579/7/1 580/17/1
f 581/11/1 582/12/1 583/13/1 584/14/1
f 585/15/1 586/16/1 587/7/1 588/17/1
f 589/15/1 590/16/1 591/7/1 592/17/1
f 593/15/1 594/16/1 595/7/1 596/17/1
f 597/11/1 598/12/1 599/13/1 600/14/1
f 601/11/1 602/12/1 603/13/1 604/14/1
f 605/15/1 606/16/1 607/7/1 608/17/1
f 609/16/1 610/32/1 611/8/1 612/7/1
f 613/33/1 614/21/1 615/24/1 616/34/1
f 617/18/1 618/19/1 619/1/1 620/20/1
f 621/18/1 622/19/1 623/1/1 624/20/1
f 625/21/1 626/22/1 627/23/1 628/24/1
f 629/18/1 630/19/1 631/1/1 632/20/1
f 633/18/1 634/19/1 635/1/1 636/20/1
f 637/18/1 638/19/1 639/1/1 640/20/1
f 641/18/1 642/19/1 643/1/1 644/20/1
f 645/21/1 646/22/1 647/23/1 648/24/1
f 649/18/1 650/19/1 651/1/1 652/20/1
f 653/18/1 654/19/1 655/1/1 656/20/1
f 657/21/1 658/22/1 659/23/1 660/24/1
f 661/18/1 662/19/1 663/1/1 664/20/1
f 665/18/1 666/19/1 667/1/1 668/20/1
f 669/18/1 670/19/1 671/1/1 672/20/1
f 673/21/1 674/22/1 675/23/1 676/24/1
f 677/18/1 678/19/1 679/1/1 680/20/1
f 681/18/1 682/19/1 683/1/1 684/20/1
f 685/18/1 686/19/1 687/1/1 688/20/1
f 689/21/1 690/22/1 691/23/1 692/24/1
f 693/18/1 694/19/1 695/1/1 696/20/1
f 697/18/1 698/19/1 699/1/1 700/20/1
f 701/18/1 702/19/1 703/1/1 704/20/1
f 705/21/1 706/22/1 707/23/1 708/24/1
f 709/18/1 710/19/1 711/1/1 712/20/1
f 713/18/1 714/19/1 715/1/1 716/20/1
f 717/18/1 718/19/1 719/1/1 720/20/1
f 721/18/1 722/19/1 723/1/1 724/20/1
f 725/18/1 726/19/1 727/1/1 728/20/1
f 729/35/1 730/30/1 731/31/1 732/5/1

