# Tiled2Unity generated file. Do not modify by hand.
# Wavefront file for 'Mazmorra_mesh_0003.obj'

# Vertices (Count = 36)
v -1 -2 0
v -2 -2 0
v -2 -1 0
v -1 -1 0
v -1 -3 0
v -2 -3 0
v -2 -2 0
v -1 -2 0
v -3 -7 0
v -4 -7 0
v -4 -6 0
v -3 -6 0
v -6 -7 0
v -7 -7 0
v -7 -6 0
v -6 -6 0
v -3 -8 0
v -4 -8 0
v -4 -7 0
v -3 -7 0
v -6 -8 0
v -7 -8 0
v -7 -7 0
v -6 -7 0
v -8 -8 0
v -9 -8 0
v -9 -7 0
v -8 -7 0
v -1 -9 0
v -2 -9 0
v -2 -8 0
v -1 -8 0
v -8 -9 0
v -9 -9 0
v -9 -8 0
v -8 -8 0

# Texture cooridinates (Count = 20)
vt 0.3666667 0.9130435
vt 0.4 0.9130435
vt 0.4 0.9565217
vt 0.3666667 0.9565217
vt 0.6 0.0869565
vt 0.6333333 0.0869565
vt 0.6333333 0.1304348
vt 0.6 0.1304348
vt 0.9 0.4347826
vt 0.9333333 0.4347826
vt 0.9333333 0.4782609
vt 0.9 0.4782609
vt 0.6 0.04347825
vt 0.6333333 0.04347825
vt 0.9 0.3913044
vt 0.9333333 0.3913044
vt 0.5666667 0.1739131
vt 0.6 0.1739131
vt 0.6 0.2173913
vt 0.5666667 0.2173913

# Normal
vn 0 0 -1

# Mesh description
g Mazmorra_mesh_0003

# Faces
f 1/1/1 2/2/1 3/3/1 4/4/1
f 5/1/1 6/2/1 7/3/1 8/4/1
f 9/5/1 10/6/1 11/7/1 12/8/1
f 13/9/1 14/10/1 15/11/1 16/12/1
f 17/13/1 18/14/1 19/6/1 20/5/1
f 21/15/1 22/16/1 23/10/1 24/9/1
f 25/1/1 26/2/1 27/3/1 28/4/1
f 29/17/1 30/18/1 31/19/1 32/20/1
f 33/1/1 34/2/1 35/3/1 36/4/1

