# Tiled2Unity generated file. Do not modify by hand.
# Wavefront file for 'Mazmorra_mesh_0004.obj'

# Vertices (Count = 84)
v -5 -2 0
v -6 -2 0
v -6 -1 0
v -5 -1 0
v -9 -2 0
v -10 -2 0
v -10 -1 0
v -9 -1 0
v -10 -2 0
v -11 -2 0
v -11 -1 0
v -10 -1 0
v -11 -2 0
v -12 -2 0
v -12 -1 0
v -11 -1 0
v -14 -2 0
v -15 -2 0
v -15 -1 0
v -14 -1 0
v -18 -2 0
v -19 -2 0
v -19 -1 0
v -18 -1 0
v -19 -2 0
v -20 -2 0
v -20 -1 0
v -19 -1 0
v -20 -2 0
v -21 -2 0
v -21 -1 0
v -20 -1 0
v -25 -2 0
v -26 -2 0
v -26 -1 0
v -25 -1 0
v 0 -5 0
v -1 -5 0
v -1 -4 0
v 0 -4 0
v -29 -5 0
v -30 -5 0
v -30 -4 0
v -29 -4 0
v 0 -6 0
v -1 -6 0
v -1 -5 0
v 0 -5 0
v -29 -6 0
v -30 -6 0
v -30 -5 0
v -29 -5 0
v 0 -7 0
v -1 -7 0
v -1 -6 0
v 0 -6 0
v -29 -7 0
v -30 -7 0
v -30 -6 0
v -29 -6 0
v 0 -12 0
v -1 -12 0
v -1 -11 0
v 0 -11 0
v -29 -12 0
v -30 -12 0
v -30 -11 0
v -29 -11 0
v 0 -13 0
v -1 -13 0
v -1 -12 0
v 0 -12 0
v -29 -13 0
v -30 -13 0
v -30 -12 0
v -29 -12 0
v 0 -14 0
v -1 -14 0
v -1 -13 0
v 0 -13 0
v -29 -14 0
v -30 -14 0
v -30 -13 0
v -29 -13 0

# Texture cooridinates (Count = 20)
vt 0.9122807 0.9354839
vt 0.9298246 0.9354839
vt 0.9298246 0.967742
vt 0.9122807 0.967742
vt 0.8947368 0.9032258
vt 0.9122807 0.9032258
vt 0.8947368 0.9354839
vt 0.9298246 0.9032258
vt 0.9473684 0.9032258
vt 0.9473684 0.9354839
vt 0.8947368 0.967742
vt 0.5964912 0.3225806
vt 0.6140351 0.3225806
vt 0.6140351 0.3548387
vt 0.5964912 0.3548387
vt 0.6140351 0.3870968
vt 0.5964912 0.3870968
vt 0.6315789 0.3548387
vt 0.6315789 0.3870968
vt 0.6315789 0.3225806

# Normal
vn 0 0 -1

# Mesh description
g Mazmorra_mesh_0004

# Faces
f 1/1/1 2/2/1 3/3/1 4/4/1
f 5/5/1 6/6/1 7/1/1 8/7/1
f 9/6/1 10/8/1 11/2/1 12/1/1
f 13/8/1 14/9/1 15/10/1 16/2/1
f 17/7/1 18/1/1 19/4/1 20/11/1
f 21/5/1 22/6/1 23/1/1 24/7/1
f 25/6/1 26/8/1 27/2/1 28/1/1
f 29/8/1 30/9/1 31/10/1 32/2/1
f 33/1/1 34/2/1 35/3/1 36/4/1
f 37/12/1 38/13/1 39/14/1 40/15/1
f 41/12/1 42/13/1 43/14/1 44/15/1
f 45/15/1 46/14/1 47/16/1 48/17/1
f 49/14/1 50/18/1 51/19/1 52/16/1
f 53/13/1 54/20/1 55/18/1 56/14/1
f 57/13/1 58/20/1 59/18/1 60/14/1
f 61/12/1 62/13/1 63/14/1 64/15/1
f 65/12/1 66/13/1 67/14/1 68/15/1
f 69/14/1 70/18/1 71/19/1 72/16/1
f 73/15/1 74/14/1 75/16/1 76/17/1
f 77/13/1 78/20/1 79/18/1 80/14/1
f 81/13/1 82/20/1 83/18/1 84/14/1

