# Tiled2Unity generated file. Do not modify by hand.
# Wavefront file for 'borde_mesh_0001.obj'

# Vertices (Count = 624)
v 0 -1.6 0
v -1.6 -1.6 0
v -1.6 0 0
v 0 0 0
v -1.6 -1.6 0
v -3.2 -1.6 0
v -3.2 0 0
v -1.6 0 0
v -3.2 -1.6 0
v -4.8 -1.6 0
v -4.8 0 0
v -3.2 0 0
v -4.8 -1.6 0
v -6.4 -1.6 0
v -6.4 0 0
v -4.8 0 0
v -6.4 -1.6 0
v -8 -1.6 0
v -8 0 0
v -6.4 0 0
v -8 -1.6 0
v -9.6 -1.6 0
v -9.6 0 0
v -8 0 0
v -9.6 -1.6 0
v -11.2 -1.6 0
v -11.2 0 0
v -9.6 0 0
v -11.2 -1.6 0
v -12.8 -1.6 0
v -12.8 0 0
v -11.2 0 0
v -12.8 -1.6 0
v -14.4 -1.6 0
v -14.4 0 0
v -12.8 0 0
v -14.4 -1.6 0
v -16 -1.6 0
v -16 0 0
v -14.4 0 0
v -16 -1.6 0
v -17.6 -1.6 0
v -17.6 0 0
v -16 0 0
v -17.6 -1.6 0
v -19.2 -1.6 0
v -19.2 0 0
v -17.6 0 0
v -19.2 -1.6 0
v -20.8 -1.6 0
v -20.8 0 0
v -19.2 0 0
v -20.8 -1.6 0
v -22.4 -1.6 0
v -22.4 0 0
v -20.8 0 0
v -22.4 -1.6 0
v -24 -1.6 0
v -24 0 0
v -22.4 0 0
v -24 -1.6 0
v -25.6 -1.6 0
v -25.6 0 0
v -24 0 0
v -25.6 -1.6 0
v -27.2 -1.6 0
v -27.2 0 0
v -25.6 0 0
v -27.2 -1.6 0
v -28.8 -1.6 0
v -28.8 0 0
v -27.2 0 0
v -28.8 -1.6 0
v -30.4 -1.6 0
v -30.4 0 0
v -28.8 0 0
v -30.4 -1.6 0
v -32 -1.6 0
v -32 0 0
v -30.4 0 0
v -32 -1.6 0
v -33.6 -1.6 0
v -33.6 0 0
v -32 0 0
v -33.6 -1.6 0
v -35.2 -1.6 0
v -35.2 0 0
v -33.6 0 0
v -35.2 -1.6 0
v -36.8 -1.6 0
v -36.8 0 0
v -35.2 0 0
v -36.8 -1.6 0
v -38.4 -1.6 0
v -38.4 0 0
v -36.8 0 0
v -38.4 -1.6 0
v -40 -1.6 0
v -40 0 0
v -38.4 0 0
v -40 -1.6 0
v -41.6 -1.6 0
v -41.6 0 0
v -40 0 0
v -41.6 -1.6 0
v -43.2 -1.6 0
v -43.2 0 0
v -41.6 0 0
v -43.2 -1.6 0
v -44.8 -1.6 0
v -44.8 0 0
v -43.2 0 0
v -44.8 -1.6 0
v -46.4 -1.6 0
v -46.4 0 0
v -44.8 0 0
v -46.4 -1.6 0
v -48 -1.6 0
v -48 0 0
v -46.4 0 0
v -48 -1.6 0
v -49.6 -1.6 0
v -49.6 0 0
v -48 0 0
v -49.6 -1.6 0
v -51.2 -1.6 0
v -51.2 0 0
v -49.6 0 0
v -51.2 -1.6 0
v -52.8 -1.6 0
v -52.8 0 0
v -51.2 0 0
v -52.8 -1.6 0
v -54.4 -1.6 0
v -54.4 0 0
v -52.8 0 0
v -54.4 -1.6 0
v -56 -1.6 0
v -56 0 0
v -54.4 0 0
v -56 -1.6 0
v -57.6 -1.6 0
v -57.6 0 0
v -56 0 0
v -57.6 -1.6 0
v -59.2 -1.6 0
v -59.2 0 0
v -57.6 0 0
v -59.2 -1.6 0
v -60.8 -1.6 0
v -60.8 0 0
v -59.2 0 0
v -60.8 -1.6 0
v -62.4 -1.6 0
v -62.4 0 0
v -60.8 0 0
v -62.4 -1.6 0
v -64 -1.6 0
v -64 0 0
v -62.4 0 0
v 0 -3.2 0
v -1.6 -3.2 0
v -1.6 -1.6 0
v 0 -1.6 0
v -62.4 -3.2 0
v -64 -3.2 0
v -64 -1.6 0
v -62.4 -1.6 0
v 0 -4.8 0
v -1.6 -4.8 0
v -1.6 -3.2 0
v 0 -3.2 0
v -62.4 -4.8 0
v -64 -4.8 0
v -64 -3.2 0
v -62.4 -3.2 0
v 0 -6.4 0
v -1.6 -6.4 0
v -1.6 -4.8 0
v 0 -4.8 0
v -62.4 -6.4 0
v -64 -6.4 0
v -64 -4.8 0
v -62.4 -4.8 0
v 0 -8 0
v -1.6 -8 0
v -1.6 -6.4 0
v 0 -6.4 0
v -62.4 -8 0
v -64 -8 0
v -64 -6.4 0
v -62.4 -6.4 0
v 0 -9.6 0
v -1.6 -9.6 0
v -1.6 -8 0
v 0 -8 0
v -62.4 -9.6 0
v -64 -9.6 0
v -64 -8 0
v -62.4 -8 0
v 0 -11.2 0
v -1.6 -11.2 0
v -1.6 -9.6 0
v 0 -9.6 0
v -62.4 -11.2 0
v -64 -11.2 0
v -64 -9.6 0
v -62.4 -9.6 0
v 0 -12.8 0
v -1.6 -12.8 0
v -1.6 -11.2 0
v 0 -11.2 0
v -62.4 -12.8 0
v -64 -12.8 0
v -64 -11.2 0
v -62.4 -11.2 0
v 0 -14.4 0
v -1.6 -14.4 0
v -1.6 -12.8 0
v 0 -12.8 0
v -62.4 -14.4 0
v -64 -14.4 0
v -64 -12.8 0
v -62.4 -12.8 0
v 0 -16 0
v -1.6 -16 0
v -1.6 -14.4 0
v 0 -14.4 0
v -62.4 -16 0
v -64 -16 0
v -64 -14.4 0
v -62.4 -14.4 0
v 0 -17.6 0
v -1.6 -17.6 0
v -1.6 -16 0
v 0 -16 0
v -62.4 -17.6 0
v -64 -17.6 0
v -64 -16 0
v -62.4 -16 0
v 0 -19.2 0
v -1.6 -19.2 0
v -1.6 -17.6 0
v 0 -17.6 0
v -62.4 -19.2 0
v -64 -19.2 0
v -64 -17.6 0
v -62.4 -17.6 0
v 0 -20.8 0
v -1.6 -20.8 0
v -1.6 -19.2 0
v 0 -19.2 0
v -62.4 -20.8 0
v -64 -20.8 0
v -64 -19.2 0
v -62.4 -19.2 0
v 0 -22.4 0
v -1.6 -22.4 0
v -1.6 -20.8 0
v 0 -20.8 0
v -62.4 -22.4 0
v -64 -22.4 0
v -64 -20.8 0
v -62.4 -20.8 0
v 0 -24 0
v -1.6 -24 0
v -1.6 -22.4 0
v 0 -22.4 0
v -62.4 -24 0
v -64 -24 0
v -64 -22.4 0
v -62.4 -22.4 0
v 0 -25.6 0
v -1.6 -25.6 0
v -1.6 -24 0
v 0 -24 0
v -62.4 -25.6 0
v -64 -25.6 0
v -64 -24 0
v -62.4 -24 0
v 0 -27.2 0
v -1.6 -27.2 0
v -1.6 -25.6 0
v 0 -25.6 0
v -62.4 -27.2 0
v -64 -27.2 0
v -64 -25.6 0
v -62.4 -25.6 0
v 0 -28.8 0
v -1.6 -28.8 0
v -1.6 -27.2 0
v 0 -27.2 0
v -62.4 -28.8 0
v -64 -28.8 0
v -64 -27.2 0
v -62.4 -27.2 0
v 0 -30.4 0
v -1.6 -30.4 0
v -1.6 -28.8 0
v 0 -28.8 0
v -62.4 -30.4 0
v -64 -30.4 0
v -64 -28.8 0
v -62.4 -28.8 0
v 0 -32 0
v -1.6 -32 0
v -1.6 -30.4 0
v 0 -30.4 0
v -62.4 -32 0
v -64 -32 0
v -64 -30.4 0
v -62.4 -30.4 0
v 0 -33.6 0
v -1.6 -33.6 0
v -1.6 -32 0
v 0 -32 0
v -62.4 -33.6 0
v -64 -33.6 0
v -64 -32 0
v -62.4 -32 0
v 0 -35.2 0
v -1.6 -35.2 0
v -1.6 -33.6 0
v 0 -33.6 0
v -62.4 -35.2 0
v -64 -35.2 0
v -64 -33.6 0
v -62.4 -33.6 0
v 0 -36.8 0
v -1.6 -36.8 0
v -1.6 -35.2 0
v 0 -35.2 0
v -62.4 -36.8 0
v -64 -36.8 0
v -64 -35.2 0
v -62.4 -35.2 0
v 0 -38.4 0
v -1.6 -38.4 0
v -1.6 -36.8 0
v 0 -36.8 0
v -62.4 -38.4 0
v -64 -38.4 0
v -64 -36.8 0
v -62.4 -36.8 0
v 0 -40 0
v -1.6 -40 0
v -1.6 -38.4 0
v 0 -38.4 0
v -62.4 -40 0
v -64 -40 0
v -64 -38.4 0
v -62.4 -38.4 0
v 0 -41.6 0
v -1.6 -41.6 0
v -1.6 -40 0
v 0 -40 0
v -62.4 -41.6 0
v -64 -41.6 0
v -64 -40 0
v -62.4 -40 0
v 0 -43.2 0
v -1.6 -43.2 0
v -1.6 -41.6 0
v 0 -41.6 0
v -62.4 -43.2 0
v -64 -43.2 0
v -64 -41.6 0
v -62.4 -41.6 0
v 0 -44.8 0
v -1.6 -44.8 0
v -1.6 -43.2 0
v 0 -43.2 0
v -62.4 -44.8 0
v -64 -44.8 0
v -64 -43.2 0
v -62.4 -43.2 0
v 0 -46.4 0
v -1.6 -46.4 0
v -1.6 -44.8 0
v 0 -44.8 0
v -62.4 -46.4 0
v -64 -46.4 0
v -64 -44.8 0
v -62.4 -44.8 0
v 0 -48 0
v -1.6 -48 0
v -1.6 -46.4 0
v 0 -46.4 0
v -62.4 -48 0
v -64 -48 0
v -64 -46.4 0
v -62.4 -46.4 0
v 0 -49.6 0
v -1.6 -49.6 0
v -1.6 -48 0
v 0 -48 0
v -62.4 -49.6 0
v -64 -49.6 0
v -64 -48 0
v -62.4 -48 0
v 0 -51.2 0
v -1.6 -51.2 0
v -1.6 -49.6 0
v 0 -49.6 0
v -62.4 -51.2 0
v -64 -51.2 0
v -64 -49.6 0
v -62.4 -49.6 0
v 0 -52.8 0
v -1.6 -52.8 0
v -1.6 -51.2 0
v 0 -51.2 0
v -62.4 -52.8 0
v -64 -52.8 0
v -64 -51.2 0
v -62.4 -51.2 0
v 0 -54.4 0
v -1.6 -54.4 0
v -1.6 -52.8 0
v 0 -52.8 0
v -62.4 -54.4 0
v -64 -54.4 0
v -64 -52.8 0
v -62.4 -52.8 0
v 0 -56 0
v -1.6 -56 0
v -1.6 -54.4 0
v 0 -54.4 0
v -62.4 -56 0
v -64 -56 0
v -64 -54.4 0
v -62.4 -54.4 0
v 0 -57.6 0
v -1.6 -57.6 0
v -1.6 -56 0
v 0 -56 0
v -62.4 -57.6 0
v -64 -57.6 0
v -64 -56 0
v -62.4 -56 0
v 0 -59.2 0
v -1.6 -59.2 0
v -1.6 -57.6 0
v 0 -57.6 0
v -62.4 -59.2 0
v -64 -59.2 0
v -64 -57.6 0
v -62.4 -57.6 0
v 0 -60.8 0
v -1.6 -60.8 0
v -1.6 -59.2 0
v 0 -59.2 0
v -62.4 -60.8 0
v -64 -60.8 0
v -64 -59.2 0
v -62.4 -59.2 0
v 0 -62.4 0
v -1.6 -62.4 0
v -1.6 -60.8 0
v 0 -60.8 0
v -62.4 -62.4 0
v -64 -62.4 0
v -64 -60.8 0
v -62.4 -60.8 0
v 0 -64 0
v -1.6 -64 0
v -1.6 -62.4 0
v 0 -62.4 0
v -1.6 -64 0
v -3.2 -64 0
v -3.2 -62.4 0
v -1.6 -62.4 0
v -3.2 -64 0
v -4.8 -64 0
v -4.8 -62.4 0
v -3.2 -62.4 0
v -4.8 -64 0
v -6.4 -64 0
v -6.4 -62.4 0
v -4.8 -62.4 0
v -6.4 -64 0
v -8 -64 0
v -8 -62.4 0
v -6.4 -62.4 0
v -8 -64 0
v -9.6 -64 0
v -9.6 -62.4 0
v -8 -62.4 0
v -9.6 -64 0
v -11.2 -64 0
v -11.2 -62.4 0
v -9.6 -62.4 0
v -11.2 -64 0
v -12.8 -64 0
v -12.8 -62.4 0
v -11.2 -62.4 0
v -12.8 -64 0
v -14.4 -64 0
v -14.4 -62.4 0
v -12.8 -62.4 0
v -14.4 -64 0
v -16 -64 0
v -16 -62.4 0
v -14.4 -62.4 0
v -16 -64 0
v -17.6 -64 0
v -17.6 -62.4 0
v -16 -62.4 0
v -17.6 -64 0
v -19.2 -64 0
v -19.2 -62.4 0
v -17.6 -62.4 0
v -19.2 -64 0
v -20.8 -64 0
v -20.8 -62.4 0
v -19.2 -62.4 0
v -20.8 -64 0
v -22.4 -64 0
v -22.4 -62.4 0
v -20.8 -62.4 0
v -22.4 -64 0
v -24 -64 0
v -24 -62.4 0
v -22.4 -62.4 0
v -24 -64 0
v -25.6 -64 0
v -25.6 -62.4 0
v -24 -62.4 0
v -25.6 -64 0
v -27.2 -64 0
v -27.2 -62.4 0
v -25.6 -62.4 0
v -27.2 -64 0
v -28.8 -64 0
v -28.8 -62.4 0
v -27.2 -62.4 0
v -28.8 -64 0
v -30.4 -64 0
v -30.4 -62.4 0
v -28.8 -62.4 0
v -30.4 -64 0
v -32 -64 0
v -32 -62.4 0
v -30.4 -62.4 0
v -32 -64 0
v -33.6 -64 0
v -33.6 -62.4 0
v -32 -62.4 0
v -33.6 -64 0
v -35.2 -64 0
v -35.2 -62.4 0
v -33.6 -62.4 0
v -35.2 -64 0
v -36.8 -64 0
v -36.8 -62.4 0
v -35.2 -62.4 0
v -36.8 -64 0
v -38.4 -64 0
v -38.4 -62.4 0
v -36.8 -62.4 0
v -38.4 -64 0
v -40 -64 0
v -40 -62.4 0
v -38.4 -62.4 0
v -40 -64 0
v -41.6 -64 0
v -41.6 -62.4 0
v -40 -62.4 0
v -41.6 -64 0
v -43.2 -64 0
v -43.2 -62.4 0
v -41.6 -62.4 0
v -43.2 -64 0
v -44.8 -64 0
v -44.8 -62.4 0
v -43.2 -62.4 0
v -44.8 -64 0
v -46.4 -64 0
v -46.4 -62.4 0
v -44.8 -62.4 0
v -46.4 -64 0
v -48 -64 0
v -48 -62.4 0
v -46.4 -62.4 0
v -48 -64 0
v -49.6 -64 0
v -49.6 -62.4 0
v -48 -62.4 0
v -49.6 -64 0
v -51.2 -64 0
v -51.2 -62.4 0
v -49.6 -62.4 0
v -51.2 -64 0
v -52.8 -64 0
v -52.8 -62.4 0
v -51.2 -62.4 0
v -52.8 -64 0
v -54.4 -64 0
v -54.4 -62.4 0
v -52.8 -62.4 0
v -54.4 -64 0
v -56 -64 0
v -56 -62.4 0
v -54.4 -62.4 0
v -56 -64 0
v -57.6 -64 0
v -57.6 -62.4 0
v -56 -62.4 0
v -57.6 -64 0
v -59.2 -64 0
v -59.2 -62.4 0
v -57.6 -62.4 0
v -59.2 -64 0
v -60.8 -64 0
v -60.8 -62.4 0
v -59.2 -62.4 0
v -60.8 -64 0
v -62.4 -64 0
v -62.4 -62.4 0
v -60.8 -62.4 0
v -62.4 -64 0
v -64 -64 0
v -64 -62.4 0
v -62.4 -62.4 0

# Texture cooridinates (Count = 16)
vt 0.55 0.9722222
vt 0.575 0.9722222
vt 0.575 1
vt 0.55 1
vt 0.6 0.9722222
vt 0.6 1
vt 0.625 0.9722222
vt 0.625 1
vt 0.55 0.9444444
vt 0.575 0.9444444
vt 0.6 0.9444444
vt 0.625 0.9444444
vt 0.55 0.9166667
vt 0.575 0.9166667
vt 0.6 0.9166667
vt 0.625 0.9166667

# Normal
vn 0 0 -1

# Mesh description
g borde_mesh_0001

# Faces
f 1/1/1 2/2/1 3/3/1 4/4/1
f 5/2/1 6/5/1 7/6/1 8/3/1
f 9/2/1 10/5/1 11/6/1 12/3/1
f 13/2/1 14/5/1 15/6/1 16/3/1
f 17/2/1 18/5/1 19/6/1 20/3/1
f 21/2/1 22/5/1 23/6/1 24/3/1
f 25/2/1 26/5/1 27/6/1 28/3/1
f 29/2/1 30/5/1 31/6/1 32/3/1
f 33/2/1 34/5/1 35/6/1 36/3/1
f 37/2/1 38/5/1 39/6/1 40/3/1
f 41/2/1 42/5/1 43/6/1 44/3/1
f 45/2/1 46/5/1 47/6/1 48/3/1
f 49/2/1 50/5/1 51/6/1 52/3/1
f 53/2/1 54/5/1 55/6/1 56/3/1
f 57/2/1 58/5/1 59/6/1 60/3/1
f 61/2/1 62/5/1 63/6/1 64/3/1
f 65/2/1 66/5/1 67/6/1 68/3/1
f 69/2/1 70/5/1 71/6/1 72/3/1
f 73/2/1 74/5/1 75/6/1 76/3/1
f 77/2/1 78/5/1 79/6/1 80/3/1
f 81/2/1 82/5/1 83/6/1 84/3/1
f 85/2/1 86/5/1 87/6/1 88/3/1
f 89/2/1 90/5/1 91/6/1 92/3/1
f 93/2/1 94/5/1 95/6/1 96/3/1
f 97/2/1 98/5/1 99/6/1 100/3/1
f 101/2/1 102/5/1 103/6/1 104/3/1
f 105/2/1 106/5/1 107/6/1 108/3/1
f 109/2/1 110/5/1 111/6/1 112/3/1
f 113/2/1 114/5/1 115/6/1 116/3/1
f 117/2/1 118/5/1 119/6/1 120/3/1
f 121/2/1 122/5/1 123/6/1 124/3/1
f 125/2/1 126/5/1 127/6/1 128/3/1
f 129/2/1 130/5/1 131/6/1 132/3/1
f 133/2/1 134/5/1 135/6/1 136/3/1
f 137/2/1 138/5/1 139/6/1 140/3/1
f 141/2/1 142/5/1 143/6/1 144/3/1
f 145/2/1 146/5/1 147/6/1 148/3/1
f 149/2/1 150/5/1 151/6/1 152/3/1
f 153/2/1 154/5/1 155/6/1 156/3/1
f 157/5/1 158/7/1 159/8/1 160/6/1
f 161/9/1 162/10/1 163/2/1 164/1/1
f 165/11/1 166/12/1 167/7/1 168/5/1
f 169/9/1 170/10/1 171/2/1 172/1/1
f 173/11/1 174/12/1 175/7/1 176/5/1
f 177/9/1 178/10/1 179/2/1 180/1/1
f 181/11/1 182/12/1 183/7/1 184/5/1
f 185/9/1 186/10/1 187/2/1 188/1/1
f 189/11/1 190/12/1 191/7/1 192/5/1
f 193/9/1 194/10/1 195/2/1 196/1/1
f 197/11/1 198/12/1 199/7/1 200/5/1
f 201/9/1 202/10/1 203/2/1 204/1/1
f 205/11/1 206/12/1 207/7/1 208/5/1
f 209/9/1 210/10/1 211/2/1 212/1/1
f 213/11/1 214/12/1 215/7/1 216/5/1
f 217/9/1 218/10/1 219/2/1 220/1/1
f 221/11/1 222/12/1 223/7/1 224/5/1
f 225/9/1 226/10/1 227/2/1 228/1/1
f 229/11/1 230/12/1 231/7/1 232/5/1
f 233/9/1 234/10/1 235/2/1 236/1/1
f 237/11/1 238/12/1 239/7/1 240/5/1
f 241/9/1 242/10/1 243/2/1 244/1/1
f 245/11/1 246/12/1 247/7/1 248/5/1
f 249/9/1 250/10/1 251/2/1 252/1/1
f 253/11/1 254/12/1 255/7/1 256/5/1
f 257/9/1 258/10/1 259/2/1 260/1/1
f 261/11/1 262/12/1 263/7/1 264/5/1
f 265/9/1 266/10/1 267/2/1 268/1/1
f 269/11/1 270/12/1 271/7/1 272/5/1
f 273/9/1 274/10/1 275/2/1 276/1/1
f 277/11/1 278/12/1 279/7/1 280/5/1
f 281/9/1 282/10/1 283/2/1 284/1/1
f 285/11/1 286/12/1 287/7/1 288/5/1
f 289/9/1 290/10/1 291/2/1 292/1/1
f 293/11/1 294/12/1 295/7/1 296/5/1
f 297/9/1 298/10/1 299/2/1 300/1/1
f 301/11/1 302/12/1 303/7/1 304/5/1
f 305/9/1 306/10/1 307/2/1 308/1/1
f 309/11/1 310/12/1 311/7/1 312/5/1
f 313/9/1 314/10/1 315/2/1 316/1/1
f 317/11/1 318/12/1 319/7/1 320/5/1
f 321/9/1 322/10/1 323/2/1 324/1/1
f 325/11/1 326/12/1 327/7/1 328/5/1
f 329/9/1 330/10/1 331/2/1 332/1/1
f 333/11/1 334/12/1 335/7/1 336/5/1
f 337/9/1 338/10/1 339/2/1 340/1/1
f 341/11/1 342/12/1 343/7/1 344/5/1
f 345/9/1 346/10/1 347/2/1 348/1/1
f 349/11/1 350/12/1 351/7/1 352/5/1
f 353/9/1 354/10/1 355/2/1 356/1/1
f 357/11/1 358/12/1 359/7/1 360/5/1
f 361/9/1 362/10/1 363/2/1 364/1/1
f 365/11/1 366/12/1 367/7/1 368/5/1
f 369/9/1 370/10/1 371/2/1 372/1/1
f 373/11/1 374/12/1 375/7/1 376/5/1
f 377/9/1 378/10/1 379/2/1 380/1/1
f 381/11/1 382/12/1 383/7/1 384/5/1
f 385/9/1 386/10/1 387/2/1 388/1/1
f 389/11/1 390/12/1 391/7/1 392/5/1
f 393/9/1 394/10/1 395/2/1 396/1/1
f 397/11/1 398/12/1 399/7/1 400/5/1
f 401/9/1 402/10/1 403/2/1 404/1/1
f 405/11/1 406/12/1 407/7/1 408/5/1
f 409/9/1 410/10/1 411/2/1 412/1/1
f 413/11/1 414/12/1 415/7/1 416/5/1
f 417/9/1 418/10/1 419/2/1 420/1/1
f 421/11/1 422/12/1 423/7/1 424/5/1
f 425/9/1 426/10/1 427/2/1 428/1/1
f 429/11/1 430/12/1 431/7/1 432/5/1
f 433/9/1 434/10/1 435/2/1 436/1/1
f 437/11/1 438/12/1 439/7/1 440/5/1
f 441/9/1 442/10/1 443/2/1 444/1/1
f 445/11/1 446/12/1 447/7/1 448/5/1
f 449/9/1 450/10/1 451/2/1 452/1/1
f 453/11/1 454/12/1 455/7/1 456/5/1
f 457/9/1 458/10/1 459/2/1 460/1/1
f 461/11/1 462/12/1 463/7/1 464/5/1
f 465/13/1 466/14/1 467/10/1 468/9/1
f 469/14/1 470/15/1 471/11/1 472/10/1
f 473/14/1 474/15/1 475/11/1 476/10/1
f 477/14/1 478/15/1 479/11/1 480/10/1
f 481/14/1 482/15/1 483/11/1 484/10/1
f 485/14/1 486/15/1 487/11/1 488/10/1
f 489/14/1 490/15/1 491/11/1 492/10/1
f 493/14/1 494/15/1 495/11/1 496/10/1
f 497/14/1 498/15/1 499/11/1 500/10/1
f 501/14/1 502/15/1 503/11/1 504/10/1
f 505/14/1 506/15/1 507/11/1 508/10/1
f 509/14/1 510/15/1 511/11/1 512/10/1
f 513/14/1 514/15/1 515/11/1 516/10/1
f 517/14/1 518/15/1 519/11/1 520/10/1
f 521/14/1 522/15/1 523/11/1 524/10/1
f 525/14/1 526/15/1 527/11/1 528/10/1
f 529/14/1 530/15/1 531/11/1 532/10/1
f 533/14/1 534/15/1 535/11/1 536/10/1
f 537/14/1 538/15/1 539/11/1 540/10/1
f 541/14/1 542/15/1 543/11/1 544/10/1
f 545/14/1 546/15/1 547/11/1 548/10/1
f 549/14/1 550/15/1 551/11/1 552/10/1
f 553/14/1 554/15/1 555/11/1 556/10/1
f 557/14/1 558/15/1 559/11/1 560/10/1
f 561/14/1 562/15/1 563/11/1 564/10/1
f 565/14/1 566/15/1 567/11/1 568/10/1
f 569/14/1 570/15/1 571/11/1 572/10/1
f 573/14/1 574/15/1 575/11/1 576/10/1
f 577/14/1 578/15/1 579/11/1 580/10/1
f 581/14/1 582/15/1 583/11/1 584/10/1
f 585/14/1 586/15/1 587/11/1 588/10/1
f 589/14/1 590/15/1 591/11/1 592/10/1
f 593/14/1 594/15/1 595/11/1 596/10/1
f 597/14/1 598/15/1 599/11/1 600/10/1
f 601/14/1 602/15/1 603/11/1 604/10/1
f 605/14/1 606/15/1 607/11/1 608/10/1
f 609/14/1 610/15/1 611/11/1 612/10/1
f 613/14/1 614/15/1 615/11/1 616/10/1
f 617/14/1 618/15/1 619/11/1 620/10/1
f 621/15/1 622/16/1 623/12/1 624/11/1

