# Tiled2Unity generated file. Do not modify by hand.
# Wavefront file for 'mapa7_lvl2_mesh_0003.obj'

# Vertices (Count = 84)
v -1 -1 0
v -2 -1 0
v -2 0 0
v -1 0 0
v -2 -1 0
v -3 -1 0
v -3 0 0
v -2 0 0
v -5 -1 0
v -6 -1 0
v -6 0 0
v -5 0 0
v -7 -1 0
v -8 -1 0
v -8 0 0
v -7 0 0
v -8 -1 0
v -9 -1 0
v -9 0 0
v -8 0 0
v -1 -2 0
v -2 -2 0
v -2 -1 0
v -1 -1 0
v -2 -2 0
v -3 -2 0
v -3 -1 0
v -2 -1 0
v -5 -2 0
v -6 -2 0
v -6 -1 0
v -5 -1 0
v -6 -2 0
v -7 -2 0
v -7 -1 0
v -6 -1 0
v -7 -2 0
v -8 -2 0
v -8 -1 0
v -7 -1 0
v -8 -2 0
v -9 -2 0
v -9 -1 0
v -8 -1 0
v -4 -3 0
v -5 -3 0
v -5 -2 0
v -4 -2 0
v -8 -3 0
v -9 -3 0
v -9 -2 0
v -8 -2 0
v -2 -7 0
v -3 -7 0
v -3 -6 0
v -2 -6 0
v -7 -7 0
v -8 -7 0
v -8 -6 0
v -7 -6 0
v -2 -8 0
v -3 -8 0
v -3 -7 0
v -2 -7 0
v -4 -8 0
v -5 -8 0
v -5 -7 0
v -4 -7 0
v -5 -8 0
v -6 -8 0
v -6 -7 0
v -5 -7 0
v -7 -8 0
v -8 -8 0
v -8 -7 0
v -7 -7 0
v -4 -9 0
v -5 -9 0
v -5 -8 0
v -4 -8 0
v -5 -9 0
v -6 -9 0
v -6 -8 0
v -5 -8 0

# Texture cooridinates (Count = 41)
vt 0.8 0.0869565
vt 0.8333333 0.0869565
vt 0.8333333 0.1304348
vt 0.8 0.1304348
vt 0.8666667 0.0869565
vt 0.8666667 0.1304348
vt 0.9 0.0869565
vt 0.9333333 0.0869565
vt 0.9333333 0.1304348
vt 0.9 0.1304348
vt 0.9666666 0.0869565
vt 0.9666666 0.1304348
vt 0.8 0.04347825
vt 0.8333333 0.04347825
vt 0.8666667 0.04347825
vt 0.6333333 0.1739131
vt 0.6666667 0.1739131
vt 0.6666667 0.2173913
vt 0.6333333 0.2173913
vt 0.9 0.04347825
vt 0.9333333 0.04347825
vt 0.9666666 0.04347825
vt 0.6 0.0869565
vt 0.6333333 0.0869565
vt 0.6333333 0.1304348
vt 0.6 0.1304348
vt 0.7666667 0.04347825
vt 0.7666667 0.0869565
vt 0.6666667 0.0869565
vt 0.6666667 0.1304348
vt 0.6333333 0.04347825
vt 0.6666667 0.04347825
vt 0.7666667 0.3043478
vt 0.8 0.3043478
vt 0.8 0.3478261
vt 0.7666667 0.3478261
vt 0.8333333 0.3043478
vt 0.8333333 0.3478261
vt 0.7666667 0.2608696
vt 0.8 0.2608696
vt 0.8333333 0.2608696

# Normal
vn 0 0 -1

# Mesh description
g mapa7_lvl2_mesh_0003

# Faces
f 1/1/1 2/2/1 3/3/1 4/4/1
f 5/2/1 6/5/1 7/6/1 8/3/1
f 9/2/1 10/5/1 11/6/1 12/3/1
f 13/7/1 14/8/1 15/9/1 16/10/1
f 17/8/1 18/11/1 19/12/1 20/9/1
f 21/13/1 22/14/1 23/2/1 24/1/1
f 25/14/1 26/15/1 27/5/1 28/2/1
f 29/14/1 30/15/1 31/5/1 32/2/1
f 33/16/1 34/17/1 35/18/1 36/19/1
f 37/20/1 38/21/1 39/8/1 40/7/1
f 41/21/1 42/22/1 43/11/1 44/8/1
f 45/23/1 46/24/1 47/25/1 48/26/1
f 49/27/1 50/13/1 51/1/1 52/28/1
f 53/24/1 54/29/1 55/30/1 56/25/1
f 57/24/1 58/29/1 59/30/1 60/25/1
f 61/31/1 62/32/1 63/29/1 64/24/1
f 65/33/1 66/34/1 67/35/1 68/36/1
f 69/34/1 70/37/1 71/38/1 72/35/1
f 73/31/1 74/32/1 75/29/1 76/24/1
f 77/39/1 78/40/1 79/34/1 80/33/1
f 81/40/1 82/41/1 83/37/1 84/34/1

