# Tiled2Unity generated file. Do not modify by hand.
# Wavefront file for 'type_4_1_mesh_0001.obj'

# Vertices (Count = 400)
v 0 -1.6 0
v -1.6 -1.6 0
v -1.6 0 0
v 0 0 0
v -1.6 -1.6 0
v -3.2 -1.6 0
v -3.2 0 0
v -1.6 0 0
v -3.2 -1.6 0
v -4.8 -1.6 0
v -4.8 0 0
v -3.2 0 0
v -4.8 -1.6 0
v -6.4 -1.6 0
v -6.4 0 0
v -4.8 0 0
v -6.4 -1.6 0
v -8 -1.6 0
v -8 0 0
v -6.4 0 0
v -8 -1.6 0
v -9.6 -1.6 0
v -9.6 0 0
v -8 0 0
v -9.6 -1.6 0
v -11.2 -1.6 0
v -11.2 0 0
v -9.6 0 0
v -11.2 -1.6 0
v -12.8 -1.6 0
v -12.8 0 0
v -11.2 0 0
v -12.8 -1.6 0
v -14.4 -1.6 0
v -14.4 0 0
v -12.8 0 0
v -14.4 -1.6 0
v -16 -1.6 0
v -16 0 0
v -14.4 0 0
v 0 -3.2 0
v -1.6 -3.2 0
v -1.6 -1.6 0
v 0 -1.6 0
v -1.6 -3.2 0
v -3.2 -3.2 0
v -3.2 -1.6 0
v -1.6 -1.6 0
v -3.2 -3.2 0
v -4.8 -3.2 0
v -4.8 -1.6 0
v -3.2 -1.6 0
v -4.8 -3.2 0
v -6.4 -3.2 0
v -6.4 -1.6 0
v -4.8 -1.6 0
v -6.4 -3.2 0
v -8 -3.2 0
v -8 -1.6 0
v -6.4 -1.6 0
v -8 -3.2 0
v -9.6 -3.2 0
v -9.6 -1.6 0
v -8 -1.6 0
v -9.6 -3.2 0
v -11.2 -3.2 0
v -11.2 -1.6 0
v -9.6 -1.6 0
v -11.2 -3.2 0
v -12.8 -3.2 0
v -12.8 -1.6 0
v -11.2 -1.6 0
v -12.8 -3.2 0
v -14.4 -3.2 0
v -14.4 -1.6 0
v -12.8 -1.6 0
v -14.4 -3.2 0
v -16 -3.2 0
v -16 -1.6 0
v -14.4 -1.6 0
v 0 -4.8 0
v -1.6 -4.8 0
v -1.6 -3.2 0
v 0 -3.2 0
v -1.6 -4.8 0
v -3.2 -4.8 0
v -3.2 -3.2 0
v -1.6 -3.2 0
v -3.2 -4.8 0
v -4.8 -4.8 0
v -4.8 -3.2 0
v -3.2 -3.2 0
v -4.8 -4.8 0
v -6.4 -4.8 0
v -6.4 -3.2 0
v -4.8 -3.2 0
v -6.4 -4.8 0
v -8 -4.8 0
v -8 -3.2 0
v -6.4 -3.2 0
v -8 -4.8 0
v -9.6 -4.8 0
v -9.6 -3.2 0
v -8 -3.2 0
v -9.6 -4.8 0
v -11.2 -4.8 0
v -11.2 -3.2 0
v -9.6 -3.2 0
v -11.2 -4.8 0
v -12.8 -4.8 0
v -12.8 -3.2 0
v -11.2 -3.2 0
v -12.8 -4.8 0
v -14.4 -4.8 0
v -14.4 -3.2 0
v -12.8 -3.2 0
v -14.4 -4.8 0
v -16 -4.8 0
v -16 -3.2 0
v -14.4 -3.2 0
v 0 -6.4 0
v -1.6 -6.4 0
v -1.6 -4.8 0
v 0 -4.8 0
v -1.6 -6.4 0
v -3.2 -6.4 0
v -3.2 -4.8 0
v -1.6 -4.8 0
v -3.2 -6.4 0
v -4.8 -6.4 0
v -4.8 -4.8 0
v -3.2 -4.8 0
v -4.8 -6.4 0
v -6.4 -6.4 0
v -6.4 -4.8 0
v -4.8 -4.8 0
v -6.4 -6.4 0
v -8 -6.4 0
v -8 -4.8 0
v -6.4 -4.8 0
v -8 -6.4 0
v -9.6 -6.4 0
v -9.6 -4.8 0
v -8 -4.8 0
v -9.6 -6.4 0
v -11.2 -6.4 0
v -11.2 -4.8 0
v -9.6 -4.8 0
v -11.2 -6.4 0
v -12.8 -6.4 0
v -12.8 -4.8 0
v -11.2 -4.8 0
v -12.8 -6.4 0
v -14.4 -6.4 0
v -14.4 -4.8 0
v -12.8 -4.8 0
v -14.4 -6.4 0
v -16 -6.4 0
v -16 -4.8 0
v -14.4 -4.8 0
v 0 -8 0
v -1.6 -8 0
v -1.6 -6.4 0
v 0 -6.4 0
v -1.6 -8 0
v -3.2 -8 0
v -3.2 -6.4 0
v -1.6 -6.4 0
v -3.2 -8 0
v -4.8 -8 0
v -4.8 -6.4 0
v -3.2 -6.4 0
v -4.8 -8 0
v -6.4 -8 0
v -6.4 -6.4 0
v -4.8 -6.4 0
v -6.4 -8 0
v -8 -8 0
v -8 -6.4 0
v -6.4 -6.4 0
v -8 -8 0
v -9.6 -8 0
v -9.6 -6.4 0
v -8 -6.4 0
v -9.6 -8 0
v -11.2 -8 0
v -11.2 -6.4 0
v -9.6 -6.4 0
v -11.2 -8 0
v -12.8 -8 0
v -12.8 -6.4 0
v -11.2 -6.4 0
v -12.8 -8 0
v -14.4 -8 0
v -14.4 -6.4 0
v -12.8 -6.4 0
v -14.4 -8 0
v -16 -8 0
v -16 -6.4 0
v -14.4 -6.4 0
v 0 -9.6 0
v -1.6 -9.6 0
v -1.6 -8 0
v 0 -8 0
v -1.6 -9.6 0
v -3.2 -9.6 0
v -3.2 -8 0
v -1.6 -8 0
v -3.2 -9.6 0
v -4.8 -9.6 0
v -4.8 -8 0
v -3.2 -8 0
v -4.8 -9.6 0
v -6.4 -9.6 0
v -6.4 -8 0
v -4.8 -8 0
v -6.4 -9.6 0
v -8 -9.6 0
v -8 -8 0
v -6.4 -8 0
v -8 -9.6 0
v -9.6 -9.6 0
v -9.6 -8 0
v -8 -8 0
v -9.6 -9.6 0
v -11.2 -9.6 0
v -11.2 -8 0
v -9.6 -8 0
v -11.2 -9.6 0
v -12.8 -9.6 0
v -12.8 -8 0
v -11.2 -8 0
v -12.8 -9.6 0
v -14.4 -9.6 0
v -14.4 -8 0
v -12.8 -8 0
v -14.4 -9.6 0
v -16 -9.6 0
v -16 -8 0
v -14.4 -8 0
v 0 -11.2 0
v -1.6 -11.2 0
v -1.6 -9.6 0
v 0 -9.6 0
v -1.6 -11.2 0
v -3.2 -11.2 0
v -3.2 -9.6 0
v -1.6 -9.6 0
v -3.2 -11.2 0
v -4.8 -11.2 0
v -4.8 -9.6 0
v -3.2 -9.6 0
v -4.8 -11.2 0
v -6.4 -11.2 0
v -6.4 -9.6 0
v -4.8 -9.6 0
v -6.4 -11.2 0
v -8 -11.2 0
v -8 -9.6 0
v -6.4 -9.6 0
v -8 -11.2 0
v -9.6 -11.2 0
v -9.6 -9.6 0
v -8 -9.6 0
v -9.6 -11.2 0
v -11.2 -11.2 0
v -11.2 -9.6 0
v -9.6 -9.6 0
v -11.2 -11.2 0
v -12.8 -11.2 0
v -12.8 -9.6 0
v -11.2 -9.6 0
v -12.8 -11.2 0
v -14.4 -11.2 0
v -14.4 -9.6 0
v -12.8 -9.6 0
v -14.4 -11.2 0
v -16 -11.2 0
v -16 -9.6 0
v -14.4 -9.6 0
v 0 -12.8 0
v -1.6 -12.8 0
v -1.6 -11.2 0
v 0 -11.2 0
v -1.6 -12.8 0
v -3.2 -12.8 0
v -3.2 -11.2 0
v -1.6 -11.2 0
v -3.2 -12.8 0
v -4.8 -12.8 0
v -4.8 -11.2 0
v -3.2 -11.2 0
v -4.8 -12.8 0
v -6.4 -12.8 0
v -6.4 -11.2 0
v -4.8 -11.2 0
v -6.4 -12.8 0
v -8 -12.8 0
v -8 -11.2 0
v -6.4 -11.2 0
v -8 -12.8 0
v -9.6 -12.8 0
v -9.6 -11.2 0
v -8 -11.2 0
v -9.6 -12.8 0
v -11.2 -12.8 0
v -11.2 -11.2 0
v -9.6 -11.2 0
v -11.2 -12.8 0
v -12.8 -12.8 0
v -12.8 -11.2 0
v -11.2 -11.2 0
v -12.8 -12.8 0
v -14.4 -12.8 0
v -14.4 -11.2 0
v -12.8 -11.2 0
v -14.4 -12.8 0
v -16 -12.8 0
v -16 -11.2 0
v -14.4 -11.2 0
v 0 -14.4 0
v -1.6 -14.4 0
v -1.6 -12.8 0
v 0 -12.8 0
v -1.6 -14.4 0
v -3.2 -14.4 0
v -3.2 -12.8 0
v -1.6 -12.8 0
v -3.2 -14.4 0
v -4.8 -14.4 0
v -4.8 -12.8 0
v -3.2 -12.8 0
v -4.8 -14.4 0
v -6.4 -14.4 0
v -6.4 -12.8 0
v -4.8 -12.8 0
v -6.4 -14.4 0
v -8 -14.4 0
v -8 -12.8 0
v -6.4 -12.8 0
v -8 -14.4 0
v -9.6 -14.4 0
v -9.6 -12.8 0
v -8 -12.8 0
v -9.6 -14.4 0
v -11.2 -14.4 0
v -11.2 -12.8 0
v -9.6 -12.8 0
v -11.2 -14.4 0
v -12.8 -14.4 0
v -12.8 -12.8 0
v -11.2 -12.8 0
v -12.8 -14.4 0
v -14.4 -14.4 0
v -14.4 -12.8 0
v -12.8 -12.8 0
v -14.4 -14.4 0
v -16 -14.4 0
v -16 -12.8 0
v -14.4 -12.8 0
v 0 -16 0
v -1.6 -16 0
v -1.6 -14.4 0
v 0 -14.4 0
v -1.6 -16 0
v -3.2 -16 0
v -3.2 -14.4 0
v -1.6 -14.4 0
v -3.2 -16 0
v -4.8 -16 0
v -4.8 -14.4 0
v -3.2 -14.4 0
v -4.8 -16 0
v -6.4 -16 0
v -6.4 -14.4 0
v -4.8 -14.4 0
v -6.4 -16 0
v -8 -16 0
v -8 -14.4 0
v -6.4 -14.4 0
v -8 -16 0
v -9.6 -16 0
v -9.6 -14.4 0
v -8 -14.4 0
v -9.6 -16 0
v -11.2 -16 0
v -11.2 -14.4 0
v -9.6 -14.4 0
v -11.2 -16 0
v -12.8 -16 0
v -12.8 -14.4 0
v -11.2 -14.4 0
v -12.8 -16 0
v -14.4 -16 0
v -14.4 -14.4 0
v -12.8 -14.4 0
v -14.4 -16 0
v -16 -16 0
v -16 -14.4 0
v -14.4 -14.4 0

# Texture cooridinates (Count = 16)
vt 0.55 0.9722222
vt 0.575 0.9722222
vt 0.575 1
vt 0.55 1
vt 0.6 0.9722222
vt 0.6 1
vt 0.575 0.9444444
vt 0.6 0.9444444
vt 0.625 0.9722222
vt 0.625 1
vt 0.55 0.9444444
vt 0.625 0.9444444
vt 0.55 0.9166667
vt 0.575 0.9166667
vt 0.6 0.9166667
vt 0.625 0.9166667

# Normal
vn 0 0 -1

# Mesh description
g type_4_1_mesh_0001

# Faces
f 1/1/1 2/2/1 3/3/1 4/4/1
f 5/2/1 6/5/1 7/6/1 8/3/1
f 9/2/1 10/5/1 11/6/1 12/3/1
f 13/7/1 14/8/1 15/5/1 16/2/1
f 17/7/1 18/8/1 19/5/1 20/2/1
f 21/7/1 22/8/1 23/5/1 24/2/1
f 25/7/1 26/8/1 27/5/1 28/2/1
f 29/2/1 30/5/1 31/6/1 32/3/1
f 33/2/1 34/5/1 35/6/1 36/3/1
f 37/5/1 38/9/1 39/10/1 40/6/1
f 41/11/1 42/7/1 43/2/1 44/1/1
f 45/7/1 46/8/1 47/5/1 48/2/1
f 49/7/1 50/8/1 51/5/1 52/2/1
f 53/7/1 54/8/1 55/5/1 56/2/1
f 57/7/1 58/8/1 59/5/1 60/2/1
f 61/7/1 62/8/1 63/5/1 64/2/1
f 65/7/1 66/8/1 67/5/1 68/2/1
f 69/7/1 70/8/1 71/5/1 72/2/1
f 73/7/1 74/8/1 75/5/1 76/2/1
f 77/8/1 78/12/1 79/9/1 80/5/1
f 81/11/1 82/7/1 83/2/1 84/1/1
f 85/7/1 86/8/1 87/5/1 88/2/1
f 89/7/1 90/8/1 91/5/1 92/2/1
f 93/7/1 94/8/1 95/5/1 96/2/1
f 97/7/1 98/8/1 99/5/1 100/2/1
f 101/7/1 102/8/1 103/5/1 104/2/1
f 105/7/1 106/8/1 107/5/1 108/2/1
f 109/7/1 110/8/1 111/5/1 112/2/1
f 113/7/1 114/8/1 115/5/1 116/2/1
f 117/8/1 118/12/1 119/9/1 120/5/1
f 121/11/1 122/7/1 123/2/1 124/1/1
f 125/7/1 126/8/1 127/5/1 128/2/1
f 129/7/1 130/8/1 131/5/1 132/2/1
f 133/7/1 134/8/1 135/5/1 136/2/1
f 137/7/1 138/8/1 139/5/1 140/2/1
f 141/7/1 142/8/1 143/5/1 144/2/1
f 145/7/1 146/8/1 147/5/1 148/2/1
f 149/7/1 150/8/1 151/5/1 152/2/1
f 153/7/1 154/8/1 155/5/1 156/2/1
f 157/8/1 158/12/1 159/9/1 160/5/1
f 161/11/1 162/7/1 163/2/1 164/1/1
f 165/7/1 166/8/1 167/5/1 168/2/1
f 169/7/1 170/8/1 171/5/1 172/2/1
f 173/7/1 174/8/1 175/5/1 176/2/1
f 177/7/1 178/8/1 179/5/1 180/2/1
f 181/7/1 182/8/1 183/5/1 184/2/1
f 185/7/1 186/8/1 187/5/1 188/2/1
f 189/7/1 190/8/1 191/5/1 192/2/1
f 193/7/1 194/8/1 195/5/1 196/2/1
f 197/8/1 198/12/1 199/9/1 200/5/1
f 201/11/1 202/7/1 203/2/1 204/1/1
f 205/7/1 206/8/1 207/5/1 208/2/1
f 209/7/1 210/8/1 211/5/1 212/2/1
f 213/7/1 214/8/1 215/5/1 216/2/1
f 217/7/1 218/8/1 219/5/1 220/2/1
f 221/7/1 222/8/1 223/5/1 224/2/1
f 225/7/1 226/8/1 227/5/1 228/2/1
f 229/7/1 230/8/1 231/5/1 232/2/1
f 233/7/1 234/8/1 235/5/1 236/2/1
f 237/8/1 238/12/1 239/9/1 240/5/1
f 241/11/1 242/7/1 243/2/1 244/1/1
f 245/7/1 246/8/1 247/5/1 248/2/1
f 249/7/1 250/8/1 251/5/1 252/2/1
f 253/7/1 254/8/1 255/5/1 256/2/1
f 257/7/1 258/8/1 259/5/1 260/2/1
f 261/7/1 262/8/1 263/5/1 264/2/1
f 265/7/1 266/8/1 267/5/1 268/2/1
f 269/7/1 270/8/1 271/5/1 272/2/1
f 273/7/1 274/8/1 275/5/1 276/2/1
f 277/8/1 278/12/1 279/9/1 280/5/1
f 281/11/1 282/7/1 283/2/1 284/1/1
f 285/7/1 286/8/1 287/5/1 288/2/1
f 289/7/1 290/8/1 291/5/1 292/2/1
f 293/7/1 294/8/1 295/5/1 296/2/1
f 297/7/1 298/8/1 299/5/1 300/2/1
f 301/7/1 302/8/1 303/5/1 304/2/1
f 305/7/1 306/8/1 307/5/1 308/2/1
f 309/7/1 310/8/1 311/5/1 312/2/1
f 313/7/1 314/8/1 315/5/1 316/2/1
f 317/8/1 318/12/1 319/9/1 320/5/1
f 321/11/1 322/7/1 323/2/1 324/1/1
f 325/7/1 326/8/1 327/5/1 328/2/1
f 329/7/1 330/8/1 331/5/1 332/2/1
f 333/7/1 334/8/1 335/5/1 336/2/1
f 337/7/1 338/8/1 339/5/1 340/2/1
f 341/7/1 342/8/1 343/5/1 344/2/1
f 345/7/1 346/8/1 347/5/1 348/2/1
f 349/7/1 350/8/1 351/5/1 352/2/1
f 353/7/1 354/8/1 355/5/1 356/2/1
f 357/8/1 358/12/1 359/9/1 360/5/1
f 361/13/1 362/14/1 363/7/1 364/11/1
f 365/14/1 366/15/1 367/8/1 368/7/1
f 369/14/1 370/15/1 371/8/1 372/7/1
f 373/7/1 374/8/1 375/5/1 376/2/1
f 377/7/1 378/8/1 379/5/1 380/2/1
f 381/7/1 382/8/1 383/5/1 384/2/1
f 385/7/1 386/8/1 387/5/1 388/2/1
f 389/14/1 390/15/1 391/8/1 392/7/1
f 393/14/1 394/15/1 395/8/1 396/7/1
f 397/15/1 398/16/1 399/12/1 400/8/1

