# Tiled2Unity generated file. Do not modify by hand.
# Wavefront file for 'Inicio_lvl2_mesh_0003.obj'

# Vertices (Count = 96)
v -2 -4 0
v -3 -4 0
v -3 -3 0
v -2 -3 0
v -7 -4 0
v -8 -4 0
v -8 -3 0
v -7 -3 0
v -2 -5 0
v -3 -5 0
v -3 -4 0
v -2 -4 0
v -7 -5 0
v -8 -5 0
v -8 -4 0
v -7 -4 0
v -3 -6 0
v -4 -6 0
v -4 -5 0
v -3 -5 0
v -4 -6 0
v -5 -6 0
v -5 -5 0
v -4 -5 0
v -5 -6 0
v -6 -6 0
v -6 -5 0
v -5 -5 0
v -6 -6 0
v -7 -6 0
v -7 -5 0
v -6 -5 0
v -3 -7 0
v -4 -7 0
v -4 -6 0
v -3 -6 0
v -4 -7 0
v -5 -7 0
v -5 -6 0
v -4 -6 0
v -5 -7 0
v -6 -7 0
v -6 -6 0
v -5 -6 0
v -6 -7 0
v -7 -7 0
v -7 -6 0
v -6 -6 0
v -1 -8 0
v -2 -8 0
v -2 -7 0
v -1 -7 0
v -2 -8 0
v -3 -8 0
v -3 -7 0
v -2 -7 0
v -3 -8 0
v -4 -8 0
v -4 -7 0
v -3 -7 0
v -4 -8 0
v -5 -8 0
v -5 -7 0
v -4 -7 0
v -5 -8 0
v -6 -8 0
v -6 -7 0
v -5 -7 0
v -6 -8 0
v -7 -8 0
v -7 -7 0
v -6 -7 0
v -7 -8 0
v -8 -8 0
v -8 -7 0
v -7 -7 0
v -8 -8 0
v -9 -8 0
v -9 -7 0
v -8 -7 0
v -1 -9 0
v -2 -9 0
v -2 -8 0
v -1 -8 0
v -2 -9 0
v -3 -9 0
v -3 -8 0
v -2 -8 0
v -7 -9 0
v -8 -9 0
v -8 -8 0
v -7 -8 0
v -8 -9 0
v -9 -9 0
v -9 -8 0
v -8 -8 0

# Texture cooridinates (Count = 37)
vt 0.6333333 0.0869565
vt 0.6666667 0.0869565
vt 0.6666667 0.1304348
vt 0.6333333 0.1304348
vt 0.6333333 0.04347825
vt 0.6666667 0.04347825
vt 0.3333333 0.7826087
vt 0.3666667 0.7826087
vt 0.3666667 0.8260869
vt 0.3333333 0.8260869
vt 0.4 0.7826087
vt 0.4 0.8260869
vt 0.4333333 0.7826087
vt 0.4333333 0.8260869
vt 0.3333333 0.7391304
vt 0.3666667 0.7391304
vt 0.4 0.7391304
vt 0.4333333 0.7391304
vt 0.7 0.3043478
vt 0.7333333 0.3043478
vt 0.7333333 0.3478261
vt 0.7 0.3478261
vt 0.7666667 0.3043478
vt 0.7666667 0.3478261
vt 0.3333333 0.6956522
vt 0.3666667 0.6956522
vt 0.4 0.6956522
vt 0.4333333 0.6956522
vt 0.8 0.3043478
vt 0.8 0.3478261
vt 0.8333333 0.3043478
vt 0.8333333 0.3478261
vt 0.7 0.2608696
vt 0.7333333 0.2608696
vt 0.7666667 0.2608696
vt 0.8 0.2608696
vt 0.8333333 0.2608696

# Normal
vn 0 0 -1

# Mesh description
g Inicio_lvl2_mesh_0003

# Faces
f 1/1/1 2/2/1 3/3/1 4/4/1
f 5/1/1 6/2/1 7/3/1 8/4/1
f 9/5/1 10/6/1 11/2/1 12/1/1
f 13/5/1 14/6/1 15/2/1 16/1/1
f 17/7/1 18/8/1 19/9/1 20/10/1
f 21/8/1 22/11/1 23/12/1 24/9/1
f 25/8/1 26/11/1 27/12/1 28/9/1
f 29/11/1 30/13/1 31/14/1 32/12/1
f 33/15/1 34/16/1 35/8/1 36/7/1
f 37/16/1 38/17/1 39/11/1 40/8/1
f 41/16/1 42/17/1 43/11/1 44/8/1
f 45/17/1 46/18/1 47/13/1 48/11/1
f 49/19/1 50/20/1 51/21/1 52/22/1
f 53/20/1 54/23/1 55/24/1 56/21/1
f 57/25/1 58/26/1 59/16/1 60/15/1
f 61/26/1 62/27/1 63/17/1 64/16/1
f 65/26/1 66/27/1 67/17/1 68/16/1
f 69/27/1 70/28/1 71/18/1 72/17/1
f 73/23/1 74/29/1 75/30/1 76/24/1
f 77/29/1 78/31/1 79/32/1 80/30/1
f 81/33/1 82/34/1 83/20/1 84/19/1
f 85/34/1 86/35/1 87/23/1 88/20/1
f 89/35/1 90/36/1 91/29/1 92/23/1
f 93/36/1 94/37/1 95/31/1 96/29/1

