# Tiled2Unity generated file. Do not modify by hand.
# Wavefront file for 'mapa5_lvl2_mesh_0002.obj'

# Vertices (Count = 136)
v 0 -1 0
v -1 -1 0
v -1 0 0
v 0 0 0
v -1 -1 0
v -2 -1 0
v -2 0 0
v -1 0 0
v -2 -1 0
v -3 -1 0
v -3 0 0
v -2 0 0
v -3 -1 0
v -4 -1 0
v -4 0 0
v -3 0 0
v -4 -1 0
v -5 -1 0
v -5 0 0
v -4 0 0
v -5 -1 0
v -6 -1 0
v -6 0 0
v -5 0 0
v -6 -1 0
v -7 -1 0
v -7 0 0
v -6 0 0
v -7 -1 0
v -8 -1 0
v -8 0 0
v -7 0 0
v -8 -1 0
v -9 -1 0
v -9 0 0
v -8 0 0
v -9 -1 0
v -10 -1 0
v -10 0 0
v -9 0 0
v 0 -2 0
v -1 -2 0
v -1 -1 0
v 0 -1 0
v -9 -2 0
v -10 -2 0
v -10 -1 0
v -9 -1 0
v 0 -3 0
v -1 -3 0
v -1 -2 0
v 0 -2 0
v -9 -3 0
v -10 -3 0
v -10 -2 0
v -9 -2 0
v 0 -4 0
v -1 -4 0
v -1 -3 0
v 0 -3 0
v -9 -4 0
v -10 -4 0
v -10 -3 0
v -9 -3 0
v 0 -5 0
v -1 -5 0
v -1 -4 0
v 0 -4 0
v 0 -6 0
v -1 -6 0
v -1 -5 0
v 0 -5 0
v -9 -6 0
v -10 -6 0
v -10 -5 0
v -9 -5 0
v 0 -7 0
v -1 -7 0
v -1 -6 0
v 0 -6 0
v -9 -7 0
v -10 -7 0
v -10 -6 0
v -9 -6 0
v 0 -8 0
v -1 -8 0
v -1 -7 0
v 0 -7 0
v -9 -8 0
v -10 -8 0
v -10 -7 0
v -9 -7 0
v 0 -9 0
v -1 -9 0
v -1 -8 0
v 0 -8 0
v -9 -9 0
v -10 -9 0
v -10 -8 0
v -9 -8 0
v 0 -10 0
v -1 -10 0
v -1 -9 0
v 0 -9 0
v -1 -10 0
v -2 -10 0
v -2 -9 0
v -1 -9 0
v -2 -10 0
v -3 -10 0
v -3 -9 0
v -2 -9 0
v -3 -10 0
v -4 -10 0
v -4 -9 0
v -3 -9 0
v -5 -10 0
v -6 -10 0
v -6 -9 0
v -5 -9 0
v -6 -10 0
v -7 -10 0
v -7 -9 0
v -6 -9 0
v -7 -10 0
v -8 -10 0
v -8 -9 0
v -7 -9 0
v -8 -10 0
v -9 -10 0
v -9 -9 0
v -8 -9 0
v -9 -10 0
v -10 -10 0
v -10 -9 0
v -9 -9 0

# Texture cooridinates (Count = 32)
vt 0.1666667 0.5217391
vt 0.2 0.5217391
vt 0.2 0.5652174
vt 0.1666667 0.5652174
vt 0.2333333 0.5652174
vt 0.2333333 0.6086956
vt 0.2 0.6086956
vt 0.2666667 0.5652174
vt 0.2666667 0.6086956
vt 0.3 0.5652174
vt 0.3333333 0.5652174
vt 0.3333333 0.6086956
vt 0.3 0.6086956
vt 0.3 0.5217391
vt 0.3333333 0.5217391
vt 0.2333333 0.5217391
vt 0.2666667 0.5217391
vt 0.1666667 0.4782609
vt 0.2 0.4782609
vt 0.3 0.4782609
vt 0.3333333 0.4782609
vt 0.1666667 0.4347826
vt 0.2 0.4347826
vt 0.3 0.4347826
vt 0.3333333 0.4347826
vt 0.2333333 0.4782609
vt 0.5 0.3913044
vt 0.5333334 0.3913044
vt 0.5333334 0.4347826
vt 0.5 0.4347826
vt 0.5666667 0.3913044
vt 0.5666667 0.4347826

# Normal
vn 0 0 -1

# Mesh description
g mapa5_lvl2_mesh_0002

# Faces
f 1/1/1 2/2/1 3/3/1 4/4/1
f 5/3/1 6/5/1 7/6/1 8/7/1
f 9/5/1 10/8/1 11/9/1 12/6/1
f 13/10/1 14/11/1 15/12/1 16/13/1
f 17/5/1 18/8/1 19/9/1 20/6/1
f 21/14/1 22/15/1 23/11/1 24/10/1
f 25/8/1 26/10/1 27/13/1 28/9/1
f 29/10/1 30/11/1 31/12/1 32/13/1
f 33/5/1 34/8/1 35/9/1 36/6/1
f 37/16/1 38/17/1 39/8/1 40/5/1
f 41/18/1 42/19/1 43/2/1 44/1/1
f 45/18/1 46/19/1 47/2/1 48/1/1
f 49/20/1 50/21/1 51/15/1 52/14/1
f 53/18/1 54/19/1 55/2/1 56/1/1
f 57/18/1 58/19/1 59/2/1 60/1/1
f 61/22/1 62/23/1 63/19/1 64/18/1
f 65/24/1 66/25/1 67/21/1 68/20/1
f 69/18/1 70/19/1 71/2/1 72/1/1
f 73/1/1 74/2/1 75/3/1 76/4/1
f 77/18/1 78/19/1 79/2/1 80/1/1
f 81/18/1 82/19/1 83/2/1 84/1/1
f 85/18/1 86/19/1 87/2/1 88/1/1
f 89/18/1 90/19/1 91/2/1 92/1/1
f 93/18/1 94/19/1 95/2/1 96/1/1
f 97/18/1 98/19/1 99/2/1 100/1/1
f 101/19/1 102/26/1 103/16/1 104/2/1
f 105/5/1 106/8/1 107/9/1 108/6/1
f 109/10/1 110/11/1 111/12/1 112/13/1
f 113/27/1 114/28/1 115/29/1 116/30/1
f 117/28/1 118/31/1 119/32/1 120/29/1
f 121/14/1 122/15/1 123/11/1 124/10/1
f 125/5/1 126/8/1 127/9/1 128/6/1
f 129/5/1 130/8/1 131/9/1 132/6/1
f 133/8/1 134/10/1 135/13/1 136/9/1

