# Tiled2Unity generated file. Do not modify by hand.
# Wavefront file for 'mapa5_mesh_0002.obj'

# Vertices (Count = 284)
v -3 -1 0
v -4 -1 0
v -4 0 0
v -3 0 0
v -4 -1 0
v -5 -1 0
v -5 0 0
v -4 0 0
v -5 -1 0
v -6 -1 0
v -6 0 0
v -5 0 0
v -6 -1 0
v -7 -1 0
v -7 0 0
v -6 0 0
v -7 -1 0
v -8 -1 0
v -8 0 0
v -7 0 0
v -8 -1 0
v -9 -1 0
v -9 0 0
v -8 0 0
v -9 -1 0
v -10 -1 0
v -10 0 0
v -9 0 0
v -1 -2 0
v -2 -2 0
v -2 -1 0
v -1 -1 0
v -4 -2 0
v -5 -2 0
v -5 -1 0
v -4 -1 0
v -5 -2 0
v -6 -2 0
v -6 -1 0
v -5 -1 0
v -6 -2 0
v -7 -2 0
v -7 -1 0
v -6 -1 0
v -7 -2 0
v -8 -2 0
v -8 -1 0
v -7 -1 0
v -8 -2 0
v -9 -2 0
v -9 -1 0
v -8 -1 0
v -9 -2 0
v -10 -2 0
v -10 -1 0
v -9 -1 0
v -1 -3 0
v -2 -3 0
v -2 -2 0
v -1 -2 0
v -2 -3 0
v -3 -3 0
v -3 -2 0
v -2 -2 0
v -3 -3 0
v -4 -3 0
v -4 -2 0
v -3 -2 0
v -4 -3 0
v -5 -3 0
v -5 -2 0
v -4 -2 0
v -5 -3 0
v -6 -3 0
v -6 -2 0
v -5 -2 0
v -6 -3 0
v -7 -3 0
v -7 -2 0
v -6 -2 0
v -7 -3 0
v -8 -3 0
v -8 -2 0
v -7 -2 0
v -8 -3 0
v -9 -3 0
v -9 -2 0
v -8 -2 0
v -9 -3 0
v -10 -3 0
v -10 -2 0
v -9 -2 0
v -2 -4 0
v -3 -4 0
v -3 -3 0
v -2 -3 0
v -3 -4 0
v -4 -4 0
v -4 -3 0
v -3 -3 0
v -5 -4 0
v -6 -4 0
v -6 -3 0
v -5 -3 0
v -6 -4 0
v -7 -4 0
v -7 -3 0
v -6 -3 0
v -7 -4 0
v -8 -4 0
v -8 -3 0
v -7 -3 0
v -8 -4 0
v -9 -4 0
v -9 -3 0
v -8 -3 0
v -9 -4 0
v -10 -4 0
v -10 -3 0
v -9 -3 0
v -1 -5 0
v -2 -5 0
v -2 -4 0
v -1 -4 0
v -2 -5 0
v -3 -5 0
v -3 -4 0
v -2 -4 0
v -3 -5 0
v -4 -5 0
v -4 -4 0
v -3 -4 0
v -4 -5 0
v -5 -5 0
v -5 -4 0
v -4 -4 0
v -5 -5 0
v -6 -5 0
v -6 -4 0
v -5 -4 0
v -6 -5 0
v -7 -5 0
v -7 -4 0
v -6 -4 0
v -7 -5 0
v -8 -5 0
v -8 -4 0
v -7 -4 0
v -8 -5 0
v -9 -5 0
v -9 -4 0
v -8 -4 0
v -9 -5 0
v -10 -5 0
v -10 -4 0
v -9 -4 0
v -1 -6 0
v -2 -6 0
v -2 -5 0
v -1 -5 0
v -2 -6 0
v -3 -6 0
v -3 -5 0
v -2 -5 0
v -3 -6 0
v -4 -6 0
v -4 -5 0
v -3 -5 0
v -4 -6 0
v -5 -6 0
v -5 -5 0
v -4 -5 0
v -5 -6 0
v -6 -6 0
v -6 -5 0
v -5 -5 0
v -6 -6 0
v -7 -6 0
v -7 -5 0
v -6 -5 0
v -7 -6 0
v -8 -6 0
v -8 -5 0
v -7 -5 0
v -8 -6 0
v -9 -6 0
v -9 -5 0
v -8 -5 0
v -9 -6 0
v -10 -6 0
v -10 -5 0
v -9 -5 0
v -2 -7 0
v -3 -7 0
v -3 -6 0
v -2 -6 0
v -3 -7 0
v -4 -7 0
v -4 -6 0
v -3 -6 0
v -6 -7 0
v -7 -7 0
v -7 -6 0
v -6 -6 0
v -7 -7 0
v -8 -7 0
v -8 -6 0
v -7 -6 0
v -8 -7 0
v -9 -7 0
v -9 -6 0
v -8 -6 0
v -3 -8 0
v -4 -8 0
v -4 -7 0
v -3 -7 0
v -4 -8 0
v -5 -8 0
v -5 -7 0
v -4 -7 0
v -5 -8 0
v -6 -8 0
v -6 -7 0
v -5 -7 0
v -6 -8 0
v -7 -8 0
v -7 -7 0
v -6 -7 0
v -7 -8 0
v -8 -8 0
v -8 -7 0
v -7 -7 0
v -8 -8 0
v -9 -8 0
v -9 -7 0
v -8 -7 0
v -1 -9 0
v -2 -9 0
v -2 -8 0
v -1 -8 0
v -2 -9 0
v -3 -9 0
v -3 -8 0
v -2 -8 0
v -3 -9 0
v -4 -9 0
v -4 -8 0
v -3 -8 0
v -4 -9 0
v -5 -9 0
v -5 -8 0
v -4 -8 0
v -5 -9 0
v -6 -9 0
v -6 -8 0
v -5 -8 0
v -6 -9 0
v -7 -9 0
v -7 -8 0
v -6 -8 0
v -1 -10 0
v -2 -10 0
v -2 -9 0
v -1 -9 0
v -2 -10 0
v -3 -10 0
v -3 -9 0
v -2 -9 0
v -3 -10 0
v -4 -10 0
v -4 -9 0
v -3 -9 0
v -4 -10 0
v -5 -10 0
v -5 -9 0
v -4 -9 0
v -5 -10 0
v -6 -10 0
v -6 -9 0
v -5 -9 0
v -6 -10 0
v -7 -10 0
v -7 -9 0
v -6 -9 0

# Texture cooridinates (Count = 49)
vt 0.1666667 0.8695652
vt 0.2 0.8695652
vt 0.2 0.9130435
vt 0.1666667 0.9130435
vt 0.2666667 0.9130435
vt 0.3 0.9130435
vt 0.3 0.9565217
vt 0.2666667 0.9565217
vt 0.2333333 0.9130435
vt 0.2333333 0.9565217
vt 0.2 0.9565217
vt 0.4333333 0.9565217
vt 0.4666667 0.9565217
vt 0.4666667 1
vt 0.4333333 1
vt 0.1666667 0.9565217
vt 0.2666667 0.8260869
vt 0.3 0.8260869
vt 0.3 0.8695652
vt 0.2666667 0.8695652
vt 0 0.9130435
vt 0.03333334 0.9130435
vt 0.03333334 0.9565217
vt 0 0.9565217
vt 0.06666667 0.9130435
vt 0.06666667 0.9565217
vt 0.1 0.9130435
vt 0.1333333 0.9130435
vt 0.1333333 0.9565217
vt 0.1 0.9565217
vt 0 0.8695652
vt 0.03333334 0.8695652
vt 0.1 0.8695652
vt 0.1333333 0.8695652
vt 0.03333334 1
vt 0 1
vt 0.2333333 0.8695652
vt 0.06666667 1
vt 0.1 1
vt 0.06666667 0.8695652
vt 0.2 1
vt 0.1666667 1
vt 0.2333333 1
vt 0.2666667 1
vt 0.4333333 0.9130435
vt 0.4666667 0.9130435
vt 0.3 1
vt 0.3333333 0.9565217
vt 0.3333333 1

# Normal
vn 0 0 -1

# Mesh description
g mapa5_mesh_0002

# Faces
f 1/1/1 2/2/1 3/3/1 4/4/1
f 5/5/1 6/6/1 7/7/1 8/8/1
f 9/3/1 10/9/1 11/10/1 12/11/1
f 13/3/1 14/9/1 15/10/1 16/11/1
f 17/3/1 18/9/1 19/10/1 20/11/1
f 21/3/1 22/9/1 23/10/1 24/11/1
f 25/3/1 26/9/1 27/10/1 28/11/1
f 29/12/1 30/13/1 31/14/1 32/15/1
f 33/4/1 34/3/1 35/11/1 36/16/1
f 37/3/1 38/9/1 39/10/1 40/11/1
f 41/17/1 42/18/1 43/19/1 44/20/1
f 45/3/1 46/9/1 47/10/1 48/11/1
f 49/3/1 50/9/1 51/10/1 52/11/1
f 53/3/1 54/9/1 55/10/1 56/11/1
f 57/21/1 58/22/1 59/23/1 60/24/1
f 61/22/1 62/25/1 63/26/1 64/23/1
f 65/27/1 66/28/1 67/29/1 68/30/1
f 69/1/1 70/2/1 71/3/1 72/4/1
f 73/5/1 74/6/1 75/7/1 76/8/1
f 77/3/1 78/9/1 79/10/1 80/11/1
f 81/3/1 82/9/1 83/10/1 84/11/1
f 85/3/1 86/9/1 87/10/1 88/11/1
f 89/3/1 90/9/1 91/10/1 92/11/1
f 93/31/1 94/32/1 95/22/1 96/21/1
f 97/33/1 98/34/1 99/28/1 100/27/1
f 101/1/1 102/2/1 103/3/1 104/4/1
f 105/5/1 106/6/1 107/7/1 108/8/1
f 109/3/1 110/9/1 111/10/1 112/11/1
f 113/3/1 114/9/1 115/10/1 116/11/1
f 117/3/1 118/9/1 119/10/1 120/11/1
f 121/21/1 122/22/1 123/23/1 124/24/1
f 125/21/1 126/22/1 127/23/1 128/24/1
f 129/22/1 130/25/1 131/26/1 132/23/1
f 133/27/1 134/28/1 135/29/1 136/30/1
f 137/24/1 138/23/1 139/35/1 140/36/1
f 141/1/1 142/2/1 143/3/1 144/4/1
f 145/2/1 146/37/1 147/9/1 148/3/1
f 149/5/1 150/6/1 151/7/1 152/8/1
f 153/3/1 154/9/1 155/10/1 156/11/1
f 157/33/1 158/34/1 159/28/1 160/27/1
f 161/31/1 162/32/1 163/22/1 164/21/1
f 165/33/1 166/34/1 167/28/1 168/27/1
f 169/27/1 170/28/1 171/29/1 172/30/1
f 173/31/1 174/32/1 175/22/1 176/21/1
f 177/23/1 178/26/1 179/38/1 180/35/1
f 181/26/1 182/30/1 183/39/1 184/38/1
f 185/1/1 186/2/1 187/3/1 188/4/1
f 189/2/1 190/37/1 191/9/1 192/3/1
f 193/32/1 194/40/1 195/25/1 196/22/1
f 197/40/1 198/33/1 199/27/1 200/25/1
f 201/32/1 202/40/1 203/25/1 204/22/1
f 205/25/1 206/27/1 207/30/1 208/26/1
f 209/22/1 210/25/1 211/26/1 212/23/1
f 213/16/1 214/11/1 215/41/1 216/42/1
f 217/11/1 218/10/1 219/43/1 220/41/1
f 221/10/1 222/8/1 223/44/1 224/43/1
f 225/23/1 226/26/1 227/38/1 228/35/1
f 229/40/1 230/33/1 231/27/1 232/25/1
f 233/21/1 234/22/1 235/23/1 236/24/1
f 237/45/1 238/46/1 239/13/1 240/12/1
f 241/16/1 242/11/1 243/41/1 244/42/1
f 245/8/1 246/7/1 247/47/1 248/44/1
f 249/20/1 250/19/1 251/6/1 252/5/1
f 253/7/1 254/48/1 255/49/1 256/47/1
f 257/10/1 258/8/1 259/44/1 260/43/1
f 261/16/1 262/11/1 263/41/1 264/42/1
f 265/8/1 266/7/1 267/47/1 268/44/1
f 269/3/1 270/9/1 271/10/1 272/11/1
f 273/3/1 274/9/1 275/10/1 276/11/1
f 277/3/1 278/9/1 279/10/1 280/11/1
f 281/9/1 282/5/1 283/8/1 284/10/1

