# Tiled2Unity generated file. Do not modify by hand.
# Wavefront file for 'mapa8_lvl2_mesh_0003.obj'

# Vertices (Count = 80)
v -1 -1 0
v -2 -1 0
v -2 0 0
v -1 0 0
v -2 -1 0
v -3 -1 0
v -3 0 0
v -2 0 0
v -3 -1 0
v -4 -1 0
v -4 0 0
v -3 0 0
v -4 -1 0
v -5 -1 0
v -5 0 0
v -4 0 0
v -1 -2 0
v -2 -2 0
v -2 -1 0
v -1 -1 0
v -2 -2 0
v -3 -2 0
v -3 -1 0
v -2 -1 0
v -3 -2 0
v -4 -2 0
v -4 -1 0
v -3 -1 0
v -4 -2 0
v -5 -2 0
v -5 -1 0
v -4 -1 0
v -2 -4 0
v -3 -4 0
v -3 -3 0
v -2 -3 0
v -7 -4 0
v -8 -4 0
v -8 -3 0
v -7 -3 0
v -2 -5 0
v -3 -5 0
v -3 -4 0
v -2 -4 0
v -7 -5 0
v -8 -5 0
v -8 -4 0
v -7 -4 0
v -1 -7 0
v -2 -7 0
v -2 -6 0
v -1 -6 0
v -2 -7 0
v -3 -7 0
v -3 -6 0
v -2 -6 0
v -6 -7 0
v -7 -7 0
v -7 -6 0
v -6 -6 0
v -7 -7 0
v -8 -7 0
v -8 -6 0
v -7 -6 0
v -7 -8 0
v -8 -8 0
v -8 -7 0
v -7 -7 0
v -8 -8 0
v -9 -8 0
v -9 -7 0
v -8 -7 0
v -7 -9 0
v -8 -9 0
v -8 -8 0
v -7 -8 0
v -8 -9 0
v -9 -9 0
v -9 -8 0
v -8 -8 0

# Texture cooridinates (Count = 42)
vt 0.8333333 0.3043478
vt 0.8666667 0.3043478
vt 0.8666667 0.3478261
vt 0.8333333 0.3478261
vt 0.9 0.3043478
vt 0.9 0.3478261
vt 0.9333333 0.3043478
vt 0.9333333 0.3478261
vt 0.9666666 0.3043478
vt 0.9666666 0.3478261
vt 0.8333333 0.2608696
vt 0.8666667 0.2608696
vt 0.9 0.2608696
vt 0.9333333 0.2608696
vt 0.9666666 0.2608696
vt 0.9333333 0.4347826
vt 0.9666666 0.4347826
vt 0.9666666 0.4782609
vt 0.9333333 0.4782609
vt 0.9333333 0.3913044
vt 0.9666666 0.3913044
vt 0.5666667 0.3478261
vt 0.6 0.3478261
vt 0.6 0.3913044
vt 0.5666667 0.3913044
vt 0.6333333 0.3478261
vt 0.6333333 0.3913044
vt 0.6333333 0.1739131
vt 0.6666667 0.1739131
vt 0.6666667 0.2173913
vt 0.6333333 0.2173913
vt 0.9333333 0.0869565
vt 0.9666666 0.0869565
vt 0.9666666 0.1304348
vt 0.9333333 0.1304348
vt 0.9333333 0.04347825
vt 0.9666666 0.04347825
vt 0.9 0.0869565
vt 0.9 0.1304348
vt 0.9666666 0.1739131
vt 0.9333333 0.1739131
vt 0.9 0.04347825

# Normal
vn 0 0 -1

# Mesh description
g mapa8_lvl2_mesh_0003

# Faces
f 1/1/1 2/2/1 3/3/1 4/4/1
f 5/2/1 6/5/1 7/6/1 8/3/1
f 9/5/1 10/7/1 11/8/1 12/6/1
f 13/7/1 14/9/1 15/10/1 16/8/1
f 17/11/1 18/12/1 19/2/1 20/1/1
f 21/12/1 22/13/1 23/5/1 24/2/1
f 25/13/1 26/14/1 27/7/1 28/5/1
f 29/14/1 30/15/1 31/9/1 32/7/1
f 33/16/1 34/17/1 35/18/1 36/19/1
f 37/16/1 38/17/1 39/18/1 40/19/1
f 41/20/1 42/21/1 43/17/1 44/16/1
f 45/20/1 46/21/1 47/17/1 48/16/1
f 49/22/1 50/23/1 51/24/1 52/25/1
f 53/23/1 54/26/1 55/27/1 56/24/1
f 57/28/1 58/29/1 59/30/1 60/31/1
f 61/32/1 62/33/1 63/34/1 64/35/1
f 65/36/1 66/37/1 67/33/1 68/32/1
f 69/38/1 70/32/1 71/35/1 72/39/1
f 73/35/1 74/34/1 75/40/1 76/41/1
f 77/42/1 78/36/1 79/32/1 80/38/1

