# Tiled2Unity generated file. Do not modify by hand.
# Wavefront file for 'Mapa_mesh_0005.obj'

# Vertices (Count = 168)
v -12 -2 0
v -13 -2 0
v -13 -1 0
v -12 -1 0
v -13 -2 0
v -14 -2 0
v -14 -1 0
v -13 -1 0
v -14 -2 0
v -15 -2 0
v -15 -1 0
v -14 -1 0
v -15 -2 0
v -16 -2 0
v -16 -1 0
v -15 -1 0
v -9 -3 0
v -10 -3 0
v -10 -2 0
v -9 -2 0
v -10 -3 0
v -11 -3 0
v -11 -2 0
v -10 -2 0
v -11 -3 0
v -12 -3 0
v -12 -2 0
v -11 -2 0
v -12 -3 0
v -13 -3 0
v -13 -2 0
v -12 -2 0
v -13 -3 0
v -14 -3 0
v -14 -2 0
v -13 -2 0
v -14 -3 0
v -15 -3 0
v -15 -2 0
v -14 -2 0
v -15 -3 0
v -16 -3 0
v -16 -2 0
v -15 -2 0
v -9 -4 0
v -10 -4 0
v -10 -3 0
v -9 -3 0
v -10 -4 0
v -11 -4 0
v -11 -3 0
v -10 -3 0
v -11 -4 0
v -12 -4 0
v -12 -3 0
v -11 -3 0
v -12 -4 0
v -13 -4 0
v -13 -3 0
v -12 -3 0
v -13 -4 0
v -14 -4 0
v -14 -3 0
v -13 -3 0
v -14 -4 0
v -15 -4 0
v -15 -3 0
v -14 -3 0
v -15 -4 0
v -16 -4 0
v -16 -3 0
v -15 -3 0
v -9 -5 0
v -10 -5 0
v -10 -4 0
v -9 -4 0
v -10 -5 0
v -11 -5 0
v -11 -4 0
v -10 -4 0
v -11 -5 0
v -12 -5 0
v -12 -4 0
v -11 -4 0
v -12 -5 0
v -13 -5 0
v -13 -4 0
v -12 -4 0
v -13 -5 0
v -14 -5 0
v -14 -4 0
v -13 -4 0
v -14 -5 0
v -15 -5 0
v -15 -4 0
v -14 -4 0
v -15 -5 0
v -16 -5 0
v -16 -4 0
v -15 -4 0
v -13 -6 0
v -14 -6 0
v -14 -5 0
v -13 -5 0
v -14 -6 0
v -15 -6 0
v -15 -5 0
v -14 -5 0
v -15 -6 0
v -16 -6 0
v -16 -5 0
v -15 -5 0
v -6 -8 0
v -7 -8 0
v -7 -7 0
v -6 -7 0
v -12 -8 0
v -13 -8 0
v -13 -7 0
v -12 -7 0
v -2 -13 0
v -3 -13 0
v -3 -12 0
v -2 -12 0
v -3 -13 0
v -4 -13 0
v -4 -12 0
v -3 -12 0
v -16 -13 0
v -17 -13 0
v -17 -12 0
v -16 -12 0
v -17 -13 0
v -18 -13 0
v -18 -12 0
v -17 -12 0
v -2 -14 0
v -3 -14 0
v -3 -13 0
v -2 -13 0
v -3 -14 0
v -4 -14 0
v -4 -13 0
v -3 -13 0
v -16 -14 0
v -17 -14 0
v -17 -13 0
v -16 -13 0
v -17 -14 0
v -18 -14 0
v -18 -13 0
v -17 -13 0
v -13 -15 0
v -14 -15 0
v -14 -14 0
v -13 -14 0
v -5 -16 0
v -6 -16 0
v -6 -15 0
v -5 -15 0
v -15 -18 0
v -16 -18 0
v -16 -17 0
v -15 -17 0
v -4 -19 0
v -5 -19 0
v -5 -18 0
v -4 -18 0

# Texture cooridinates (Count = 53)
vt 0 0.1666667
vt 0.025 0.1666667
vt 0.025 0.1944444
vt 0 0.1944444
vt 0.05 0.1666667
vt 0.05 0.1944444
vt 0.075 0.1666667
vt 0.075 0.1944444
vt 0.025 0.05555558
vt 0.05 0.05555558
vt 0.05 0.08333331
vt 0.025 0.08333331
vt 0.025 0
vt 0.05 0
vt 0.05 0.02777779
vt 0.025 0.02777779
vt 0.05 0.1388889
vt 0.075 0.1388889
vt 0 0.1388889
vt 0.025 0.1388889
vt 0 0
vt 0 0.02777779
vt 0 0.1111111
vt 0.025 0.1111111
vt 0.05 0.1111111
vt 0 0.05555558
vt 0.075 0.1111111
vt 0.05 0.6388889
vt 0.075 0.6388889
vt 0.075 0.6666666
vt 0.05 0.6666666
vt 0.1 0.6666666
vt 0.1 0.6944444
vt 0.075 0.6944444
vt 0.1 0.9444444
vt 0.125 0.9444444
vt 0.125 0.9722222
vt 0.1 0.9722222
vt 0.15 0.9444444
vt 0.15 0.9722222
vt 0.225 0.6666666
vt 0.25 0.6666666
vt 0.25 0.6944444
vt 0.225 0.6944444
vt 0.275 0.6666666
vt 0.275 0.6944444
vt 0.1 0.9166667
vt 0.125 0.9166667
vt 0.15 0.9166667
vt 0.225 0.6388889
vt 0.25 0.6388889
vt 0.275 0.6388889
vt 0.1 0.6388889

# Normal
vn 0 0 -1

# Mesh description
g Mapa_mesh_0005

# Faces
f 1/1/1 2/2/1 3/3/1 4/4/1
f 5/2/1 6/5/1 7/6/1 8/3/1
f 9/2/1 10/5/1 11/6/1 12/3/1
f 13/5/1 14/7/1 15/8/1 16/6/1
f 17/1/1 18/2/1 19/3/1 20/4/1
f 21/2/1 22/5/1 23/6/1 24/3/1
f 25/2/1 26/5/1 27/6/1 28/3/1
f 29/9/1 30/10/1 31/11/1 32/12/1
f 33/13/1 34/14/1 35/15/1 36/16/1
f 37/13/1 38/14/1 39/15/1 40/16/1
f 41/17/1 42/18/1 43/7/1 44/5/1
f 45/19/1 46/20/1 47/2/1 48/1/1
f 49/16/1 50/15/1 51/10/1 52/9/1
f 53/16/1 54/15/1 55/10/1 56/9/1
f 57/13/1 58/14/1 59/15/1 60/16/1
f 61/21/1 62/13/1 63/16/1 64/22/1
f 65/13/1 66/14/1 67/15/1 68/16/1
f 69/17/1 70/18/1 71/7/1 72/5/1
f 73/23/1 74/24/1 75/20/1 76/19/1
f 77/24/1 78/25/1 79/17/1 80/20/1
f 81/24/1 82/25/1 83/17/1 84/20/1
f 85/12/1 86/11/1 87/25/1 88/24/1
f 89/21/1 90/13/1 91/16/1 92/22/1
f 93/22/1 94/16/1 95/9/1 96/26/1
f 97/17/1 98/18/1 99/7/1 100/5/1
f 101/24/1 102/25/1 103/17/1 104/20/1
f 105/24/1 106/25/1 107/17/1 108/20/1
f 109/25/1 110/27/1 111/18/1 112/17/1
f 113/28/1 114/29/1 115/30/1 116/31/1
f 117/30/1 118/32/1 119/33/1 120/34/1
f 121/35/1 122/36/1 123/37/1 124/38/1
f 125/36/1 126/39/1 127/40/1 128/37/1
f 129/41/1 130/42/1 131/43/1 132/44/1
f 133/42/1 134/45/1 135/46/1 136/43/1
f 137/47/1 138/48/1 139/36/1 140/35/1
f 141/48/1 142/49/1 143/39/1 144/36/1
f 145/50/1 146/51/1 147/42/1 148/41/1
f 149/51/1 150/52/1 151/45/1 152/42/1
f 153/29/1 154/53/1 155/32/1 156/30/1
f 157/29/1 158/53/1 159/32/1 160/30/1
f 161/28/1 162/29/1 163/30/1 164/31/1
f 165/28/1 166/29/1 167/30/1 168/31/1

