# Tiled2Unity generated file. Do not modify by hand.
# Wavefront file for 'Mapa_mesh_0002.obj'

# Vertices (Count = 388)
v -5 -6 0
v -6 -6 0
v -6 -5 0
v -5 -5 0
v -6 -6 0
v -7 -6 0
v -7 -5 0
v -6 -5 0
v -7 -6 0
v -8 -6 0
v -8 -5 0
v -7 -5 0
v -11 -6 0
v -12 -6 0
v -12 -5 0
v -11 -5 0
v -12 -6 0
v -13 -6 0
v -13 -5 0
v -12 -5 0
v -5 -7 0
v -6 -7 0
v -6 -6 0
v -5 -6 0
v -6 -7 0
v -7 -7 0
v -7 -6 0
v -6 -6 0
v -7 -7 0
v -8 -7 0
v -8 -6 0
v -7 -6 0
v -11 -7 0
v -12 -7 0
v -12 -6 0
v -11 -6 0
v -12 -7 0
v -13 -7 0
v -13 -6 0
v -12 -6 0
v -13 -7 0
v -14 -7 0
v -14 -6 0
v -13 -6 0
v -14 -7 0
v -15 -7 0
v -15 -6 0
v -14 -6 0
v -5 -8 0
v -6 -8 0
v -6 -7 0
v -5 -7 0
v -6 -8 0
v -7 -8 0
v -7 -7 0
v -6 -7 0
v -7 -8 0
v -8 -8 0
v -8 -7 0
v -7 -7 0
v -8 -8 0
v -9 -8 0
v -9 -7 0
v -8 -7 0
v -11 -8 0
v -12 -8 0
v -12 -7 0
v -11 -7 0
v -12 -8 0
v -13 -8 0
v -13 -7 0
v -12 -7 0
v -13 -8 0
v -14 -8 0
v -14 -7 0
v -13 -7 0
v -14 -8 0
v -15 -8 0
v -15 -7 0
v -14 -7 0
v -4 -9 0
v -5 -9 0
v -5 -8 0
v -4 -8 0
v -5 -9 0
v -6 -9 0
v -6 -8 0
v -5 -8 0
v -6 -9 0
v -7 -9 0
v -7 -8 0
v -6 -8 0
v -7 -9 0
v -8 -9 0
v -8 -8 0
v -7 -8 0
v -8 -9 0
v -9 -9 0
v -9 -8 0
v -8 -8 0
v -11 -9 0
v -12 -9 0
v -12 -8 0
v -11 -8 0
v -12 -9 0
v -13 -9 0
v -13 -8 0
v -12 -8 0
v -13 -9 0
v -14 -9 0
v -14 -8 0
v -13 -8 0
v -4 -10 0
v -5 -10 0
v -5 -9 0
v -4 -9 0
v -5 -10 0
v -6 -10 0
v -6 -9 0
v -5 -9 0
v -6 -10 0
v -7 -10 0
v -7 -9 0
v -6 -9 0
v -7 -10 0
v -8 -10 0
v -8 -9 0
v -7 -9 0
v -12 -13 0
v -13 -13 0
v -13 -12 0
v -12 -12 0
v -13 -13 0
v -14 -13 0
v -14 -12 0
v -13 -12 0
v -6 -14 0
v -7 -14 0
v -7 -13 0
v -6 -13 0
v -7 -14 0
v -8 -14 0
v -8 -13 0
v -7 -13 0
v -8 -14 0
v -9 -14 0
v -9 -13 0
v -8 -13 0
v -9 -14 0
v -10 -14 0
v -10 -13 0
v -9 -13 0
v -11 -14 0
v -12 -14 0
v -12 -13 0
v -11 -13 0
v -12 -14 0
v -13 -14 0
v -13 -13 0
v -12 -13 0
v -13 -14 0
v -14 -14 0
v -14 -13 0
v -13 -13 0
v -14 -14 0
v -15 -14 0
v -15 -13 0
v -14 -13 0
v -15 -14 0
v -16 -14 0
v -16 -13 0
v -15 -13 0
v -4 -15 0
v -5 -15 0
v -5 -14 0
v -4 -14 0
v -5 -15 0
v -6 -15 0
v -6 -14 0
v -5 -14 0
v -6 -15 0
v -7 -15 0
v -7 -14 0
v -6 -14 0
v -7 -15 0
v -8 -15 0
v -8 -14 0
v -7 -14 0
v -8 -15 0
v -9 -15 0
v -9 -14 0
v -8 -14 0
v -9 -15 0
v -10 -15 0
v -10 -14 0
v -9 -14 0
v -11 -15 0
v -12 -15 0
v -12 -14 0
v -11 -14 0
v -12 -15 0
v -13 -15 0
v -13 -14 0
v -12 -14 0
v -13 -15 0
v -14 -15 0
v -14 -14 0
v -13 -14 0
v -14 -15 0
v -15 -15 0
v -15 -14 0
v -14 -14 0
v -15 -15 0
v -16 -15 0
v -16 -14 0
v -15 -14 0
v -16 -15 0
v -17 -15 0
v -17 -14 0
v -16 -14 0
v -3 -16 0
v -4 -16 0
v -4 -15 0
v -3 -15 0
v -4 -16 0
v -5 -16 0
v -5 -15 0
v -4 -15 0
v -5 -16 0
v -6 -16 0
v -6 -15 0
v -5 -15 0
v -6 -16 0
v -7 -16 0
v -7 -15 0
v -6 -15 0
v -7 -16 0
v -8 -16 0
v -8 -15 0
v -7 -15 0
v -12 -16 0
v -13 -16 0
v -13 -15 0
v -12 -15 0
v -13 -16 0
v -14 -16 0
v -14 -15 0
v -13 -15 0
v -14 -16 0
v -15 -16 0
v -15 -15 0
v -14 -15 0
v -15 -16 0
v -16 -16 0
v -16 -15 0
v -15 -15 0
v -16 -16 0
v -17 -16 0
v -17 -15 0
v -16 -15 0
v -3 -17 0
v -4 -17 0
v -4 -16 0
v -3 -16 0
v -4 -17 0
v -5 -17 0
v -5 -16 0
v -4 -16 0
v -5 -17 0
v -6 -17 0
v -6 -16 0
v -5 -16 0
v -6 -17 0
v -7 -17 0
v -7 -16 0
v -6 -16 0
v -13 -17 0
v -14 -17 0
v -14 -16 0
v -13 -16 0
v -14 -17 0
v -15 -17 0
v -15 -16 0
v -14 -16 0
v -15 -17 0
v -16 -17 0
v -16 -16 0
v -15 -16 0
v -16 -17 0
v -17 -17 0
v -17 -16 0
v -16 -16 0
v -17 -17 0
v -18 -17 0
v -18 -16 0
v -17 -16 0
v -2 -18 0
v -3 -18 0
v -3 -17 0
v -2 -17 0
v -3 -18 0
v -4 -18 0
v -4 -17 0
v -3 -17 0
v -4 -18 0
v -5 -18 0
v -5 -17 0
v -4 -17 0
v -5 -18 0
v -6 -18 0
v -6 -17 0
v -5 -17 0
v -6 -18 0
v -7 -18 0
v -7 -17 0
v -6 -17 0
v -13 -18 0
v -14 -18 0
v -14 -17 0
v -13 -17 0
v -14 -18 0
v -15 -18 0
v -15 -17 0
v -14 -17 0
v -15 -18 0
v -16 -18 0
v -16 -17 0
v -15 -17 0
v -16 -18 0
v -17 -18 0
v -17 -17 0
v -16 -17 0
v -17 -18 0
v -18 -18 0
v -18 -17 0
v -17 -17 0
v -2 -19 0
v -3 -19 0
v -3 -18 0
v -2 -18 0
v -3 -19 0
v -4 -19 0
v -4 -18 0
v -3 -18 0
v -4 -19 0
v -5 -19 0
v -5 -18 0
v -4 -18 0
v -5 -19 0
v -6 -19 0
v -6 -18 0
v -5 -18 0
v -14 -19 0
v -15 -19 0
v -15 -18 0
v -14 -18 0
v -15 -19 0
v -16 -19 0
v -16 -18 0
v -15 -18 0
v -16 -19 0
v -17 -19 0
v -17 -18 0
v -16 -18 0
v -3 -20 0
v -4 -20 0
v -4 -19 0
v -3 -19 0
v -4 -20 0
v -5 -20 0
v -5 -19 0
v -4 -19 0
v -5 -20 0
v -6 -20 0
v -6 -19 0
v -5 -19 0
v -14 -20 0
v -15 -20 0
v -15 -19 0
v -14 -19 0
v -15 -20 0
v -16 -20 0
v -16 -19 0
v -15 -19 0
v -16 -20 0
v -17 -20 0
v -17 -19 0
v -16 -19 0

# Texture cooridinates (Count = 27)
vt 0.35 0.1388889
vt 0.375 0.1388889
vt 0.375 0.1666667
vt 0.35 0.1666667
vt 0.4 0.1388889
vt 0.4 0.1666667
vt 0.425 0.1388889
vt 0.425 0.1666667
vt 0.375 0.1944444
vt 0.35 0.1944444
vt 0.425 0.1944444
vt 0.4 0.1944444
vt 0.45 0.1666667
vt 0.45 0.1944444
vt 0.35 0.05555558
vt 0.375 0.05555558
vt 0.375 0.08333331
vt 0.35 0.08333331
vt 0.375 0.1111111
vt 0.35 0.1111111
vt 0.4 0.1111111
vt 0.425 0.1111111
vt 0.4 0.05555558
vt 0.4 0.08333331
vt 0.475 0.1666667
vt 0.475 0.1944444
vt 0.45 0.1388889

# Normal
vn 0 0 -1

# Mesh description
g Mapa_mesh_0002

# Faces
f 1/1/1 2/2/1 3/3/1 4/4/1
f 5/2/1 6/5/1 7/6/1 8/3/1
f 9/5/1 10/7/1 11/8/1 12/6/1
f 13/4/1 14/3/1 15/9/1 16/10/1
f 17/6/1 18/8/1 19/11/1 20/12/1
f 21/1/1 22/2/1 23/3/1 24/4/1
f 25/8/1 26/13/1 27/14/1 28/11/1
f 29/5/1 30/7/1 31/8/1 32/6/1
f 33/1/1 34/2/1 35/3/1 36/4/1
f 37/15/1 38/16/1 39/17/1 40/18/1
f 41/3/1 42/6/1 43/12/1 44/9/1
f 45/6/1 46/8/1 47/11/1 48/12/1
f 49/1/1 50/2/1 51/3/1 52/4/1
f 53/2/1 54/5/1 55/6/1 56/3/1
f 57/15/1 58/16/1 59/17/1 60/18/1
f 61/6/1 62/8/1 63/11/1 64/12/1
f 65/1/1 66/2/1 67/3/1 68/4/1
f 69/2/1 70/5/1 71/6/1 72/3/1
f 73/18/1 74/17/1 75/19/1 76/20/1
f 77/21/1 78/22/1 79/7/1 80/5/1
f 81/4/1 82/3/1 83/9/1 84/10/1
f 85/16/1 86/23/1 87/24/1 88/17/1
f 89/13/1 90/25/1 91/26/1 92/14/1
f 93/18/1 94/17/1 95/19/1 96/20/1
f 97/21/1 98/22/1 99/7/1 100/5/1
f 101/20/1 102/19/1 103/2/1 104/1/1
f 105/19/1 106/21/1 107/5/1 108/2/1
f 109/21/1 110/22/1 111/7/1 112/5/1
f 113/20/1 114/19/1 115/2/1 116/1/1
f 117/19/1 118/21/1 119/5/1 120/2/1
f 121/19/1 122/21/1 123/5/1 124/2/1
f 125/21/1 126/22/1 127/7/1 128/5/1
f 129/4/1 130/3/1 131/9/1 132/10/1
f 133/6/1 134/8/1 135/11/1 136/12/1
f 137/4/1 138/3/1 139/9/1 140/10/1
f 141/3/1 142/6/1 143/12/1 144/9/1
f 145/3/1 146/6/1 147/12/1 148/9/1
f 149/6/1 150/8/1 151/11/1 152/12/1
f 153/4/1 154/3/1 155/9/1 156/10/1
f 157/16/1 158/23/1 159/24/1 160/17/1
f 161/15/1 162/16/1 163/17/1 164/18/1
f 165/3/1 166/6/1 167/12/1 168/9/1
f 169/6/1 170/8/1 171/11/1 172/12/1
f 173/4/1 174/3/1 175/9/1 176/10/1
f 177/3/1 178/6/1 179/12/1 180/9/1
f 181/16/1 182/23/1 183/24/1 184/17/1
f 185/18/1 186/17/1 187/19/1 188/20/1
f 189/19/1 190/21/1 191/5/1 192/2/1
f 193/21/1 194/22/1 195/7/1 196/5/1
f 197/20/1 198/19/1 199/2/1 200/1/1
f 201/17/1 202/24/1 203/21/1 204/19/1
f 205/2/1 206/5/1 207/6/1 208/3/1
f 209/2/1 210/5/1 211/6/1 212/3/1
f 213/15/1 214/16/1 215/17/1 216/18/1
f 217/6/1 218/8/1 219/11/1 220/12/1
f 221/4/1 222/3/1 223/9/1 224/10/1
f 225/16/1 226/23/1 227/24/1 228/17/1
f 229/2/1 230/5/1 231/6/1 232/3/1
f 233/18/1 234/17/1 235/19/1 236/20/1
f 237/21/1 238/22/1 239/7/1 240/5/1
f 241/20/1 242/19/1 243/2/1 244/1/1
f 245/17/1 246/24/1 247/21/1 248/19/1
f 249/8/1 250/13/1 251/14/1 252/11/1
f 253/2/1 254/5/1 255/6/1 256/3/1
f 257/5/1 258/7/1 259/8/1 260/6/1
f 261/1/1 262/2/1 263/3/1 264/4/1
f 265/8/1 266/13/1 267/14/1 268/11/1
f 269/2/1 270/5/1 271/6/1 272/3/1
f 273/5/1 274/7/1 275/8/1 276/6/1
f 277/1/1 278/2/1 279/3/1 280/4/1
f 281/2/1 282/5/1 283/6/1 284/3/1
f 285/7/1 286/27/1 287/13/1 288/8/1
f 289/15/1 290/16/1 291/17/1 292/18/1
f 293/6/1 294/8/1 295/11/1 296/12/1
f 297/4/1 298/3/1 299/9/1 300/10/1
f 301/16/1 302/23/1 303/24/1 304/17/1
f 305/2/1 306/5/1 307/6/1 308/3/1
f 309/18/1 310/17/1 311/19/1 312/20/1
f 313/21/1 314/22/1 315/7/1 316/5/1
f 317/20/1 318/19/1 319/2/1 320/1/1
f 321/17/1 322/24/1 323/21/1 324/19/1
f 325/2/1 326/5/1 327/6/1 328/3/1
f 329/18/1 330/17/1 331/19/1 332/20/1
f 333/21/1 334/22/1 335/7/1 336/5/1
f 337/20/1 338/19/1 339/2/1 340/1/1
f 341/17/1 342/24/1 343/21/1 344/19/1
f 345/2/1 346/5/1 347/6/1 348/3/1
f 349/5/1 350/7/1 351/8/1 352/6/1
f 353/1/1 354/2/1 355/3/1 356/4/1
f 357/13/1 358/25/1 359/26/1 360/14/1
f 361/5/1 362/7/1 363/8/1 364/6/1
f 365/1/1 366/2/1 367/3/1 368/4/1
f 369/7/1 370/27/1 371/13/1 372/8/1
f 373/5/1 374/7/1 375/8/1 376/6/1
f 377/1/1 378/2/1 379/3/1 380/4/1
f 381/2/1 382/5/1 383/6/1 384/3/1
f 385/5/1 386/7/1 387/8/1 388/6/1

