# Tiled2Unity generated file. Do not modify by hand.
# Wavefront file for 'mapa2_mesh_0002.obj'

# Vertices (Count = 244)
v -1 -2 0
v -2 -2 0
v -2 -1 0
v -1 -1 0
v -2 -2 0
v -3 -2 0
v -3 -1 0
v -2 -1 0
v -3 -2 0
v -4 -2 0
v -4 -1 0
v -3 -1 0
v -4 -2 0
v -5 -2 0
v -5 -1 0
v -4 -1 0
v -5 -2 0
v -6 -2 0
v -6 -1 0
v -5 -1 0
v -6 -2 0
v -7 -2 0
v -7 -1 0
v -6 -1 0
v -7 -2 0
v -8 -2 0
v -8 -1 0
v -7 -1 0
v -8 -2 0
v -9 -2 0
v -9 -1 0
v -8 -1 0
v -1 -3 0
v -2 -3 0
v -2 -2 0
v -1 -2 0
v -2 -3 0
v -3 -3 0
v -3 -2 0
v -2 -2 0
v -3 -3 0
v -4 -3 0
v -4 -2 0
v -3 -2 0
v -4 -3 0
v -5 -3 0
v -5 -2 0
v -4 -2 0
v -5 -3 0
v -6 -3 0
v -6 -2 0
v -5 -2 0
v -6 -3 0
v -7 -3 0
v -7 -2 0
v -6 -2 0
v -7 -3 0
v -8 -3 0
v -8 -2 0
v -7 -2 0
v -8 -3 0
v -9 -3 0
v -9 -2 0
v -8 -2 0
v -1 -4 0
v -2 -4 0
v -2 -3 0
v -1 -3 0
v -2 -4 0
v -3 -4 0
v -3 -3 0
v -2 -3 0
v -3 -4 0
v -4 -4 0
v -4 -3 0
v -3 -3 0
v -4 -4 0
v -5 -4 0
v -5 -3 0
v -4 -3 0
v -5 -4 0
v -6 -4 0
v -6 -3 0
v -5 -3 0
v -6 -4 0
v -7 -4 0
v -7 -3 0
v -6 -3 0
v -7 -4 0
v -8 -4 0
v -8 -3 0
v -7 -3 0
v -8 -4 0
v -9 -4 0
v -9 -3 0
v -8 -3 0
v -1 -5 0
v -2 -5 0
v -2 -4 0
v -1 -4 0
v -2 -5 0
v -3 -5 0
v -3 -4 0
v -2 -4 0
v -3 -5 0
v -4 -5 0
v -4 -4 0
v -3 -4 0
v -6 -5 0
v -7 -5 0
v -7 -4 0
v -6 -4 0
v -7 -5 0
v -8 -5 0
v -8 -4 0
v -7 -4 0
v -8 -5 0
v -9 -5 0
v -9 -4 0
v -8 -4 0
v -2 -6 0
v -3 -6 0
v -3 -5 0
v -2 -5 0
v -3 -6 0
v -4 -6 0
v -4 -5 0
v -3 -5 0
v -4 -6 0
v -5 -6 0
v -5 -5 0
v -4 -5 0
v -5 -6 0
v -6 -6 0
v -6 -5 0
v -5 -5 0
v -6 -6 0
v -7 -6 0
v -7 -5 0
v -6 -5 0
v -7 -6 0
v -8 -6 0
v -8 -5 0
v -7 -5 0
v -8 -6 0
v -9 -6 0
v -9 -5 0
v -8 -5 0
v -1 -7 0
v -2 -7 0
v -2 -6 0
v -1 -6 0
v -2 -7 0
v -3 -7 0
v -3 -6 0
v -2 -6 0
v -4 -7 0
v -5 -7 0
v -5 -6 0
v -4 -6 0
v -5 -7 0
v -6 -7 0
v -6 -6 0
v -5 -6 0
v -6 -7 0
v -7 -7 0
v -7 -6 0
v -6 -6 0
v -7 -7 0
v -8 -7 0
v -8 -6 0
v -7 -6 0
v -8 -7 0
v -9 -7 0
v -9 -6 0
v -8 -6 0
v -2 -8 0
v -3 -8 0
v -3 -7 0
v -2 -7 0
v -3 -8 0
v -4 -8 0
v -4 -7 0
v -3 -7 0
v -4 -8 0
v -5 -8 0
v -5 -7 0
v -4 -7 0
v -5 -8 0
v -6 -8 0
v -6 -7 0
v -5 -7 0
v -6 -8 0
v -7 -8 0
v -7 -7 0
v -6 -7 0
v -7 -8 0
v -8 -8 0
v -8 -7 0
v -7 -7 0
v -8 -8 0
v -9 -8 0
v -9 -7 0
v -8 -7 0
v -1 -9 0
v -2 -9 0
v -2 -8 0
v -1 -8 0
v -2 -9 0
v -3 -9 0
v -3 -8 0
v -2 -8 0
v -3 -9 0
v -4 -9 0
v -4 -8 0
v -3 -8 0
v -4 -9 0
v -5 -9 0
v -5 -8 0
v -4 -8 0
v -5 -9 0
v -6 -9 0
v -6 -8 0
v -5 -8 0
v -6 -9 0
v -7 -9 0
v -7 -8 0
v -6 -8 0
v -3 -10 0
v -4 -10 0
v -4 -9 0
v -3 -9 0
v -4 -10 0
v -5 -10 0
v -5 -9 0
v -4 -9 0
v -5 -10 0
v -6 -10 0
v -6 -9 0
v -5 -9 0
v -6 -10 0
v -7 -10 0
v -7 -9 0
v -6 -9 0

# Texture cooridinates (Count = 46)
vt 0 0.9130435
vt 0.03333334 0.9130435
vt 0.03333334 0.9565217
vt 0 0.9565217
vt 0.1 0.9130435
vt 0.1333333 0.9130435
vt 0.1333333 0.9565217
vt 0.1 0.9565217
vt 0 0.8695652
vt 0.03333334 0.8695652
vt 0.06666667 0.8695652
vt 0.06666667 0.9130435
vt 0.1 0.8695652
vt 0.1333333 0.8695652
vt 0.06666667 0.9565217
vt 0.1 1
vt 0.06666667 1
vt 0.3333333 0.9565217
vt 0.3666667 0.9565217
vt 0.3666667 1
vt 0.3333333 1
vt 0.4 0.9565217
vt 0.4 1
vt 0.4333333 0.9565217
vt 0.4333333 1
vt 0.3333333 0.9130435
vt 0.3666667 0.9130435
vt 0.4 0.9130435
vt 0.4333333 0.9130435
vt 0.03333334 1
vt 0.3333333 0.8695652
vt 0.3666667 0.8695652
vt 0.4 0.8695652
vt 0.4333333 0.8695652
vt 0.1666667 0.9565217
vt 0.2 0.9565217
vt 0.2 1
vt 0.1666667 1
vt 0.2333333 0.9565217
vt 0.2333333 1
vt 0.2666667 0.9565217
vt 0.2666667 1
vt 0.1666667 0.9130435
vt 0.2 0.9130435
vt 0.2333333 0.9130435
vt 0.2666667 0.9130435

# Normal
vn 0 0 -1

# Mesh description
g mapa2_mesh_0002

# Faces
f 1/1/1 2/2/1 3/3/1 4/4/1
f 5/5/1 6/6/1 7/7/1 8/8/1
f 9/9/1 10/10/1 11/2/1 12/1/1
f 13/10/1 14/11/1 15/12/1 16/2/1
f 17/11/1 18/13/1 19/5/1 20/12/1
f 21/13/1 22/14/1 23/6/1 24/5/1
f 25/5/1 26/6/1 27/7/1 28/8/1
f 29/5/1 30/6/1 31/7/1 32/8/1
f 33/10/1 34/11/1 35/12/1 36/2/1
f 37/15/1 38/8/1 39/16/1 40/17/1
f 41/1/1 42/2/1 43/3/1 44/4/1
f 45/2/1 46/12/1 47/15/1 48/3/1
f 49/1/1 50/2/1 51/3/1 52/4/1
f 53/2/1 54/12/1 55/15/1 56/3/1
f 57/13/1 58/14/1 59/6/1 60/5/1
f 61/5/1 62/6/1 63/7/1 64/8/1
f 65/1/1 66/2/1 67/3/1 68/4/1
f 69/5/1 70/6/1 71/7/1 72/8/1
f 73/18/1 74/19/1 75/20/1 76/21/1
f 77/19/1 78/22/1 79/23/1 80/20/1
f 81/19/1 82/22/1 83/23/1 84/20/1
f 85/22/1 86/24/1 87/25/1 88/23/1
f 89/1/1 90/2/1 91/3/1 92/4/1
f 93/2/1 94/12/1 95/15/1 96/3/1
f 97/1/1 98/2/1 99/3/1 100/4/1
f 101/2/1 102/12/1 103/15/1 104/3/1
f 105/26/1 106/27/1 107/19/1 108/18/1
f 109/28/1 110/29/1 111/24/1 112/22/1
f 113/3/1 114/15/1 115/17/1 116/30/1
f 117/15/1 118/8/1 119/16/1 120/17/1
f 121/3/1 122/15/1 123/17/1 124/30/1
f 125/31/1 126/32/1 127/27/1 128/26/1
f 129/32/1 130/33/1 131/28/1 132/27/1
f 133/32/1 134/33/1 135/28/1 136/27/1
f 137/33/1 138/34/1 139/29/1 140/28/1
f 141/12/1 142/5/1 143/8/1 144/15/1
f 145/12/1 146/5/1 147/8/1 148/15/1
f 149/1/1 150/2/1 151/3/1 152/4/1
f 153/2/1 154/12/1 155/15/1 156/3/1
f 157/3/1 158/15/1 159/17/1 160/30/1
f 161/1/1 162/2/1 163/3/1 164/4/1
f 165/1/1 166/2/1 167/3/1 168/4/1
f 169/10/1 170/11/1 171/12/1 172/2/1
f 173/11/1 174/13/1 175/5/1 176/12/1
f 177/3/1 178/15/1 179/17/1 180/30/1
f 181/12/1 182/5/1 183/8/1 184/15/1
f 185/5/1 186/6/1 187/7/1 188/8/1
f 189/9/1 190/10/1 191/2/1 192/1/1
f 193/9/1 194/10/1 195/2/1 196/1/1
f 197/5/1 198/6/1 199/7/1 200/8/1
f 201/12/1 202/5/1 203/8/1 204/15/1
f 205/1/1 206/2/1 207/3/1 208/4/1
f 209/2/1 210/12/1 211/15/1 212/3/1
f 213/35/1 214/36/1 215/37/1 216/38/1
f 217/36/1 218/39/1 219/40/1 220/37/1
f 221/36/1 222/39/1 223/40/1 224/37/1
f 225/39/1 226/41/1 227/42/1 228/40/1
f 229/43/1 230/44/1 231/36/1 232/35/1
f 233/44/1 234/45/1 235/39/1 236/36/1
f 237/44/1 238/45/1 239/39/1 240/36/1
f 241/45/1 242/46/1 243/41/1 244/39/1

