# Tiled2Unity generated file. Do not modify by hand.
# Wavefront file for 'BossRoom_mesh_0002.obj'

# Vertices (Count = 260)
v -1 -2 0
v -2 -2 0
v -2 -1 0
v -1 -1 0
v -2 -2 0
v -3 -2 0
v -3 -1 0
v -2 -1 0
v -3 -2 0
v -4 -2 0
v -4 -1 0
v -3 -1 0
v -4 -2 0
v -5 -2 0
v -5 -1 0
v -4 -1 0
v -5 -2 0
v -6 -2 0
v -6 -1 0
v -5 -1 0
v -6 -2 0
v -7 -2 0
v -7 -1 0
v -6 -1 0
v -7 -2 0
v -8 -2 0
v -8 -1 0
v -7 -1 0
v -8 -2 0
v -9 -2 0
v -9 -1 0
v -8 -1 0
v -1 -3 0
v -2 -3 0
v -2 -2 0
v -1 -2 0
v -2 -3 0
v -3 -3 0
v -3 -2 0
v -2 -2 0
v -3 -3 0
v -4 -3 0
v -4 -2 0
v -3 -2 0
v -4 -3 0
v -5 -3 0
v -5 -2 0
v -4 -2 0
v -5 -3 0
v -6 -3 0
v -6 -2 0
v -5 -2 0
v -6 -3 0
v -7 -3 0
v -7 -2 0
v -6 -2 0
v -7 -3 0
v -8 -3 0
v -8 -2 0
v -7 -2 0
v -8 -3 0
v -9 -3 0
v -9 -2 0
v -8 -2 0
v -1 -4 0
v -2 -4 0
v -2 -3 0
v -1 -3 0
v -2 -4 0
v -3 -4 0
v -3 -3 0
v -2 -3 0
v -3 -4 0
v -4 -4 0
v -4 -3 0
v -3 -3 0
v -4 -4 0
v -5 -4 0
v -5 -3 0
v -4 -3 0
v -5 -4 0
v -6 -4 0
v -6 -3 0
v -5 -3 0
v -6 -4 0
v -7 -4 0
v -7 -3 0
v -6 -3 0
v -7 -4 0
v -8 -4 0
v -8 -3 0
v -7 -3 0
v -8 -4 0
v -9 -4 0
v -9 -3 0
v -8 -3 0
v -1 -5 0
v -2 -5 0
v -2 -4 0
v -1 -4 0
v -2 -5 0
v -3 -5 0
v -3 -4 0
v -2 -4 0
v -3 -5 0
v -4 -5 0
v -4 -4 0
v -3 -4 0
v -4 -5 0
v -5 -5 0
v -5 -4 0
v -4 -4 0
v -5 -5 0
v -6 -5 0
v -6 -4 0
v -5 -4 0
v -6 -5 0
v -7 -5 0
v -7 -4 0
v -6 -4 0
v -7 -5 0
v -8 -5 0
v -8 -4 0
v -7 -4 0
v -8 -5 0
v -9 -5 0
v -9 -4 0
v -8 -4 0
v -2 -6 0
v -3 -6 0
v -3 -5 0
v -2 -5 0
v -3 -6 0
v -4 -6 0
v -4 -5 0
v -3 -5 0
v -4 -6 0
v -5 -6 0
v -5 -5 0
v -4 -5 0
v -5 -6 0
v -6 -6 0
v -6 -5 0
v -5 -5 0
v -6 -6 0
v -7 -6 0
v -7 -5 0
v -6 -5 0
v -7 -6 0
v -8 -6 0
v -8 -5 0
v -7 -5 0
v -8 -6 0
v -9 -6 0
v -9 -5 0
v -8 -5 0
v -1 -7 0
v -2 -7 0
v -2 -6 0
v -1 -6 0
v -2 -7 0
v -3 -7 0
v -3 -6 0
v -2 -6 0
v -4 -7 0
v -5 -7 0
v -5 -6 0
v -4 -6 0
v -5 -7 0
v -6 -7 0
v -6 -6 0
v -5 -6 0
v -6 -7 0
v -7 -7 0
v -7 -6 0
v -6 -6 0
v -7 -7 0
v -8 -7 0
v -8 -6 0
v -7 -6 0
v -8 -7 0
v -9 -7 0
v -9 -6 0
v -8 -6 0
v -2 -8 0
v -3 -8 0
v -3 -7 0
v -2 -7 0
v -3 -8 0
v -4 -8 0
v -4 -7 0
v -3 -7 0
v -4 -8 0
v -5 -8 0
v -5 -7 0
v -4 -7 0
v -5 -8 0
v -6 -8 0
v -6 -7 0
v -5 -7 0
v -6 -8 0
v -7 -8 0
v -7 -7 0
v -6 -7 0
v -7 -8 0
v -8 -8 0
v -8 -7 0
v -7 -7 0
v -8 -8 0
v -9 -8 0
v -9 -7 0
v -8 -7 0
v -1 -9 0
v -2 -9 0
v -2 -8 0
v -1 -8 0
v -2 -9 0
v -3 -9 0
v -3 -8 0
v -2 -8 0
v -3 -9 0
v -4 -9 0
v -4 -8 0
v -3 -8 0
v -4 -9 0
v -5 -9 0
v -5 -8 0
v -4 -8 0
v -5 -9 0
v -6 -9 0
v -6 -8 0
v -5 -8 0
v -6 -9 0
v -7 -9 0
v -7 -8 0
v -6 -8 0
v -7 -9 0
v -8 -9 0
v -8 -8 0
v -7 -8 0
v -8 -9 0
v -9 -9 0
v -9 -8 0
v -8 -8 0
v -3 -10 0
v -4 -10 0
v -4 -9 0
v -3 -9 0
v -4 -10 0
v -5 -10 0
v -5 -9 0
v -4 -9 0
v -5 -10 0
v -6 -10 0
v -6 -9 0
v -5 -9 0
v -6 -10 0
v -7 -10 0
v -7 -9 0
v -6 -9 0

# Texture cooridinates (Count = 44)
vt 0 0.9130435
vt 0.03333334 0.9130435
vt 0.03333334 0.9565217
vt 0 0.9565217
vt 0.1 0.9130435
vt 0.1333333 0.9130435
vt 0.1333333 0.9565217
vt 0.1 0.9565217
vt 0 0.8695652
vt 0.03333334 0.8695652
vt 0.06666667 0.8695652
vt 0.06666667 0.9130435
vt 0.1 0.8695652
vt 0.1333333 0.8695652
vt 0.06666667 0.9565217
vt 0.06666667 1
vt 0.03333334 1
vt 0.1 1
vt 0.3333333 0.9565217
vt 0.3666667 0.9565217
vt 0.3666667 1
vt 0.3333333 1
vt 0.4 0.9565217
vt 0.4 1
vt 0.4333333 0.9565217
vt 0.4333333 1
vt 0.3333333 0.9130435
vt 0.3666667 0.9130435
vt 0.4 0.9130435
vt 0.4333333 0.9130435
vt 0.3333333 0.8695652
vt 0.3666667 0.8695652
vt 0.4 0.8695652
vt 0.4333333 0.8695652
vt 0.1666667 0.9565217
vt 0.2 0.9565217
vt 0.2 1
vt 0.1666667 1
vt 0.2333333 0.9565217
vt 0.2333333 1
vt 0.2666667 0.9565217
vt 0.2666667 1
vt 0.2 0.9130435
vt 0.2333333 0.9130435

# Normal
vn 0 0 -1

# Mesh description
g BossRoom_mesh_0002

# Faces
f 1/1/1 2/2/1 3/3/1 4/4/1
f 5/5/1 6/6/1 7/7/1 8/8/1
f 9/9/1 10/10/1 11/2/1 12/1/1
f 13/10/1 14/11/1 15/12/1 16/2/1
f 17/11/1 18/13/1 19/5/1 20/12/1
f 21/13/1 22/14/1 23/6/1 24/5/1
f 25/5/1 26/6/1 27/7/1 28/8/1
f 29/2/1 30/12/1 31/15/1 32/3/1
f 33/3/1 34/15/1 35/16/1 36/17/1
f 37/15/1 38/8/1 39/18/1 40/16/1
f 41/1/1 42/2/1 43/3/1 44/4/1
f 45/2/1 46/12/1 47/15/1 48/3/1
f 49/1/1 50/2/1 51/3/1 52/4/1
f 53/2/1 54/12/1 55/15/1 56/3/1
f 57/13/1 58/14/1 59/6/1 60/5/1
f 61/5/1 62/6/1 63/7/1 64/8/1
f 65/1/1 66/2/1 67/3/1 68/4/1
f 69/2/1 70/12/1 71/15/1 72/3/1
f 73/19/1 74/20/1 75/21/1 76/22/1
f 77/20/1 78/23/1 79/24/1 80/21/1
f 81/20/1 82/23/1 83/24/1 84/21/1
f 85/23/1 86/25/1 87/26/1 88/24/1
f 89/1/1 90/2/1 91/3/1 92/4/1
f 93/2/1 94/12/1 95/15/1 96/3/1
f 97/1/1 98/2/1 99/3/1 100/4/1
f 101/2/1 102/12/1 103/15/1 104/3/1
f 105/27/1 106/28/1 107/20/1 108/19/1
f 109/28/1 110/29/1 111/23/1 112/20/1
f 113/28/1 114/29/1 115/23/1 116/20/1
f 117/29/1 118/30/1 119/25/1 120/23/1
f 121/3/1 122/15/1 123/16/1 124/17/1
f 125/15/1 126/8/1 127/18/1 128/16/1
f 129/3/1 130/15/1 131/16/1 132/17/1
f 133/31/1 134/32/1 135/28/1 136/27/1
f 137/32/1 138/33/1 139/29/1 140/28/1
f 141/32/1 142/33/1 143/29/1 144/28/1
f 145/33/1 146/34/1 147/30/1 148/29/1
f 149/12/1 150/5/1 151/8/1 152/15/1
f 153/12/1 154/5/1 155/8/1 156/15/1
f 157/1/1 158/2/1 159/3/1 160/4/1
f 161/2/1 162/12/1 163/15/1 164/3/1
f 165/3/1 166/15/1 167/16/1 168/17/1
f 169/1/1 170/2/1 171/3/1 172/4/1
f 173/1/1 174/2/1 175/3/1 176/4/1
f 177/10/1 178/11/1 179/12/1 180/2/1
f 181/11/1 182/13/1 183/5/1 184/12/1
f 185/3/1 186/15/1 187/16/1 188/17/1
f 189/12/1 190/5/1 191/8/1 192/15/1
f 193/5/1 194/6/1 195/7/1 196/8/1
f 197/9/1 198/10/1 199/2/1 200/1/1
f 201/9/1 202/10/1 203/2/1 204/1/1
f 205/5/1 206/6/1 207/7/1 208/8/1
f 209/12/1 210/5/1 211/8/1 212/15/1
f 213/10/1 214/11/1 215/12/1 216/2/1
f 217/11/1 218/13/1 219/5/1 220/12/1
f 221/35/1 222/36/1 223/37/1 224/38/1
f 225/36/1 226/39/1 227/40/1 228/37/1
f 229/36/1 230/39/1 231/40/1 232/37/1
f 233/39/1 234/41/1 235/42/1 236/40/1
f 237/1/1 238/2/1 239/3/1 240/4/1
f 241/2/1 242/12/1 243/15/1 244/3/1
f 245/43/1 246/44/1 247/39/1 248/36/1
f 249/43/1 250/44/1 251/39/1 252/36/1
f 253/43/1 254/44/1 255/39/1 256/36/1
f 257/43/1 258/44/1 259/39/1 260/36/1

