# Tiled2Unity generated file. Do not modify by hand.
# Wavefront file for 'BossRoom_mesh_0002.obj'

# Vertices (Count = 268)
v -4 -1 0
v -5 -1 0
v -5 0 0
v -4 0 0
v -5 -1 0
v -6 -1 0
v -6 0 0
v -5 0 0
v -1 -2 0
v -2 -2 0
v -2 -1 0
v -1 -1 0
v -2 -2 0
v -3 -2 0
v -3 -1 0
v -2 -1 0
v -3 -2 0
v -4 -2 0
v -4 -1 0
v -3 -1 0
v -4 -2 0
v -5 -2 0
v -5 -1 0
v -4 -1 0
v -5 -2 0
v -6 -2 0
v -6 -1 0
v -5 -1 0
v -6 -2 0
v -7 -2 0
v -7 -1 0
v -6 -1 0
v -7 -2 0
v -8 -2 0
v -8 -1 0
v -7 -1 0
v -8 -2 0
v -9 -2 0
v -9 -1 0
v -8 -1 0
v -1 -3 0
v -2 -3 0
v -2 -2 0
v -1 -2 0
v -2 -3 0
v -3 -3 0
v -3 -2 0
v -2 -2 0
v -3 -3 0
v -4 -3 0
v -4 -2 0
v -3 -2 0
v -4 -3 0
v -5 -3 0
v -5 -2 0
v -4 -2 0
v -5 -3 0
v -6 -3 0
v -6 -2 0
v -5 -2 0
v -6 -3 0
v -7 -3 0
v -7 -2 0
v -6 -2 0
v -7 -3 0
v -8 -3 0
v -8 -2 0
v -7 -2 0
v -8 -3 0
v -9 -3 0
v -9 -2 0
v -8 -2 0
v -1 -4 0
v -2 -4 0
v -2 -3 0
v -1 -3 0
v -2 -4 0
v -3 -4 0
v -3 -3 0
v -2 -3 0
v -3 -4 0
v -4 -4 0
v -4 -3 0
v -3 -3 0
v -4 -4 0
v -5 -4 0
v -5 -3 0
v -4 -3 0
v -5 -4 0
v -6 -4 0
v -6 -3 0
v -5 -3 0
v -6 -4 0
v -7 -4 0
v -7 -3 0
v -6 -3 0
v -7 -4 0
v -8 -4 0
v -8 -3 0
v -7 -3 0
v -8 -4 0
v -9 -4 0
v -9 -3 0
v -8 -3 0
v -1 -5 0
v -2 -5 0
v -2 -4 0
v -1 -4 0
v -2 -5 0
v -3 -5 0
v -3 -4 0
v -2 -4 0
v -3 -5 0
v -4 -5 0
v -4 -4 0
v -3 -4 0
v -4 -5 0
v -5 -5 0
v -5 -4 0
v -4 -4 0
v -5 -5 0
v -6 -5 0
v -6 -4 0
v -5 -4 0
v -6 -5 0
v -7 -5 0
v -7 -4 0
v -6 -4 0
v -7 -5 0
v -8 -5 0
v -8 -4 0
v -7 -4 0
v -8 -5 0
v -9 -5 0
v -9 -4 0
v -8 -4 0
v -2 -6 0
v -3 -6 0
v -3 -5 0
v -2 -5 0
v -3 -6 0
v -4 -6 0
v -4 -5 0
v -3 -5 0
v -4 -6 0
v -5 -6 0
v -5 -5 0
v -4 -5 0
v -5 -6 0
v -6 -6 0
v -6 -5 0
v -5 -5 0
v -6 -6 0
v -7 -6 0
v -7 -5 0
v -6 -5 0
v -7 -6 0
v -8 -6 0
v -8 -5 0
v -7 -5 0
v -8 -6 0
v -9 -6 0
v -9 -5 0
v -8 -5 0
v -1 -7 0
v -2 -7 0
v -2 -6 0
v -1 -6 0
v -2 -7 0
v -3 -7 0
v -3 -6 0
v -2 -6 0
v -4 -7 0
v -5 -7 0
v -5 -6 0
v -4 -6 0
v -5 -7 0
v -6 -7 0
v -6 -6 0
v -5 -6 0
v -6 -7 0
v -7 -7 0
v -7 -6 0
v -6 -6 0
v -7 -7 0
v -8 -7 0
v -8 -6 0
v -7 -6 0
v -8 -7 0
v -9 -7 0
v -9 -6 0
v -8 -6 0
v -2 -8 0
v -3 -8 0
v -3 -7 0
v -2 -7 0
v -3 -8 0
v -4 -8 0
v -4 -7 0
v -3 -7 0
v -4 -8 0
v -5 -8 0
v -5 -7 0
v -4 -7 0
v -5 -8 0
v -6 -8 0
v -6 -7 0
v -5 -7 0
v -6 -8 0
v -7 -8 0
v -7 -7 0
v -6 -7 0
v -7 -8 0
v -8 -8 0
v -8 -7 0
v -7 -7 0
v -8 -8 0
v -9 -8 0
v -9 -7 0
v -8 -7 0
v -1 -9 0
v -2 -9 0
v -2 -8 0
v -1 -8 0
v -2 -9 0
v -3 -9 0
v -3 -8 0
v -2 -8 0
v -3 -9 0
v -4 -9 0
v -4 -8 0
v -3 -8 0
v -4 -9 0
v -5 -9 0
v -5 -8 0
v -4 -8 0
v -5 -9 0
v -6 -9 0
v -6 -8 0
v -5 -8 0
v -6 -9 0
v -7 -9 0
v -7 -8 0
v -6 -8 0
v -7 -9 0
v -8 -9 0
v -8 -8 0
v -7 -8 0
v -8 -9 0
v -9 -9 0
v -9 -8 0
v -8 -8 0
v -3 -10 0
v -4 -10 0
v -4 -9 0
v -3 -9 0
v -4 -10 0
v -5 -10 0
v -5 -9 0
v -4 -9 0
v -5 -10 0
v -6 -10 0
v -6 -9 0
v -5 -9 0
v -6 -10 0
v -7 -10 0
v -7 -9 0
v -6 -9 0

# Texture cooridinates (Count = 44)
vt 0.03333334 0.9130435
vt 0.06666667 0.9130435
vt 0.06666667 0.9565217
vt 0.03333334 0.9565217
vt 0 0.9130435
vt 0 0.9565217
vt 0.1 0.9130435
vt 0.1333333 0.9130435
vt 0.1333333 0.9565217
vt 0.1 0.9565217
vt 0 0.8695652
vt 0.03333334 0.8695652
vt 0.06666667 0.8695652
vt 0.1 0.8695652
vt 0.1333333 0.8695652
vt 0.06666667 1
vt 0.03333334 1
vt 0.1 1
vt 0.3333333 0.9565217
vt 0.3666667 0.9565217
vt 0.3666667 1
vt 0.3333333 1
vt 0.4 0.9565217
vt 0.4 1
vt 0.4333333 0.9565217
vt 0.4333333 1
vt 0.3333333 0.9130435
vt 0.3666667 0.9130435
vt 0.4 0.9130435
vt 0.4333333 0.9130435
vt 0.3333333 0.8695652
vt 0.3666667 0.8695652
vt 0.4 0.8695652
vt 0.4333333 0.8695652
vt 0.1666667 0.9565217
vt 0.2 0.9565217
vt 0.2 1
vt 0.1666667 1
vt 0.2333333 0.9565217
vt 0.2333333 1
vt 0.2666667 0.9565217
vt 0.2666667 1
vt 0.2 0.9130435
vt 0.2333333 0.9130435

# Normal
vn 0 0 -1

# Mesh description
g BossRoom_mesh_0002

# Faces
f 1/1/1 2/2/1 3/3/1 4/4/1
f 5/5/1 6/1/1 7/4/1 8/6/1
f 9/5/1 10/1/1 11/4/1 12/6/1
f 13/7/1 14/8/1 15/9/1 16/10/1
f 17/11/1 18/12/1 19/1/1 20/5/1
f 21/12/1 22/13/1 23/2/1 24/1/1
f 25/13/1 26/14/1 27/7/1 28/2/1
f 29/14/1 30/15/1 31/8/1 32/7/1
f 33/7/1 34/8/1 35/9/1 36/10/1
f 37/1/1 38/2/1 39/3/1 40/4/1
f 41/4/1 42/3/1 43/16/1 44/17/1
f 45/3/1 46/10/1 47/18/1 48/16/1
f 49/5/1 50/1/1 51/4/1 52/6/1
f 53/1/1 54/2/1 55/3/1 56/4/1
f 57/5/1 58/1/1 59/4/1 60/6/1
f 61/1/1 62/2/1 63/3/1 64/4/1
f 65/14/1 66/15/1 67/8/1 68/7/1
f 69/7/1 70/8/1 71/9/1 72/10/1
f 73/5/1 74/1/1 75/4/1 76/6/1
f 77/1/1 78/2/1 79/3/1 80/4/1
f 81/19/1 82/20/1 83/21/1 84/22/1
f 85/20/1 86/23/1 87/24/1 88/21/1
f 89/20/1 90/23/1 91/24/1 92/21/1
f 93/23/1 94/25/1 95/26/1 96/24/1
f 97/5/1 98/1/1 99/4/1 100/6/1
f 101/1/1 102/2/1 103/3/1 104/4/1
f 105/5/1 106/1/1 107/4/1 108/6/1
f 109/1/1 110/2/1 111/3/1 112/4/1
f 113/27/1 114/28/1 115/20/1 116/19/1
f 117/28/1 118/29/1 119/23/1 120/20/1
f 121/28/1 122/29/1 123/23/1 124/20/1
f 125/29/1 126/30/1 127/25/1 128/23/1
f 129/4/1 130/3/1 131/16/1 132/17/1
f 133/3/1 134/10/1 135/18/1 136/16/1
f 137/4/1 138/3/1 139/16/1 140/17/1
f 141/31/1 142/32/1 143/28/1 144/27/1
f 145/32/1 146/33/1 147/29/1 148/28/1
f 149/32/1 150/33/1 151/29/1 152/28/1
f 153/33/1 154/34/1 155/30/1 156/29/1
f 157/2/1 158/7/1 159/10/1 160/3/1
f 161/2/1 162/7/1 163/10/1 164/3/1
f 165/5/1 166/1/1 167/4/1 168/6/1
f 169/1/1 170/2/1 171/3/1 172/4/1
f 173/4/1 174/3/1 175/16/1 176/17/1
f 177/5/1 178/1/1 179/4/1 180/6/1
f 181/5/1 182/1/1 183/4/1 184/6/1
f 185/12/1 186/13/1 187/2/1 188/1/1
f 189/13/1 190/14/1 191/7/1 192/2/1
f 193/4/1 194/3/1 195/16/1 196/17/1
f 197/2/1 198/7/1 199/10/1 200/3/1
f 201/7/1 202/8/1 203/9/1 204/10/1
f 205/11/1 206/12/1 207/1/1 208/5/1
f 209/11/1 210/12/1 211/1/1 212/5/1
f 213/7/1 214/8/1 215/9/1 216/10/1
f 217/2/1 218/7/1 219/10/1 220/3/1
f 221/12/1 222/13/1 223/2/1 224/1/1
f 225/13/1 226/14/1 227/7/1 228/2/1
f 229/35/1 230/36/1 231/37/1 232/38/1
f 233/36/1 234/39/1 235/40/1 236/37/1
f 237/36/1 238/39/1 239/40/1 240/37/1
f 241/39/1 242/41/1 243/42/1 244/40/1
f 245/5/1 246/1/1 247/4/1 248/6/1
f 249/1/1 250/2/1 251/3/1 252/4/1
f 253/43/1 254/44/1 255/39/1 256/36/1
f 257/43/1 258/44/1 259/39/1 260/36/1
f 261/43/1 262/44/1 263/39/1 264/36/1
f 265/43/1 266/44/1 267/39/1 268/36/1

