# Tiled2Unity generated file. Do not modify by hand.
# Wavefront file for 'Prueba_mesh_0002.obj'

# Vertices (Count = 188)
v -3 -1 0
v -4 -1 0
v -4 0 0
v -3 0 0
v -6 -1 0
v -7 -1 0
v -7 0 0
v -6 0 0
v -1 -2 0
v -2 -2 0
v -2 -1 0
v -1 -1 0
v -2 -2 0
v -3 -2 0
v -3 -1 0
v -2 -1 0
v -3 -2 0
v -4 -2 0
v -4 -1 0
v -3 -1 0
v -6 -2 0
v -7 -2 0
v -7 -1 0
v -6 -1 0
v -8 -2 0
v -9 -2 0
v -9 -1 0
v -8 -1 0
v -1 -3 0
v -2 -3 0
v -2 -2 0
v -1 -2 0
v -2 -3 0
v -3 -3 0
v -3 -2 0
v -2 -2 0
v -3 -3 0
v -4 -3 0
v -4 -2 0
v -3 -2 0
v -6 -3 0
v -7 -3 0
v -7 -2 0
v -6 -2 0
v -7 -3 0
v -8 -3 0
v -8 -2 0
v -7 -2 0
v -8 -3 0
v -9 -3 0
v -9 -2 0
v -8 -2 0
v 0 -4 0
v -1 -4 0
v -1 -3 0
v 0 -3 0
v -1 -4 0
v -2 -4 0
v -2 -3 0
v -1 -3 0
v -2 -4 0
v -3 -4 0
v -3 -3 0
v -2 -3 0
v -3 -4 0
v -4 -4 0
v -4 -3 0
v -3 -3 0
v -6 -4 0
v -7 -4 0
v -7 -3 0
v -6 -3 0
v -7 -4 0
v -8 -4 0
v -8 -3 0
v -7 -3 0
v -8 -4 0
v -9 -4 0
v -9 -3 0
v -8 -3 0
v -9 -4 0
v -10 -4 0
v -10 -3 0
v -9 -3 0
v -3 -5 0
v -4 -5 0
v -4 -4 0
v -3 -4 0
v -4 -6 0
v -5 -6 0
v -5 -5 0
v -4 -5 0
v -8 -6 0
v -9 -6 0
v -9 -5 0
v -8 -5 0
v -9 -6 0
v -10 -6 0
v -10 -5 0
v -9 -5 0
v 0 -7 0
v -1 -7 0
v -1 -6 0
v 0 -6 0
v -1 -7 0
v -2 -7 0
v -2 -6 0
v -1 -6 0
v -2 -7 0
v -3 -7 0
v -3 -6 0
v -2 -6 0
v -3 -7 0
v -4 -7 0
v -4 -6 0
v -3 -6 0
v -6 -7 0
v -7 -7 0
v -7 -6 0
v -6 -6 0
v -7 -7 0
v -8 -7 0
v -8 -6 0
v -7 -6 0
v -8 -7 0
v -9 -7 0
v -9 -6 0
v -8 -6 0
v -9 -7 0
v -10 -7 0
v -10 -6 0
v -9 -6 0
v -1 -8 0
v -2 -8 0
v -2 -7 0
v -1 -7 0
v -2 -8 0
v -3 -8 0
v -3 -7 0
v -2 -7 0
v -3 -8 0
v -4 -8 0
v -4 -7 0
v -3 -7 0
v -6 -8 0
v -7 -8 0
v -7 -7 0
v -6 -7 0
v -7 -8 0
v -8 -8 0
v -8 -7 0
v -7 -7 0
v -8 -8 0
v -9 -8 0
v -9 -7 0
v -8 -7 0
v -1 -9 0
v -2 -9 0
v -2 -8 0
v -1 -8 0
v -2 -9 0
v -3 -9 0
v -3 -8 0
v -2 -8 0
v -3 -9 0
v -4 -9 0
v -4 -8 0
v -3 -8 0
v -6 -9 0
v -7 -9 0
v -7 -8 0
v -6 -8 0
v -7 -9 0
v -8 -9 0
v -8 -8 0
v -7 -8 0
v -8 -9 0
v -9 -9 0
v -9 -8 0
v -8 -8 0
v -3 -10 0
v -4 -10 0
v -4 -9 0
v -3 -9 0
v -6 -10 0
v -7 -10 0
v -7 -9 0
v -6 -9 0

# Texture cooridinates (Count = 46)
vt 0.1 0.4722222
vt 0.125 0.4722222
vt 0.125 0.5
vt 0.1 0.5
vt 0.175 0.8333333
vt 0.2 0.8333333
vt 0.2 0.8611111
vt 0.175 0.8611111
vt 0.075 0.6388889
vt 0.1 0.6388889
vt 0.1 0.6666666
vt 0.075 0.6666666
vt 0.1 0.6944444
vt 0.075 0.6944444
vt 0.2 0.7222222
vt 0.225 0.7222222
vt 0.225 0.75
vt 0.2 0.75
vt 0.05 0.6388889
vt 0.05 0.6666666
vt 0.05 0.5833334
vt 0.075 0.5833334
vt 0.075 0.6111111
vt 0.05 0.6111111
vt 0.125 0.5277778
vt 0.1 0.5277778
vt 0.075 0.4722222
vt 0.075 0.5
vt 0.05 0.4722222
vt 0.05 0.5
vt 0.425 0.1666667
vt 0.45 0.1666667
vt 0.45 0.1944444
vt 0.425 0.1944444
vt 0.075 0.5277778
vt 0.05 0.5277778
vt 0.175 0.6944444
vt 0.2 0.6944444
vt 0.175 0.7222222
vt 0.15 0.5277778
vt 0.15 0.5555556
vt 0.125 0.5555556
vt 0.175 0.5277778
vt 0.175 0.5555556
vt 0.15 0.5
vt 0.175 0.5

# Normal
vn 0 0 -1

# Mesh description
g Prueba_mesh_0002

# Faces
f 1/1/1 2/2/1 3/3/1 4/4/1
f 5/1/1 6/2/1 7/3/1 8/4/1
f 9/5/1 10/6/1 11/7/1 12/8/1
f 13/9/1 14/10/1 15/11/1 16/12/1
f 17/1/1 18/2/1 19/3/1 20/4/1
f 21/1/1 22/2/1 23/3/1 24/4/1
f 25/12/1 26/11/1 27/13/1 28/14/1
f 29/9/1 30/10/1 31/11/1 32/12/1
f 33/15/1 34/16/1 35/17/1 36/18/1
f 37/1/1 38/2/1 39/3/1 40/4/1
f 41/1/1 42/2/1 43/3/1 44/4/1
f 45/19/1 46/9/1 47/12/1 48/20/1
f 49/21/1 50/22/1 51/23/1 52/24/1
f 53/4/1 54/3/1 55/25/1 56/26/1
f 57/4/1 58/3/1 59/25/1 60/26/1
f 61/4/1 62/3/1 63/25/1 64/26/1
f 65/27/1 66/1/1 67/4/1 68/28/1
f 69/29/1 70/27/1 71/28/1 72/30/1
f 73/4/1 74/3/1 75/25/1 76/26/1
f 77/4/1 78/3/1 79/25/1 80/26/1
f 81/4/1 82/3/1 83/25/1 84/26/1
f 85/31/1 86/32/1 87/33/1 88/34/1
f 89/31/1 90/32/1 91/33/1 92/34/1
f 93/31/1 94/32/1 95/33/1 96/34/1
f 97/31/1 98/32/1 99/33/1 100/34/1
f 101/4/1 102/3/1 103/25/1 104/26/1
f 105/4/1 106/3/1 107/25/1 108/26/1
f 109/4/1 110/3/1 111/25/1 112/26/1
f 113/28/1 114/4/1 115/26/1 116/35/1
f 117/30/1 118/28/1 119/35/1 120/36/1
f 121/4/1 122/3/1 123/25/1 124/26/1
f 125/4/1 126/3/1 127/25/1 128/26/1
f 129/4/1 130/3/1 131/25/1 132/26/1
f 133/19/1 134/9/1 135/12/1 136/20/1
f 137/37/1 138/38/1 139/15/1 140/39/1
f 141/1/1 142/2/1 143/3/1 144/4/1
f 145/1/1 146/2/1 147/3/1 148/4/1
f 149/25/1 150/40/1 151/41/1 152/42/1
f 153/40/1 154/43/1 155/44/1 156/41/1
f 157/19/1 158/9/1 159/12/1 160/20/1
f 161/12/1 162/11/1 163/13/1 164/14/1
f 165/1/1 166/2/1 167/3/1 168/4/1
f 169/1/1 170/2/1 171/3/1 172/4/1
f 173/3/1 174/45/1 175/40/1 176/25/1
f 177/45/1 178/46/1 179/43/1 180/40/1
f 181/1/1 182/2/1 183/3/1 184/4/1
f 185/1/1 186/2/1 187/3/1 188/4/1

